


<svg width="314" height="299" viewBox="0 0 314 299" fill="none" xmlns="http://www.w3.org/2000/svg">
<g clip-path="url(#clip0)">
<path fill-rule="evenodd" clip-rule="evenodd" d="M227.823 153.705C227.823 193.541 194.834 225.871 154.186 225.871C113.539 225.871 80.5498 193.541 80.5498 153.705C80.5498 113.869 113.539 81.5385 154.186 81.5385C194.834 81.5385 227.823 113.869 227.823 153.705V153.705Z" fill="#FFBB00" fill-opacity="0.98077"/>
<path fill-rule="evenodd" clip-rule="evenodd" d="M145.774 42.1477C139.995 54.3759 154.012 72.8635 164.974 58.9846C169.201 46.9051 166.2 33.6602 167.628 21.099C170.431 10.1223 166.062 1.3089 153.881 0C146.83 1.38187 147.772 27.8366 145.774 42.147V42.1477Z" fill="#FFBB00" fill-opacity="0.98077"/>
<path fill-rule="evenodd" clip-rule="evenodd" d="M67.1931 19.0019C63.0369 19.133 59.3308 21.6197 57.7045 25.3711C56.0746 29.126 56.8187 33.4618 59.6072 36.487C59.6072 36.487 68.2879 46.0974 95.294 76.1721C97.753 79.1795 101.704 80.6213 105.573 79.9199C109.442 79.2185 112.602 76.4909 113.804 72.821C115.005 69.1476 114.052 65.127 111.32 62.3498C84.3244 32.2858 75.7428 22.6683 75.7428 22.6683C73.6169 20.2265 70.467 18.8758 67.1931 19.0019V19.0019Z" fill="#FFBB00" fill-opacity="0.98077"/>
<path fill-rule="evenodd" clip-rule="evenodd" d="M14.9489 72.9273C13.8435 76.8026 12.3043 83.2001 18.6976 85.6621C33.3983 95.4638 50.4409 99.7571 68.4615 107.058C75.392 109.775 83.3748 103.491 82.6095 96.3281C82.2835 89.5268 74.9775 86.7035 69.3863 84.7977C55.3482 79.0733 40.97 74.1884 26.645 69.2007C22.4073 68.7756 18.4071 70.7487 14.9489 72.9273V72.9273Z" fill="#FFBB00" fill-opacity="0.98077"/>
<path fill-rule="evenodd" clip-rule="evenodd" d="M0.312796 150.909C0.771283 155.787 -1.81949 161.415 2.83129 164.274C12.5548 167.452 35.6695 167.338 53.1515 167.512C61.6232 166.857 65.751 155.085 59.221 149.612C54.1967 144.933 46.8907 147.037 40.6972 146.382C33.4302 146.222 -1.254 145.053 0.312087 150.909H0.312796Z" fill="#FFBB00" fill-opacity="0.98077"/>
<path fill-rule="evenodd" clip-rule="evenodd" d="M66.3392 186.223C64.6598 186.262 63.0122 186.694 61.5311 187.477C41.3208 197.682 30.9641 202.79 25.7415 205.277C23.3038 206.435 22.1487 206.913 21.5747 207.161C21.5322 207.179 21.2877 207.254 21.2523 207.268C16.2316 208.887 13.1738 213.857 14.0561 218.961C14.9383 224.069 19.4949 227.778 24.7777 227.686C24.7777 227.686 26.1808 227.654 26.5954 227.58C27.0064 227.509 27.3288 227.431 27.5556 227.371C28.0127 227.25 28.2784 227.14 28.5193 227.055C28.9941 226.889 29.3024 226.747 29.7984 226.535C30.7941 226.11 32.2787 225.436 35.0352 224.126C40.5484 221.501 51.0717 216.357 71.3599 206.116C75.9093 203.963 78.2974 198.979 77.0857 194.172C75.8739 189.365 71.3883 186.049 66.3392 186.223V186.223Z" fill="#FFBB00" fill-opacity="0.98077"/>
<path fill-rule="evenodd" clip-rule="evenodd" d="M96.8955 225.904C94.1531 226 91.5524 227.123 89.632 229.046C71.2642 247.048 61.9952 255.791 57.5769 259.829C55.8585 261.406 55.4474 261.77 55.0152 262.135C54.9975 262.15 54.9231 262.224 54.9089 262.238C51.6314 264.144 49.6366 267.615 49.6721 271.349L50.1008 274.491L52.5562 278.469L56.723 281.19C56.7265 281.193 60.3547 281.82 60.3547 281.82C60.3583 281.82 62.0271 281.728 62.6011 281.611C63.1716 281.491 63.5259 281.317 63.8838 281.19C64.5995 280.942 65.0353 280.743 65.379 280.563C66.7537 279.844 67.0017 279.603 67.5155 279.202C68.543 278.395 69.8221 277.307 72.2173 275.118C77.0041 270.74 86.2448 261.997 104.694 243.913C107.886 240.906 108.854 236.276 107.121 232.28C105.392 228.281 101.325 225.748 96.8955 225.904V225.904Z" fill="#FFBB00" fill-opacity="0.98077"/>
<path fill-rule="evenodd" clip-rule="evenodd" d="M158.118 239.099C155.284 239.209 152.609 240.417 150.685 242.461C148.761 244.501 147.744 247.211 147.861 249.989C148.304 267.761 144.232 289.234 149.739 296.542C156.084 299.305 159.72 298.99 159.72 298.99L168.287 296.018C170.402 289.11 170.456 278.055 169.23 249.464C169.201 246.63 168.004 243.931 165.91 241.976C163.816 240.024 161.006 238.986 158.118 239.099V239.099Z" fill="#FFBB00" fill-opacity="0.98077"/>
<path fill-rule="evenodd" clip-rule="evenodd" d="M212.605 231.873C208.647 231.816 204.984 233.906 203.081 237.31C201.175 240.711 201.348 244.863 203.524 248.104C214.699 265.139 220.932 273.567 224.893 278.154C226.874 280.449 228.216 281.781 230.02 283.074C230.923 283.723 231.905 284.406 233.761 284.962C234.686 285.239 235.877 285.518 237.287 285.483C237.988 285.465 238.754 285.352 239.53 285.171C240.306 284.987 241.773 284.332 241.773 284.332C245.383 282.621 247.711 279.071 247.803 275.143C247.892 271.211 245.73 267.562 242.201 265.695C242.12 265.61 242.201 265.656 241.238 264.544C238.453 261.314 232.39 253.439 221.474 236.793C219.557 233.789 216.219 231.937 212.605 231.873V231.873Z" fill="#FFBB00" fill-opacity="0.98077"/>
<path fill-rule="evenodd" clip-rule="evenodd" d="M245.514 192.294C240.805 192.822 237.014 196.322 236.199 200.899C235.384 205.472 237.74 210.024 241.985 212.085C254.354 218.338 269.664 230.555 279.915 228.586C288.397 226.981 289.124 221.228 288.443 215.475C287.033 209.949 282.108 207.165 251.817 193.445C249.886 192.439 247.686 192.036 245.514 192.294V192.294Z" fill="#FFBB00" fill-opacity="0.98077"/>
<path fill-rule="evenodd" clip-rule="evenodd" d="M303.208 139.208C302.039 139.233 300.884 139.446 299.789 139.835C299.112 139.899 298.442 139.938 296.047 140.044C289.62 140.331 276.28 140.569 249.359 140.569C245.507 140.516 241.921 142.499 239.98 145.762C238.038 149.021 238.038 153.055 239.98 156.318C241.921 159.58 245.507 161.564 249.359 161.511C276.439 161.511 289.939 161.196 297.011 160.881C300.547 160.725 302.481 160.661 303.955 160.463C304.692 160.363 305.185 160.321 306.411 159.938C307.024 159.747 307.825 159.563 309.299 158.578C309.667 158.33 310.121 157.944 310.578 157.529C311.038 157.115 312.073 155.96 312.076 155.96L313.355 153.342C313.359 153.342 313.997 149.889 313.997 149.889C314.057 147.055 312.941 144.324 310.907 142.311C308.873 140.299 306.096 139.18 303.208 139.208Z" fill="#FFBB00" fill-opacity="0.98077"/>
<path fill-rule="evenodd" clip-rule="evenodd" d="M299.704 84.0042C288.426 84.0042 288.422 83.3276 247.97 93.9724C244.125 94.7411 241.021 97.5113 239.884 101.192C238.743 104.869 239.749 108.865 242.51 111.596C245.27 114.33 249.334 115.361 253.1 114.288C271.596 109.867 301.638 104.546 302.715 98.2056C308.055 92.7787 303.527 88.7368 299.704 84.0042V84.0042Z" fill="#FFBB00" fill-opacity="0.98077"/>
<path fill-rule="evenodd" clip-rule="evenodd" d="M246.623 22.562C240.277 26.0158 232.546 32.973 212.07 62.4561C208.885 67.341 210.345 73.8341 215.33 76.9585C220.315 80.0793 226.941 78.6517 230.126 73.7633C240.575 57.7376 256.519 39.1828 257.862 32.5763C256.934 27.1671 251.779 23.1359 246.623 22.562V22.562Z" fill="#FFBB00" fill-opacity="0.98077"/>
<path fill-rule="evenodd" clip-rule="evenodd" d="M183.647 132.903C183.647 156.307 163.784 175.305 139.308 175.305C114.831 175.305 94.9682 156.307 94.9682 132.903C94.9682 109.495 114.831 90.5009 139.308 90.5009C163.784 90.5009 183.647 109.495 183.647 132.903Z" fill="url(#paint0_radial)"/>
</g>
<defs>
<radialGradient id="paint0_radial" cx="0" cy="0" r="1" gradientUnits="userSpaceOnUse" gradientTransform="translate(139.314 132.903) scale(44.3407 42.402)">
<stop stop-color="white"/>
<stop offset="1" stop-color="white" stop-opacity="0"/>
</radialGradient>
<clipPath id="clip0">
<rect width="314" height="299" fill="white"/>
</clipPath>
</defs>
</svg>
