<svg width="258" height="257" viewBox="0 0 258 257" fill="none" xmlns="http://www.w3.org/2000/svg">
<path fill-rule="evenodd" clip-rule="evenodd" d="M257.678 128.677C257.68 145.528 254.363 162.214 247.916 177.783C241.469 193.352 232.018 207.498 220.103 219.414C208.189 231.33 194.043 240.783 178.475 247.232C162.907 253.681 146.222 257 129.371 257C112.52 257 95.8341 253.681 80.2662 247.232C64.6982 240.783 50.5531 231.33 38.6384 219.414C26.7238 207.498 17.2731 193.352 10.826 177.783C4.37883 162.214 1.06156 145.528 1.0636 128.677C1.06156 111.826 4.37883 95.1402 10.826 79.5715C17.2731 64.0028 26.7238 49.8564 38.6384 37.9404C50.5531 26.0243 64.6982 16.5719 80.2662 10.1229C95.8341 3.67386 112.52 0.354584 129.371 0.354584C146.222 0.354584 162.907 3.67386 178.475 10.1229C194.043 16.5719 208.189 26.0243 220.103 37.9404C232.018 49.8564 241.469 64.0028 247.916 79.5715C254.363 95.1402 257.68 111.826 257.678 128.677V128.677Z" fill="#999999"/>
<path d="M240.239 54.422C240.239 59.9955 238.969 65.5145 236.5 70.6638C234.03 75.8132 230.411 80.4921 225.848 84.4334C221.285 88.3746 215.868 91.501 209.906 93.634C203.943 95.767 197.553 96.8649 191.1 96.8649C184.646 96.8649 178.256 95.767 172.294 93.634C166.332 91.501 160.914 88.3746 156.351 84.4334C151.788 80.4921 148.169 75.8132 145.7 70.6638C143.23 65.5145 141.96 59.9955 141.961 54.422C141.96 48.8486 143.23 43.3296 145.7 38.1802C148.169 33.0308 151.788 28.3519 156.351 24.4107C160.914 20.4695 166.332 17.3431 172.294 15.2101C178.256 13.0771 184.646 11.9792 191.1 11.9792C197.553 11.9792 203.943 13.0771 209.906 15.2101C215.868 17.3431 221.285 20.4695 225.848 24.4107C230.411 28.3519 234.03 33.0308 236.5 38.1802C238.969 43.3296 240.239 48.8486 240.239 54.422V54.422Z" fill="url(#paint0_radial)"/>
<path fill-rule="evenodd" clip-rule="evenodd" d="M257.678 128.677C257.68 145.528 254.363 162.214 247.916 177.783C241.469 193.352 232.018 207.498 220.103 219.414C208.189 231.33 194.043 240.783 178.475 247.232C162.907 253.681 146.222 257 129.371 257C112.52 257 95.8341 253.681 80.2662 247.232C64.6982 240.783 50.5531 231.33 38.6384 219.414C26.7238 207.498 17.2731 193.352 10.826 177.783C4.37883 162.214 1.06156 145.528 1.0636 128.677C1.06156 111.826 4.37883 95.1402 10.826 79.5715C17.2731 64.0028 26.7238 49.8564 38.6384 37.9404C50.5531 26.0243 64.6982 16.5719 80.2662 10.1229C95.8341 3.67386 112.52 0.354584 129.371 0.354584C146.222 0.354584 162.907 3.67386 178.475 10.1229C194.043 16.5719 208.189 26.0243 220.103 37.9404C232.018 49.8564 241.469 64.0028 247.916 79.5715C254.363 95.1402 257.68 111.826 257.678 128.677V128.677Z" fill="#999999" fill-opacity="0.192308"/>
<path d="M184.647 168.335C182.908 175.692 100.108 232.528 128.063 235.343C162.646 245.457 167.143 227.993 212.443 199.605C249.08 199.196 244.86 130.236 227.83 113.736C138.644 95.6773 217.952 152.96 184.647 168.335V168.335Z" fill="black" fill-opacity="0.197115"/>
<path d="M92.3254 122.671L85.8728 151.955C102.575 175.983 123.895 160.719 137.99 143.021C141.208 129.123 146.46 131.109 118.632 117.211C105.54 112.03 114.109 100.534 92.3254 122.671Z" fill="black" fill-opacity="0.196078"/>
<path d="M33.7558 144.014C9.13978 204.079 72.3417 206.948 89.8437 205.562C107.94 206.689 73.5751 180.382 65.026 161.882C63.4059 150.797 76.774 139.712 58.5734 128.627C37.1776 126.374 34.2756 134.524 33.7558 144.014V144.014Z" fill="black" fill-opacity="0.196078"/>
<path d="M75.4494 31.3416C41.2011 40.276 38.7193 60.1301 38.7193 60.1301L34.7485 105.795L72.4713 108.773C91.6956 97.1269 124.277 79.0138 113.669 43.7505C143.56 6.24605 104.288 27.9904 75.4494 31.3416V31.3416Z" fill="black" fill-opacity="0.196078"/>
<path d="M202.019 36.8015L218.895 38.7869L218.399 51.1958L234.779 81.9697L220.881 106.291L218.895 87.4295L211.45 60.6265C210.931 81.7197 198.265 115.912 193.085 107.78C192.2 96.4547 203.83 80.3533 204.501 64.1009C192.913 81.5705 168.006 129.007 170.749 114.233C163.133 115.741 183.459 82.8594 191.1 65.59L149.902 105.298C140.232 105.643 164.16 80.7899 179.187 62.6119L125.085 85.9405C114.656 87.8206 129.737 78.4289 176.209 55.1666L138.983 57.6483C140.9 55.3448 120.446 54.9453 180.18 47.7213C170.727 37.1172 160.129 28.5212 147.421 19.4292C172.168 14.3075 184.313 30.1893 202.019 36.8015V36.8015Z" fill="white" fill-opacity="0.682692"/>
<path d="M202.516 44.9914C202.516 46.3736 201.993 47.6992 201.062 48.6766C200.131 49.654 198.869 50.2031 197.552 50.2031C196.236 50.2031 194.973 49.654 194.042 48.6766C193.112 47.6992 192.589 46.3736 192.589 44.9914C192.589 43.6091 193.112 42.2835 194.042 41.3061C194.973 40.3287 196.236 39.7796 197.552 39.7796C198.869 39.7796 200.131 40.3287 201.062 41.3061C201.993 42.2835 202.516 43.6091 202.516 44.9914V44.9914Z" fill="black" fill-opacity="0.196078"/>
<path d="M101.26 95.8675C65.026 135.576 65.5224 147.488 65.5224 147.488C52.3696 178.137 86.8068 176.008 96.7926 182.233L132.034 144.51C152.826 97.4551 114.538 102.978 101.26 95.8675Z" fill="black" fill-opacity="0.509615"/>
<path d="M115.158 180.247C80.7557 216.061 85.8942 234.917 101.741 233.568C120.813 231.944 133.588 209.819 153.377 193.153C150.748 188.682 183.787 177.698 186.136 168.335C178.702 151.832 179.861 130.271 148.413 152.948C129.866 154.586 120.517 165.422 115.158 180.247V180.247Z" fill="black" fill-opacity="0.572115"/>
<path d="M52.6172 203.08C53.1652 230.118 77.4242 241.802 78.4275 229.883C93.8591 225.709 89.8548 219.915 90.34 214.496C92.4014 203.801 92.5302 194.395 78.9239 194.145C67.5555 186.725 60.1157 195.02 52.6172 203.08V203.08Z" fill="black" fill-opacity="0.509615"/>
<path d="M84.3837 19.9255C66.263 28.9284 62.4684 43.5177 61.5515 59.1374C92.2783 64.8176 89.6112 59.6663 95.3035 48.2176L118.632 32.3344C108.87 23.4717 93.1526 13.1118 84.3837 19.9255V19.9255Z" fill="black" fill-opacity="0.509615"/>
<path d="M34.2521 59.1374C14.0401 70.5029 11.9444 85.3296 16.8798 103.313C25.0942 141 29.9891 148.849 57.0843 130.116C45.8693 119.835 56.0563 108.137 76.9384 70.5535C68.3515 63.8749 54.4517 49.0422 34.2521 59.1374V59.1374Z" fill="black" fill-opacity="0.504808"/>
<path d="M197.552 58.1447C197.552 58.8617 197.36 59.5717 196.985 60.2341C196.611 60.8965 196.063 61.4984 195.372 62.0054C194.68 62.5124 193.859 62.9146 192.956 63.189C192.053 63.4633 191.085 63.6046 190.107 63.6046C189.129 63.6046 188.161 63.4633 187.258 63.189C186.354 62.9146 185.534 62.5124 184.842 62.0054C184.151 61.4984 183.603 60.8965 183.228 60.2341C182.854 59.5717 182.662 58.8617 182.662 58.1447C182.662 57.4277 182.854 56.7177 183.228 56.0553C183.603 55.3929 184.151 54.791 184.842 54.284C185.534 53.777 186.354 53.3748 187.258 53.1004C188.161 52.826 189.129 52.6848 190.107 52.6848C191.085 52.6848 192.053 52.826 192.956 53.1004C193.859 53.3748 194.68 53.777 195.372 54.284C196.063 54.791 196.611 55.3929 196.985 56.0553C197.36 56.7177 197.552 57.4277 197.552 58.1447V58.1447Z" fill="black" fill-opacity="0.524038"/>
<path d="M203.336 49.5337L201.35 32.6577L188.941 33.1541L158.167 16.7744L133.846 30.6723L152.708 32.6577L179.511 40.103C158.417 40.6218 124.225 53.2876 132.357 58.4681C143.682 59.3531 159.784 47.723 176.036 47.052C158.567 58.6399 111.13 83.5466 125.904 80.8039C124.396 88.4201 157.278 68.0943 174.547 60.4535L134.839 101.651C134.494 111.321 159.347 87.3932 177.525 72.3659L154.197 126.468C152.316 136.897 161.708 121.816 184.97 75.3441L182.489 112.571C184.792 110.653 185.192 131.107 192.416 71.3732C203.02 80.8262 211.616 91.4244 220.708 104.133C225.83 79.3854 209.948 67.2405 203.336 49.5337V49.5337Z" fill="white" fill-opacity="0.245192"/>
<path fill-rule="evenodd" clip-rule="evenodd" d="M256.614 128.323C256.616 145.174 253.299 161.86 246.852 177.429C240.405 192.997 230.954 207.144 219.04 219.06C207.125 230.976 192.98 240.428 177.412 246.877C161.844 253.326 145.158 256.645 128.307 256.645C111.456 256.645 94.7705 253.326 79.2026 246.877C63.6346 240.428 49.4895 230.976 37.5748 219.06C25.6602 207.144 16.2095 192.997 9.76236 177.429C3.31523 161.86 -0.002034 145.174 9.3566e-07 128.323C-0.002034 111.472 3.31523 94.7856 9.76236 79.2169C16.2095 63.6482 25.6602 49.5019 37.5748 37.5858C49.4895 25.6697 63.6346 16.2173 79.2026 9.76829C94.7705 3.31928 111.456 0 128.307 0C145.158 0 161.844 3.31928 177.412 9.76829C192.98 16.2173 207.125 25.6697 219.04 37.5858C230.954 49.5019 240.405 63.6482 246.852 79.2169C253.299 94.7856 256.616 111.472 256.614 128.323V128.323Z" fill="url(#paint1_radial)"/>
<defs>
<radialGradient id="paint0_radial" cx="0" cy="0" r="1" gradientUnits="userSpaceOnUse" gradientTransform="translate(196.063 53.9257) scale(49.1389 42.4382)">
<stop stop-color="white"/>
<stop offset="1" stop-color="white" stop-opacity="0"/>
</radialGradient>
<radialGradient id="paint1_radial" cx="0" cy="0" r="1" gradientUnits="userSpaceOnUse" gradientTransform="translate(166.03 31.5339) rotate(1.21629) scale(116.917 128.307)">
<stop stop-color="white" stop-opacity="0.578571"/>
<stop offset="0.25" stop-color="white" stop-opacity="0"/>
<stop offset="0.941006" stop-color="#0B0000" stop-opacity="0.0214286"/>
<stop offset="1" stop-opacity="0.3"/>
</radialGradient>
</defs>
</svg>
