<svg width="545" height="316" viewBox="0 0 545 316" fill="none" xmlns="http://www.w3.org/2000/svg">
<g clip-path="url(#clip0)">
<path fill-rule="evenodd" clip-rule="evenodd" d="M360.823 153.705C360.823 193.541 327.834 225.871 287.186 225.871C246.539 225.871 213.55 193.541 213.55 153.705C213.55 113.869 246.539 81.5385 287.186 81.5385C327.834 81.5385 360.823 113.869 360.823 153.705V153.705Z" fill="#FFBB00" fill-opacity="0.98077"/>
<path fill-rule="evenodd" clip-rule="evenodd" d="M278.774 42.1477C272.995 54.3759 287.012 72.8635 297.974 58.9846C302.201 46.9051 299.2 33.6602 300.628 21.099C303.431 10.1223 299.062 1.3089 286.88 0C279.83 1.38187 280.772 27.8366 278.774 42.147V42.1477Z" fill="#FFBB00" fill-opacity="0.98077"/>
<path fill-rule="evenodd" clip-rule="evenodd" d="M200.193 19.0019C196.037 19.133 192.331 21.6197 190.704 25.3711C189.075 29.126 189.819 33.4618 192.607 36.487C192.607 36.487 201.288 46.0974 228.294 76.1721C230.753 79.1795 234.704 80.6213 238.573 79.9199C242.442 79.2185 245.602 76.4909 246.804 72.821C248.005 69.1476 247.052 65.127 244.32 62.3498C217.324 32.2858 208.743 22.6683 208.743 22.6683C206.617 20.2265 203.467 18.8758 200.193 19.0019V19.0019Z" fill="#FFBB00" fill-opacity="0.98077"/>
<path fill-rule="evenodd" clip-rule="evenodd" d="M147.949 72.9273C146.843 76.8026 145.304 83.2001 151.698 85.6621C166.398 95.4638 183.441 99.7571 201.462 107.058C208.392 109.775 216.375 103.491 215.609 96.3281C215.283 89.5268 207.977 86.7035 202.386 84.7977C188.348 79.0733 173.97 74.1884 159.645 69.2007C155.407 68.7756 151.407 70.7487 147.949 72.9273V72.9273Z" fill="#FFBB00" fill-opacity="0.98077"/>
<path fill-rule="evenodd" clip-rule="evenodd" d="M133.313 150.909C133.771 155.787 131.181 161.415 135.831 164.274C145.555 167.452 168.669 167.338 186.151 167.512C194.623 166.857 198.751 155.085 192.221 149.612C187.197 144.933 179.891 147.037 173.697 146.382C166.43 146.222 131.746 145.053 133.312 150.909H133.313Z" fill="#FFBB00" fill-opacity="0.98077"/>
<path fill-rule="evenodd" clip-rule="evenodd" d="M199.339 186.223C197.66 186.262 196.012 186.694 194.531 187.477C174.321 197.682 163.964 202.79 158.741 205.277C156.304 206.435 155.149 206.913 154.575 207.161C154.532 207.179 154.288 207.254 154.252 207.268C149.232 208.887 146.174 213.857 147.056 218.961C147.938 224.069 152.495 227.778 157.778 227.686C157.778 227.686 159.181 227.654 159.595 227.58C160.006 227.509 160.329 227.431 160.556 227.371C161.013 227.25 161.278 227.14 161.519 227.055C161.994 226.889 162.302 226.747 162.798 226.535C163.794 226.11 165.279 225.436 168.035 224.126C173.548 221.501 184.072 216.357 204.36 206.116C208.909 203.963 211.297 198.979 210.086 194.172C208.874 189.365 204.388 186.049 199.339 186.223V186.223Z" fill="#FFBB00" fill-opacity="0.98077"/>
<path fill-rule="evenodd" clip-rule="evenodd" d="M229.896 225.904C227.153 226 224.552 227.123 222.632 229.046C204.264 247.048 194.995 255.791 190.577 259.829C188.858 261.406 188.447 261.77 188.015 262.135C187.997 262.15 187.923 262.224 187.909 262.238C184.631 264.144 182.637 267.615 182.672 271.349L183.101 274.491L185.556 278.469L189.723 281.19C189.727 281.193 193.355 281.82 193.355 281.82C193.358 281.82 195.027 281.728 195.601 281.611C196.172 281.491 196.526 281.317 196.884 281.19C197.599 280.942 198.035 280.743 198.379 280.563C199.754 279.844 200.002 279.603 200.515 279.202C201.543 278.395 202.822 277.307 205.217 275.118C210.004 270.74 219.245 261.997 237.694 243.913C240.886 240.906 241.854 236.276 240.121 232.28C238.392 228.281 234.324 225.748 229.896 225.904V225.904Z" fill="#FFBB00" fill-opacity="0.98077"/>
<path fill-rule="evenodd" clip-rule="evenodd" d="M291.118 239.099C288.284 239.209 285.609 240.417 283.685 242.461C281.761 244.501 280.744 247.211 280.861 249.989C281.304 267.761 277.232 289.234 282.739 296.542C289.084 299.305 292.72 298.99 292.72 298.99L301.287 296.018C303.402 289.11 303.456 278.055 302.23 249.464C302.201 246.63 301.004 243.931 298.91 241.976C296.816 240.024 294.006 238.986 291.118 239.099V239.099Z" fill="#FFBB00" fill-opacity="0.98077"/>
<path fill-rule="evenodd" clip-rule="evenodd" d="M345.605 231.873C341.647 231.816 337.984 233.906 336.081 237.31C334.175 240.711 334.348 244.863 336.524 248.104C347.699 265.139 353.932 273.567 357.893 278.154C359.873 280.449 361.216 281.781 363.02 283.074C363.923 283.723 364.905 284.406 366.761 284.962C367.686 285.239 368.877 285.518 370.287 285.483C370.988 285.465 371.754 285.352 372.53 285.171C373.306 284.987 374.773 284.332 374.773 284.332C378.383 282.621 380.711 279.071 380.803 275.143C380.892 271.211 378.73 267.562 375.201 265.695C375.12 265.61 375.201 265.656 374.238 264.544C371.453 261.314 365.39 253.439 354.474 236.793C352.557 233.789 349.219 231.937 345.605 231.873V231.873Z" fill="#FFBB00" fill-opacity="0.98077"/>
<path fill-rule="evenodd" clip-rule="evenodd" d="M378.514 192.294C373.805 192.822 370.014 196.322 369.199 200.899C368.384 205.472 370.74 210.024 374.985 212.085C387.354 218.338 402.664 230.555 412.915 228.586C421.397 226.981 422.124 221.228 421.443 215.475C420.033 209.949 415.108 207.165 384.817 193.445C382.886 192.439 380.686 192.036 378.514 192.294V192.294Z" fill="#FFBB00" fill-opacity="0.98077"/>
<path fill-rule="evenodd" clip-rule="evenodd" d="M436.208 139.208C435.039 139.233 433.883 139.446 432.789 139.835C432.112 139.899 431.442 139.938 429.047 140.044C422.62 140.331 409.28 140.569 382.359 140.569C378.507 140.516 374.921 142.499 372.98 145.762C371.038 149.021 371.038 153.055 372.98 156.318C374.921 159.58 378.507 161.564 382.359 161.511C409.439 161.511 422.939 161.196 430.011 160.881C433.547 160.725 435.481 160.661 436.955 160.463C437.692 160.363 438.185 160.321 439.411 159.938C440.024 159.747 440.825 159.563 442.299 158.578C442.667 158.33 443.121 157.944 443.578 157.529C444.038 157.115 445.073 155.96 445.076 155.96L446.355 153.342C446.359 153.342 446.997 149.889 446.997 149.889C447.057 147.055 445.941 144.324 443.907 142.311C441.873 140.299 439.095 139.18 436.208 139.208Z" fill="#FFBB00" fill-opacity="0.98077"/>
<path fill-rule="evenodd" clip-rule="evenodd" d="M432.704 84.0042C421.426 84.0042 421.422 83.3276 380.97 93.9724C377.125 94.7411 374.021 97.5113 372.884 101.192C371.743 104.869 372.749 108.865 375.51 111.596C378.27 114.33 382.334 115.361 386.1 114.288C404.595 109.867 434.638 104.546 435.715 98.2056C441.055 92.7787 436.527 88.7368 432.704 84.0042V84.0042Z" fill="#FFBB00" fill-opacity="0.98077"/>
<path fill-rule="evenodd" clip-rule="evenodd" d="M379.623 22.562C373.277 26.0158 365.546 32.973 345.07 62.4561C341.885 67.341 343.345 73.8341 348.33 76.9585C353.315 80.0793 359.941 78.6517 363.126 73.7633C373.575 57.7376 389.519 39.1828 390.862 32.5763C389.934 27.1671 384.779 23.1359 379.623 22.562V22.562Z" fill="#FFBB00" fill-opacity="0.98077"/>
<path fill-rule="evenodd" clip-rule="evenodd" d="M316.647 132.903C316.647 156.307 296.784 175.305 272.307 175.305C247.831 175.305 227.968 156.307 227.968 132.903C227.968 109.495 247.831 90.5009 272.307 90.5009C296.784 90.5009 316.647 109.495 316.647 132.903Z" fill="url(#paint0_radial)"/>
</g>
<path d="M350.515 315.054H1.30499C0.867742 315.06 0.430906 315.025 0 314.951L165.16 28.8697C166.168 27.0881 167.631 25.6059 169.399 24.5746C171.168 23.5434 173.178 23 175.225 23C177.272 23 179.282 23.5434 181.051 24.5746C182.819 25.6059 184.282 27.0881 185.29 28.8697L296.133 220.852L301.443 230.039L350.515 315.054Z" fill="url(#paint1_linear)"/>
<path d="M544.952 315.054H242.914L301.443 230.039L305.655 223.914L381.924 113.123C386.924 105.862 398.953 105.409 404.831 111.753C405.226 112.186 405.593 112.643 405.93 113.123L544.952 315.054Z" fill="url(#paint2_linear)"/>
<defs>
<radialGradient id="paint0_radial" cx="0" cy="0" r="1" gradientUnits="userSpaceOnUse" gradientTransform="translate(272.314 132.903) scale(44.3407 42.402)">
<stop stop-color="white"/>
<stop offset="1" stop-color="white" stop-opacity="0"/>
</radialGradient>
<linearGradient id="paint1_linear" x1="175.257" y1="23" x2="175.257" y2="315.055" gradientUnits="userSpaceOnUse">
<stop stop-color="#1E5631"/>
<stop offset="1" stop-color="#AB887D"/>
</linearGradient>
<linearGradient id="paint2_linear" x1="393.933" y1="107.313" x2="393.933" y2="315.054" gradientUnits="userSpaceOnUse">
<stop stop-color="#1E5631"/>
<stop offset="1" stop-color="#AB887D"/>
</linearGradient>
<clipPath id="clip0">
<rect width="314" height="299" fill="white" transform="translate(133)"/>
</clipPath>
</defs>
</svg>