<svg width="1153" height="772" viewBox="0 0 1153 772" fill="none" xmlns="http://www.w3.org/2000/svg">
<g clip-path="url(#clip0)">
<path opacity="0.1" d="M669.39 127.13C595.53 124.55 525.19 100.73 458.06 74.64C390.93 48.55 324.35 19.64 252.26 5.82004C205.84 -3.06996 152.81 -4.31995 115.45 20.55C79.5 44.47 67.88 85.77 61.64 124.08C56.94 152.91 54.18 183.26 67.05 210.24C75.99 228.98 91.86 244.73 102.84 262.68C141.06 325.12 114.06 402.13 72.65 463.11C53.23 491.71 30.71 519 15.73 549.45C0.749995 579.9 -6.18 614.79 6.93 645.85C19.93 676.63 50.88 699.76 84.42 716.02C152.54 749.02 232.81 758.51 311.08 763.87C484.35 775.72 658.54 770.59 832.27 765.45C896.56 763.55 961.14 761.62 1024.38 751.68C1059.51 746.16 1095.77 737.4 1121.27 716.24C1153.64 689.39 1161.66 643.92 1139.97 610.24C1103.59 553.76 1002.97 539.74 977.56 479.12C963.56 445.76 977.94 408.59 998.28 377.65C1041.92 311.27 1115.06 253.04 1118.92 177.16C1121.56 125.05 1086.4 72.87 1032.03 48.16C975.03 22.32 896.03 25.5701 853.98 68.3501C810.69 112.45 734.61 129.4 669.39 127.13Z" fill="#4C9A2A"/>
<g opacity="0.5">
<path opacity="0.5" d="M500.76 402.58L467.3 403.27L461.83 410.78V436.73L468.66 441.51H500.76L507.59 434V409.41L500.76 402.58Z" fill="#4C9A2A"/>
<path opacity="0.2" d="M500.06 406.68C500.06 406.68 469.33 411.46 466.6 406.68L467.29 403.27L500.06 402.55V406.68Z" fill="white"/>
<path opacity="0.5" d="M503.49 477.7L508.95 483.17V509.17L503.49 514.55C503.49 514.55 483.69 521.38 470.71 515.91L464.56 509.77V483.77L470.03 477.62L503.49 477.7Z" fill="#4C9A2A"/>
<path opacity="0.2" d="M502.12 483.85C502.12 483.85 478.22 489.31 470.03 483.85V477.7H503.49L502.12 483.85Z" fill="white"/>
<path opacity="0.5" d="M490.51 441.33V478.27C490.432 479.733 489.779 481.105 488.692 482.087C487.605 483.069 486.173 483.581 484.71 483.51V483.51C483.247 483.581 481.815 483.069 480.728 482.087C479.641 481.105 478.988 479.733 478.91 478.27V441.33C478.91 438.19 481.91 435.76 485.39 436.12C486.736 436.203 488.004 436.781 488.95 437.743C489.895 438.705 490.451 439.983 490.51 441.33V441.33Z" fill="#4C9A2A"/>
<path opacity="0.5" d="M554.35 403.64L520.89 404.32L515.42 411.83V437.78L522.25 442.56H554.35L561.18 435.05V410.46L554.35 403.64Z" fill="#4C9A2A"/>
<path opacity="0.2" d="M553.66 407.73C553.66 407.73 522.93 412.51 520.2 407.73L520.88 404.32L553.66 403.64V407.73Z" fill="white"/>
<path opacity="0.5" d="M557.06 478.75L562.52 484.22V510.22L557.06 515.63C557.06 515.63 537.25 522.46 524.28 516.99L518.13 510.85V484.9L523.6 478.75H557.06Z" fill="#4C9A2A"/>
<path opacity="0.2" d="M555.71 484.9C555.71 484.9 531.81 490.36 523.62 484.9V478.75H557.06L555.71 484.9Z" fill="white"/>
<path opacity="0.5" d="M544.06 442.38V479.32C543.98 480.782 543.325 482.153 542.239 483.134C541.153 484.116 539.722 484.628 538.26 484.56V484.56C536.796 484.631 535.363 484.12 534.275 483.138C533.186 482.156 532.53 480.784 532.45 479.32V442.38C532.45 439.24 535.45 436.81 538.94 437.17C540.286 437.253 541.554 437.831 542.5 438.793C543.445 439.755 544.001 441.033 544.06 442.38V442.38Z" fill="#4C9A2A"/>
<path opacity="0.5" d="M622.57 423.39L595.02 423.96L590.52 430.14V451.5L596.14 455.44H622.57L628.19 449.25V429.01L622.57 423.39Z" fill="#4C9A2A"/>
<path opacity="0.2" d="M622 426.77C622 426.77 596.71 430.7 594.46 426.77L595.02 423.96L622.02 423.39L622 426.77Z" fill="white"/>
<path opacity="0.5" d="M624.81 485.23L629.31 489.73V511.09L624.81 515.59C624.81 515.59 608.51 521.21 597.81 516.71L592.75 511.65V490.29L597.25 485.23H624.81Z" fill="#4C9A2A"/>
<path opacity="0.2" d="M623.69 490.29C623.69 490.29 604.01 494.79 597.27 490.29V485.23H624.81L623.69 490.29Z" fill="white"/>
<path opacity="0.5" d="M614.13 455.29V485.7C614.065 486.905 613.526 488.034 612.63 488.842C611.734 489.65 610.555 490.07 609.35 490.01V490.01C608.146 490.07 606.968 489.65 606.074 488.842C605.179 488.034 604.642 486.904 604.58 485.7V455.29C604.618 454.647 604.791 454.019 605.086 453.446C605.381 452.873 605.793 452.369 606.295 451.965C606.797 451.561 607.378 451.266 608 451.1C608.623 450.934 609.273 450.9 609.91 451C611.019 451.068 612.063 451.544 612.843 452.336C613.622 453.128 614.08 454.18 614.13 455.29Z" fill="#4C9A2A"/>
<path opacity="0.5" d="M666.68 424.26L639.13 424.82L634.64 431V452.37L640.26 456.3H666.68L672.3 450.12V429.88L666.68 424.26Z" fill="#4C9A2A"/>
<path opacity="0.2" d="M666.12 427.63C666.12 427.63 640.82 431.57 638.57 427.63L639.13 424.82L666.13 424.26L666.12 427.63Z" fill="white"/>
<path opacity="0.5" d="M668.93 486.1L673.42 490.59V511.95L668.93 516.45C668.93 516.45 652.62 522.07 641.93 517.58L636.88 512.55V491.16L641.38 486.1H668.93Z" fill="#4C9A2A"/>
<path opacity="0.2" d="M667.8 491.16C667.8 491.16 648.13 495.65 641.38 491.16V486.1H668.93L667.8 491.16Z" fill="white"/>
<path opacity="0.5" d="M658.25 456.15V486.55C658.185 487.755 657.646 488.884 656.75 489.692C655.854 490.5 654.675 490.92 653.47 490.86C652.265 490.92 651.086 490.5 650.19 489.692C649.294 488.884 648.755 487.755 648.69 486.55V456.15C648.69 453.57 651.19 451.57 654.03 451.87C655.138 451.936 656.182 452.409 656.962 453.2C657.741 453.99 658.2 455.041 658.25 456.15V456.15Z" fill="#4C9A2A"/>
</g>
<path d="M1049.06 534.62C1046.91 530.73 1042.89 528.17 1038.66 526.99C1034.38 525.961 1029.95 525.684 1025.58 526.17C1018.51 526.673 1011.51 527.828 1004.65 529.62C1000.4 530.74 995.99 532.24 993.12 535.62C993.04 535.72 992.95 535.84 992.86 535.94C988.47 537.09 984.11 538.86 979.86 540.3C975.595 541.715 971.255 542.894 966.86 543.83C972.61 540.56 978.21 537.1 982.95 532.48C985.19 530.306 987.201 527.906 988.95 525.32C992.198 526.25 995.607 526.479 998.95 525.99C1005.72 524.83 1011.19 519.99 1016.28 515.27L1032.65 500.21C1035.26 497.81 1037.91 495.35 1039.65 492.21C1042 487.84 1042.21 482.64 1042.27 477.65C1042.35 470.79 1042.27 463.93 1042.07 457.08L1047.25 461.08C1046.46 452.631 1048.03 444.129 1051.79 436.52C1053.59 432.89 1055.95 429.28 1056 425.21C1056.08 418.93 1050.68 413.99 1045.15 411.21C1039.62 408.43 1033.4 406.65 1028.87 402.38C1022.13 396.03 1020.87 385.9 1017.54 377.2C1015.56 372.437 1013.22 367.833 1010.54 363.43L1004.06 352.13C1000.8 346.175 997.167 340.434 993.18 334.94C986.44 326.05 977.95 318.72 969.52 311.47L925.68 273.7C915.02 264.51 904.32 255.31 892.79 247.27C869.4 230.96 843.01 219.76 816.79 208.67C810.19 205.87 803.32 203.03 796.18 203.37C790.802 203.719 785.705 205.9 781.74 209.55C777.982 208.409 774.307 207.012 770.74 205.37L770.46 205.24C770.54 204.65 770.63 204.07 770.69 203.48C770.78 202.7 770.83 201.92 770.89 201.13C772.865 200.826 774.777 200.201 776.55 199.28C777.45 198.855 778.245 198.237 778.88 197.47C779.685 196.135 780.098 194.599 780.07 193.04C780.87 182.59 781.67 172.04 780.81 161.64C779.95 151.24 777.34 140.71 771.81 131.87C770.1 129.13 767.96 126.46 764.99 125.27C760.99 123.67 756.36 125.16 752.09 124.44C744.7 123.19 740.09 115.96 734.74 110.63C721.21 97.14 698.07 95.11 682.45 106.03C676.53 110.18 671.79 115.81 666.51 120.77C661.23 125.73 655.04 130.22 647.91 131.19C646.596 131.246 645.309 131.587 644.14 132.19C642.68 133.11 642.02 134.88 641.46 136.52C639.46 142.18 637.54 147.99 636.93 153.91C636.86 153.55 636.8 153.19 636.74 152.83C636.468 155.023 636.411 157.236 636.57 159.44C636.77 162.248 637.582 164.979 638.95 167.44C640.088 169.78 642.03 171.632 644.42 172.66C646.111 173.258 647.896 173.546 649.69 173.51H650.48C650.19 174.28 649.91 175.05 649.65 175.83C647.423 182.439 646.292 189.367 646.3 196.34C646.3 231.34 674.23 259.7 708.71 259.7C712.86 259.68 716.997 259.244 721.06 258.4C722.41 258.83 723.76 259.27 725.06 259.74C727.722 260.62 730.333 261.648 732.88 262.82C733.96 263.33 738.33 265.88 743.61 269.17L743.25 269.92C738.099 274.731 734.32 280.826 732.301 287.579C730.282 294.332 730.095 301.501 731.76 308.35C735.58 323.22 748.11 335.97 746.85 351.28C746.67 353.46 746.21 355.67 746.58 357.83C747.09 360.83 749.12 363.27 751.15 365.49C752.91 367.43 754.74 369.31 756.6 371.15C756.45 380.92 755.6 390.68 754.68 400.42C754.6 401.27 754.58 402.13 754.57 403C754.624 407.211 756.153 411.27 758.89 414.47C761.79 418 762.95 423.29 762.4 428.01C761.61 434.77 758.28 440.9 756.05 447.31C745.99 476.14 758.35 508.65 751.39 538.42C749.68 545.75 746.8 552.88 746.39 560.42C746.16 565.13 746.9 570.07 745.09 574.42C743.52 578.2 740.25 580.93 737.16 583.58C732.793 587.32 728.54 591.187 724.4 595.18C718.143 591.759 711.684 588.72 705.06 586.08C703.98 585.645 702.878 585.265 701.76 584.94C693.94 577.62 684.08 572.94 674.82 567.56C667.14 563.11 659.82 558.11 652.46 553.11C645.46 548.31 638.31 543.47 632.39 537.3C629.39 534.18 626.72 530.74 623.49 527.89C620.651 525.527 617.643 523.374 614.49 521.45C600.301 512.259 586.775 502.084 574.01 491C564.28 482.56 556.32 471.69 545.92 464.12C539.55 459.48 532.14 455.25 524.34 456.12C521.857 456.412 519.447 457.154 517.23 458.31C515.163 457.434 512.954 456.939 510.71 456.85C504.37 456.65 498.55 460.09 493.11 463.4C461.11 482.847 428.61 501.427 395.61 519.14C388.95 522.72 382.25 526.27 375.89 530.37C363.481 538.397 352.485 548.422 343.35 560.04C341.67 562.17 339.55 564.59 336.88 564.27C336.149 564.158 335.446 563.907 334.81 563.53C330.7 561.3 328.18 556.99 325.81 552.9C324.09 549.9 322.23 546.77 319.71 544.49C319.171 543.071 318.451 541.726 317.57 540.49C321.12 531.73 324.18 522.76 327.02 513.73C328.5 508.99 329.93 504.22 331.82 499.62C336.48 488.24 343.91 477.93 346.54 465.89C347.17 462.98 347.54 459.99 348.03 457.05C376.78 451.39 398.48 425.71 398.48 394.87C398.48 359.87 370.54 331.51 336.07 331.51C301.6 331.51 273.67 359.87 273.67 394.87C273.639 405.523 276.288 416.013 281.373 425.374C286.458 434.735 293.816 442.667 302.77 448.44C302.77 448.56 302.77 448.68 302.77 448.79C302.71 450.801 302.513 452.806 302.18 454.79C301.03 461.49 298.18 467.79 295.31 473.9C293.41 477.99 291.51 482.1 289.54 486.18C288.595 485.99 287.677 485.681 286.81 485.26C285.12 484.32 284.38 482.26 283.74 480.44C280.908 472.1 277.441 463.99 273.37 456.18C271.782 452.86 269.765 449.764 267.37 446.97C263.15 442.35 257.37 439.61 251.78 436.84C250.78 436.36 249.85 435.84 248.89 435.38C248.06 434.763 247.191 434.198 246.29 433.69C241.64 431.06 236.48 429.17 232.6 425.49C229.69 422.73 227.69 419.14 224.97 416.21C220.44 411.34 214.19 408.56 208.12 405.91C204.96 404.53 201.64 403.12 198.19 403.31C197.704 403.334 197.22 403.387 196.74 403.47C195.91 403.612 195.089 403.799 194.28 404.03C193.493 403.612 192.749 403.116 192.06 402.55C188.35 399.69 186.91 394.78 185.7 390.21C183.7 382.57 181.59 374.66 182.83 366.84C183.046 365.491 183.34 364.155 183.71 362.84C184.02 362.33 184.32 361.84 184.59 361.29C192.552 358.897 199.826 354.636 205.807 348.862C211.788 343.088 216.303 335.968 218.975 328.096C221.647 320.224 222.399 311.827 221.168 303.605C219.938 295.384 216.76 287.575 211.9 280.83C211.39 280.13 210.9 279.45 210.33 278.77L210.93 278.44C216.46 275.06 217.72 266.98 215.16 260.96C212.6 254.94 207.16 250.69 201.65 247.35C200.85 246.86 200.04 246.4 199.22 245.94L198.52 245.56C197.9 245.22 197.29 244.89 196.67 244.56L195.94 244.19C195.21 243.82 194.48 243.47 193.75 243.13L193.42 242.97C192.51 242.56 191.6 242.16 190.68 241.78C189.79 241.41 188.9 241.07 188 240.78L187.63 240.64C186.78 240.33 185.92 240.04 185.06 239.76L184.87 239.7C178.58 237.655 172.023 236.55 165.41 236.42C158.937 236.459 152.485 237.173 146.16 238.55C140.002 239.665 133.971 241.397 128.16 243.72C118.555 247.79 110.088 254.14 103.49 262.22C102.099 262.325 100.721 262.553 99.37 262.9C93.96 264.27 89.09 267.29 84.64 270.71C80.9128 273.45 77.6105 276.725 74.84 280.43C71.5771 285.177 69.327 290.545 68.23 296.2C64.44 313.93 69.1 332.2 72.53 350.02C75.96 367.84 77.94 387.26 69.53 403.25C66.36 409.25 61.86 414.46 58.53 420.35C55.2 426.24 52.89 433.35 54.81 439.88C57.14 447.81 64.81 452.8 68.81 460C73.49 468.39 72.2 479.66 66.08 487C65.81 487.32 65.54 487.64 65.25 488C64.96 488.36 64.55 488.74 64.17 489.08C70.48 491.3 77.51 488.91 83.17 485.35C87.6965 482.676 91.5353 478.981 94.38 474.56C101.53 462.82 98.32 447.64 100.84 434.07C104.15 416.3 117.51 400.45 115.67 382.46C114.43 370.39 106.55 360.3 100.36 349.92C96.2454 342.953 92.7968 335.614 90.06 328C89.95 327.68 89.84 327.35 89.72 327C87.91 321.85 86.52 316.39 87.45 311C87.7672 309.254 88.2908 307.552 89.01 305.93C89.01 306.12 89.01 306.32 89.01 306.51C89.1316 311.723 90.2909 316.86 92.42 321.62C98.67 334.62 113.71 340.62 123.26 351.16C123.66 351.6 124.04 352.05 124.42 352.51C124.53 352.63 124.63 352.76 124.73 352.89L125.54 353.89L125.88 354.36C126.13 354.71 126.38 355.06 126.61 355.42L126.92 355.87C127.24 356.38 127.56 356.87 127.86 357.42C130.29 354.73 132.8 351.9 133.78 348.42C133.87 348.12 133.93 347.81 133.99 347.5C134.07 347.58 134.14 347.67 134.22 347.76C134.41 348.83 134.56 349.9 134.7 350.98C134.7 352.523 134.864 354.062 135.19 355.57C135.95 365.17 135.34 375.03 134.7 384.66C134.36 389.81 135.7 397.46 132.42 401.3L132.32 401.41C132.128 401.634 131.917 401.841 131.69 402.03V402.03C131.13 402.61 130.56 403.18 130.03 403.78C119.03 416.18 114.03 433.78 114.29 450.64C114.55 469.83 120.68 488.42 127.63 506.27C130.057 512.787 132.917 519.134 136.19 525.27C137.88 528.583 140.114 531.588 142.8 534.16C145.61 536.65 149.03 538.29 152.4 539.89C153.24 540.29 154.09 540.68 154.93 541.09L157.08 542.09L173.45 549.87C176.45 554.28 179.35 558.81 182.28 563.35C182.7 563.99 183.11 564.65 183.54 565.29C186.74 570.29 189.96 575.29 193.24 580.15L220.83 621.01C222.83 624.01 224.92 627.01 227.73 629.23C228.529 629.858 229.394 630.398 230.31 630.84C230.775 631.064 231.252 631.261 231.74 631.43C231.134 632.339 230.875 633.436 231.01 634.52C231.379 635.582 232.08 636.498 233.01 637.13C239.25 642.29 246.18 647.73 248.14 655.66C249.53 661.31 248.14 667.36 249.39 673.04C251.68 683.28 261.81 689.49 271.39 693.43C292.86 702.25 316.71 705.64 339.52 701.54C362.33 697.44 384 685.61 398.77 667.54C403.31 661.96 407.18 655.87 411.49 650.11C414.49 646.05 417.79 642.18 421.2 638.45C424.88 636.767 428.426 634.808 431.81 632.59C439.02 627.8 445.23 621.65 451.81 615.95C456.72 611.67 461.86 607.63 466.37 602.95C470.419 598.511 474.203 593.836 477.7 588.95C485.7 578.35 493.963 567.96 502.49 557.78C507.05 552.33 511.88 546.78 518.25 543.78L518.54 543.66C519.3 548.14 522.85 551.94 525.34 555.81C535.64 571.81 546.42 588.28 562.34 598.48C571.06 604.06 580.92 607.48 590.76 610.6C615.76 618.5 641.16 624.7 666.58 630.91C667.42 629.31 668.24 627.83 669.16 626.39C669.554 626.807 669.921 627.248 670.26 627.71C670.37 627.87 670.46 628.04 670.57 628.2C670.386 628.236 670.206 628.286 670.03 628.35C668.398 629.11 667.115 630.461 666.44 632.13C663.7 637.62 663.44 643.99 663.31 650.13C663.22 656.13 663.31 662.13 663.31 668.13C663.164 670.37 663.505 672.615 664.31 674.71C666.25 678.71 671.18 680.2 675.59 680.71C683.25 681.56 690.97 680.84 698.59 679.81C699.03 681.608 699.749 683.325 700.72 684.9C705 691.9 712.39 696.52 720.08 699.23C727.77 701.94 735.92 703.02 743.91 704.61C758.1 707.43 772.62 711.94 786.73 708.76C792.36 707.49 797.73 705.03 803.36 703.95C816.25 701.51 829.61 706.45 842.59 704.47C848.86 703.47 854.79 700.97 860.47 698.1C863.333 696.844 865.93 695.052 868.12 692.82C870.2 690.48 871.45 687.16 870.59 684.13C870.1 682.39 868.98 680.91 868.23 679.27C867.225 676.647 866.654 673.877 866.54 671.07C865.496 660.449 863.698 649.916 861.16 639.55C861.09 639.26 861.01 638.96 860.93 638.66C870.74 634.77 879.53 628.66 888.21 622.58L906.88 609.52C912.88 605.29 919.03 601.04 925.77 598.08C936.11 593.54 947.56 592.24 958.83 592.25C963.44 592.25 968.06 592.48 972.65 592.9C972.065 593.538 971.625 594.296 971.36 595.12C970.44 597.98 971.9 601.12 974.07 603.21C976.24 605.3 979.07 606.48 981.62 607.93C988.666 611.897 994.532 617.664 998.62 624.64C1001.18 629.03 1003.04 634.36 1001.42 639.19C999.42 645.25 992.29 649.43 992.7 655.81C992.94 659.57 995.97 662.68 999.42 664.07C1002.87 665.46 1006.7 665.44 1010.42 665.33C1016.51 665.14 1022.78 664.67 1028.23 661.9C1031.9 660.03 1035.01 657.21 1038.06 654.42C1040.84 651.87 1043.68 649.22 1045.26 645.78C1046.74 642.54 1046.97 638.87 1047.04 635.31C1047.34 618.55 1044.45 601.56 1047.78 585.14C1048.78 580.14 1050.38 575.25 1051.23 570.21C1052.57 562.21 1052.06 554.13 1051.55 546.09C1051.3 542.13 1051 538.05 1049.06 534.62Z" fill="url(#paint0_linear)"/>
<path opacity="0.06" d="M837.78 302.83C833.85 305.48 832.48 310.6 831.98 315.32C829.85 335.39 838.13 355.26 837.58 375.43C837.14 391.48 831.16 406.79 825.26 421.72C815.2 447.19 809.96 474.85 807.93 502.16C805.9 529.47 802.93 557.91 788.27 581.01C784.94 586.24 781.06 591.1 777.8 596.36C774.38 601.86 771.67 607.76 768.65 613.48C759.752 630.373 748.282 645.781 734.65 659.15C730.65 663.05 726.41 666.83 721.31 669.08C718.023 670.506 714.485 671.26 710.902 671.298C707.32 671.336 703.766 670.656 700.45 669.3C693.61 666.47 687.85 660.09 687.57 652.69C687.32 646.07 691.27 640.1 695.23 634.8C708.652 616.844 724.086 600.484 741.23 586.04C744.34 583.42 747.62 580.71 749.23 576.97C751.04 572.66 750.3 567.77 750.53 563.1C750.9 555.65 753.8 548.58 755.53 541.32C762.53 511.83 750.09 479.63 760.21 451.06C762.46 444.71 765.8 438.64 766.59 431.95C767.15 427.27 765.99 422.04 763.06 418.53C760.316 415.376 758.782 411.35 758.73 407.17C758.73 406.31 758.73 405.46 758.83 404.62C760.05 391.53 761.26 378.38 760.6 365.25C759.94 352.12 757.33 338.92 751.27 327.25C748.13 321.2 744.07 315.54 742.13 309.01C739.01 298.44 741.89 287.01 746.54 277.01C750.17 269.19 755.01 261.74 761.77 256.38C774.33 246.43 793.13 245.28 806.88 253.51C817.02 259.57 823.96 269.76 829.59 280.15C833.63 287.74 837.84 294.17 837.78 302.83Z" fill="black"/>
<path d="M804.45 223.13C802.53 228.31 800.62 233.49 798.72 238.67C797.46 242.07 796.21 245.5 794.91 248.9C788.91 264.57 782.2 279.99 771.7 292.96C773.27 291.02 758.5 281.26 747.61 274.6C742.3 271.33 737.9 268.81 736.82 268.31C734.253 267.15 731.626 266.129 728.95 265.25C724.8 263.85 720.6 262.64 716.45 261.13C706.85 257.66 713.56 252.45 717.67 246.85C731.12 228.51 733.67 203.45 748.94 186.6C754.54 197.24 763.399 205.808 774.22 211.05C774.43 211.16 774.65 211.26 774.87 211.35C783.94 215.59 793.96 217.42 803.34 220.97C803.85 221.16 804.44 221.43 804.61 221.97C804.674 222.364 804.618 222.768 804.45 223.13Z" fill="#A1616A"/>
<path d="M778.34 593.55C773.996 599.774 771.292 606.993 770.479 614.539C769.666 622.085 770.771 629.714 773.69 636.72C774.428 638.678 775.577 640.454 777.06 641.93C778.948 643.405 781.147 644.431 783.49 644.93C803.35 650.58 824.55 649.47 844.89 645.93C851.78 644.87 858.552 643.145 865.11 640.78C875.18 636.93 884.17 630.78 893.05 624.64L911.83 611.7C917.91 607.51 924.04 603.3 930.83 600.36C941.23 595.87 952.75 594.58 964.08 594.59C973.812 594.602 983.522 595.529 993.08 597.36C999.45 598.59 1007.08 599.86 1011.56 595.21C1014.12 592.58 1014.88 588.73 1015.38 585.1C1017.36 570.976 1017.32 556.643 1015.27 542.53C1015.22 541.343 1014.79 540.203 1014.04 539.28C1013.33 538.681 1012.48 538.29 1011.56 538.15C1002.71 536.15 993.83 540.3 985.23 543.15C967.36 549.09 948.17 549.8 929.99 554.69C910.91 559.82 892.99 569.53 873.27 571.5C863.87 572.44 854.43 571.62 845.01 571.83C836.27 572.02 828.12 575.04 819.56 575.4C803.06 576.13 788.71 579.01 778.34 593.55Z" fill="#A1616A"/>
<path opacity="0.06" d="M778.34 593.55C773.996 599.774 771.292 606.993 770.479 614.539C769.666 622.085 770.771 629.714 773.69 636.72C774.428 638.678 775.577 640.454 777.06 641.93C778.948 643.405 781.147 644.431 783.49 644.93C803.35 650.58 824.55 649.47 844.89 645.93C851.78 644.87 858.552 643.145 865.11 640.78C875.18 636.93 884.17 630.78 893.05 624.64L911.83 611.7C917.91 607.51 924.04 603.3 930.83 600.36C941.23 595.87 952.75 594.58 964.08 594.59C973.812 594.602 983.522 595.529 993.08 597.36C999.45 598.59 1007.08 599.86 1011.56 595.21C1014.12 592.58 1014.88 588.73 1015.38 585.1C1017.36 570.976 1017.32 556.643 1015.27 542.53C1015.22 541.343 1014.79 540.203 1014.04 539.28C1013.33 538.681 1012.48 538.29 1011.56 538.15C1002.71 536.15 993.83 540.3 985.23 543.15C967.36 549.09 948.17 549.8 929.99 554.69C910.91 559.82 892.99 569.53 873.27 571.5C863.87 572.44 854.43 571.62 845.01 571.83C836.27 572.02 828.12 575.04 819.56 575.4C803.06 576.13 788.71 579.01 778.34 593.55Z" fill="black"/>
<path d="M794.48 572.41C794.01 574.62 793.59 576.96 794.25 579.12C795.069 581.244 796.452 583.104 798.25 584.5C815.25 599.72 839.54 602.87 862.25 605.34C868.4 606.01 874.66 606.68 880.75 605.57C886.3 604.57 891.48 602.12 896.59 599.7C907.59 594.49 918.65 589.22 928.08 581.56C937.33 574.06 944.75 564.46 954.33 557.39C965.22 549.39 978.61 544.81 988.33 535.39C995.357 528.61 1000.03 519.758 1001.66 510.13C1002.76 503.56 1002.4 496.85 1001.66 490.23C1000.87 482.62 999.6 474.88 995.98 468.14C991.79 460.34 984.75 454.45 977.32 449.61C961.6 439.39 943.09 433.05 924.32 433.21C898.32 433.44 874.32 448.57 855.66 465.56C835.922 483.555 819.948 505.283 808.66 529.49C802.287 543.199 797.529 557.602 794.48 572.41V572.41Z" fill="#464353"/>
<path opacity="0.06" d="M794.48 572.41C794.01 574.62 793.59 576.96 794.25 579.12C795.069 581.244 796.452 583.104 798.25 584.5C815.25 599.72 839.54 602.87 862.25 605.34C868.4 606.01 874.66 606.68 880.75 605.57C886.3 604.57 891.48 602.12 896.59 599.7C907.59 594.49 918.65 589.22 928.08 581.56C937.33 574.06 944.75 564.46 954.33 557.39C965.22 549.39 978.61 544.81 988.33 535.39C995.357 528.61 1000.03 519.758 1001.66 510.13C1002.76 503.56 1002.4 496.85 1001.66 490.23C1000.87 482.62 999.6 474.88 995.98 468.14C991.79 460.34 984.75 454.45 977.32 449.61C961.6 439.39 943.09 433.05 924.32 433.21C898.32 433.44 874.32 448.57 855.66 465.56C835.922 483.555 819.948 505.283 808.66 529.49C802.287 543.199 797.529 557.602 794.48 572.41V572.41Z" fill="black"/>
<path d="M837.78 302.83C833.85 305.48 832.48 310.6 831.98 315.32C829.85 335.39 838.13 355.26 837.58 375.43C837.14 391.48 831.16 406.79 825.26 421.72C815.2 447.19 809.96 474.85 807.93 502.16C805.9 529.47 802.93 557.91 788.27 581.01C784.94 586.24 781.06 591.1 777.8 596.36C774.38 601.86 771.67 607.76 768.65 613.48C759.752 630.373 748.282 645.781 734.65 659.15C730.65 663.05 726.41 666.83 721.31 669.08C718.023 670.506 714.485 671.26 710.902 671.298C707.32 671.336 703.766 670.656 700.45 669.3C693.61 666.47 687.85 660.09 687.57 652.69C687.32 646.07 691.27 640.1 695.23 634.8C708.652 616.844 724.086 600.484 741.23 586.04C744.34 583.42 747.62 580.71 749.23 576.97C751.04 572.66 750.3 567.77 750.53 563.1C750.9 555.65 753.8 548.58 755.53 541.32C762.53 511.83 750.09 479.63 760.21 451.06C762.46 444.71 765.8 438.64 766.59 431.95C767.15 427.27 765.99 422.04 763.06 418.53C760.316 415.376 758.782 411.35 758.73 407.17C758.73 406.31 758.73 405.46 758.83 404.62C760.05 391.53 761.26 378.38 760.6 365.25C759.94 352.12 757.33 338.92 751.27 327.25C748.13 321.2 744.07 315.54 742.13 309.01C739.01 298.44 741.89 287.01 746.54 277.01C750.17 269.19 755.01 261.74 761.77 256.38C774.33 246.43 793.13 245.28 806.88 253.51C817.02 259.57 823.96 269.76 829.59 280.15C833.63 287.74 837.84 294.17 837.78 302.83Z" fill="#A1616A"/>
<path d="M782.53 370.01C803.434 370.01 820.38 343.42 820.38 310.62C820.38 277.82 803.434 251.23 782.53 251.23C761.626 251.23 744.68 277.82 744.68 310.62C744.68 343.42 761.626 370.01 782.53 370.01Z" fill="#A1616A"/>
<path d="M686 620.97C687.118 622.545 687.877 624.347 688.222 626.248C688.568 628.148 688.492 630.102 688 631.97C691.568 634.532 695.905 635.795 700.29 635.55C704.642 635.313 708.921 634.328 712.94 632.64C716.435 631.365 719.744 629.63 722.78 627.48C728 623.62 731.78 618.1 734.78 612.38C736.47 609.22 737.91 605.13 735.78 602.29C734.943 601.326 733.923 600.538 732.78 599.97C725.075 595.574 717.053 591.761 708.78 588.56C706.509 587.513 704.041 586.961 701.54 586.94C698.47 587.11 695.68 588.79 693.24 590.67C687.756 594.934 683.334 600.411 680.32 606.67C679.38 608.67 676.54 613.42 677.95 615.48C678.59 616.43 680.95 616.76 681.95 617.36C683.54 618.263 684.92 619.494 686 620.97V620.97Z" fill="#FBBEBE"/>
<path opacity="0.03" d="M686 620.97C687.118 622.545 687.877 624.347 688.222 626.248C688.568 628.148 688.492 630.102 688 631.97C691.568 634.532 695.905 635.795 700.29 635.55C704.642 635.313 708.921 634.328 712.94 632.64C716.435 631.365 719.744 629.63 722.78 627.48C728 623.62 731.78 618.1 734.78 612.38C736.47 609.22 737.91 605.13 735.78 602.29C734.943 601.326 733.923 600.538 732.78 599.97C725.075 595.574 717.053 591.761 708.78 588.56C706.509 587.513 704.041 586.961 701.54 586.94C698.47 587.11 695.68 588.79 693.24 590.67C687.756 594.934 683.334 600.411 680.32 606.67C679.38 608.67 676.54 613.42 677.95 615.48C678.59 616.43 680.95 616.76 681.95 617.36C683.54 618.263 684.92 619.494 686 620.97V620.97Z" fill="black"/>
<path d="M727.41 597.8C744.33 600.94 759.89 609.12 776.52 613.53C783.25 615.31 790.18 616.53 796.61 619.15C803.04 621.77 809.1 626.25 811.87 632.63C813.041 635.692 813.817 638.891 814.18 642.15C814.9 646.76 815.49 651.91 812.75 655.69C809.86 659.69 804.4 660.57 799.51 661.16C781.93 663.25 764.35 665.35 746.71 666.83C743.138 667.047 739.582 667.471 736.06 668.1C733.16 668.68 730.33 669.56 727.45 670.24C723.72 671.11 719.93 671.66 716.15 672.24C706.48 673.63 696.7 675.02 686.99 673.96C682.56 673.47 677.6 672.04 675.65 668.04C674.841 665.967 674.499 663.74 674.65 661.52C674.6 655.58 674.55 649.65 674.65 643.72C674.74 637.63 675.04 631.31 677.8 625.88C678.484 624.217 679.775 622.877 681.41 622.13C682.416 621.842 683.468 621.747 684.51 621.85C689.71 622.03 695.09 622.25 699.74 624.57C703.43 626.4 706.43 629.45 710.19 631.11C717.31 634.27 725.9 632 733.11 634.97C734.79 629.79 734.41 624.55 733.16 619.24C731.91 613.93 730.16 608.72 729.63 603.3C729.609 602.109 729.379 600.931 728.95 599.82C728.41 598.71 728.59 597.63 727.41 597.8Z" fill="#464353"/>
<path opacity="0.06" d="M727.41 597.8C744.33 600.94 759.89 609.12 776.52 613.53C783.25 615.31 790.18 616.53 796.61 619.15C803.04 621.77 809.1 626.25 811.87 632.63C813.041 635.692 813.817 638.891 814.18 642.15C814.9 646.76 815.49 651.91 812.75 655.69C809.86 659.69 804.4 660.57 799.51 661.16C781.93 663.25 764.35 665.35 746.71 666.83C743.138 667.047 739.582 667.471 736.06 668.1C733.16 668.68 730.33 669.56 727.45 670.24C723.72 671.11 719.93 671.66 716.15 672.24C706.48 673.63 696.7 675.02 686.99 673.96C682.56 673.47 677.6 672.04 675.65 668.04C674.841 665.967 674.499 663.74 674.65 661.52C674.6 655.58 674.55 649.65 674.65 643.72C674.74 637.63 675.04 631.31 677.8 625.88C678.484 624.217 679.775 622.877 681.41 622.13C682.416 621.842 683.468 621.747 684.51 621.85C689.71 622.03 695.09 622.25 699.74 624.57C703.43 626.4 706.43 629.45 710.19 631.11C717.31 634.27 725.9 632 733.11 634.97C734.79 629.79 734.41 624.55 733.16 619.24C731.91 613.93 730.16 608.72 729.63 603.3C729.609 602.109 729.379 600.931 728.95 599.82C728.41 598.71 728.59 597.63 727.41 597.8Z" fill="black"/>
<path d="M162.2 427.29C158.79 426.21 155.5 429.23 153.59 432.29C145.65 444.77 146.3 461.43 152.65 474.79C154.161 478.178 156.245 481.28 158.81 483.96C162.25 487.35 166.68 489.52 170.81 491.96C182.27 498.73 192.091 507.95 199.57 518.96C204.46 526.17 208.31 534.1 213.86 540.81C227.52 557.33 249.97 564.81 263.22 581.61C266.39 585.61 269.07 590.25 273.3 593.16C275.815 594.889 278.745 595.915 281.789 596.133C284.833 596.35 287.879 595.751 290.614 594.398C293.349 593.044 295.673 590.985 297.346 588.432C299.019 585.88 299.98 582.928 300.13 579.88C305.28 572.31 309.49 563.95 313.5 555.71C319.433 543.133 324.446 530.142 328.5 516.84C329.99 512.14 331.43 507.41 333.33 502.84C338.02 491.56 345.49 481.35 348.13 469.43C349.19 464.65 349.45 459.68 350.99 455.04C352.369 450.875 354.729 447.103 357.87 444.04C368.27 433.93 373.87 419.2 382.14 407.3C385.5 402.49 388.99 397.69 391.21 392.25C393.43 386.81 394.28 380.58 392.21 375.08C390.14 369.58 384.73 365.14 378.87 365.45C376.247 365.722 373.703 366.503 371.38 367.75C363.304 371.582 355.896 376.687 349.44 382.87C346.617 385.587 343.946 388.458 341.44 391.47C329.22 406.07 319.66 423.79 318.82 442.81C318.54 449.33 319.06 456.56 314.92 461.61C303.5 475.56 299.83 494.74 290.09 509.92C285.58 516.92 280.41 524.17 272.7 527.36C271.561 527.908 270.301 528.156 269.04 528.08C265.96 527.73 264.19 524.49 262.89 521.67C257.81 510.671 251.931 500.06 245.3 489.92C242.68 485.92 239.79 481.82 235.6 479.47C232.74 477.88 229.42 477.17 226.73 475.31C222.98 472.72 221.02 468.31 219.07 464.18C212.75 450.841 204.748 438.366 195.26 427.06C190.92 421.89 185.2 416.55 178.5 417.32C172.12 418.07 168.22 424.78 162.2 427.29Z" fill="#FBBEBE"/>
<path opacity="0.03" d="M162.2 427.29C158.79 426.21 155.5 429.23 153.59 432.29C145.65 444.77 146.3 461.43 152.65 474.79C154.161 478.178 156.245 481.28 158.81 483.96C162.25 487.35 166.68 489.52 170.81 491.96C182.27 498.73 192.091 507.95 199.57 518.96C204.46 526.17 208.31 534.1 213.86 540.81C227.52 557.33 249.97 564.81 263.22 581.61C266.39 585.61 269.07 590.25 273.3 593.16C275.815 594.889 278.745 595.915 281.789 596.133C284.833 596.35 287.879 595.751 290.614 594.398C293.349 593.044 295.673 590.985 297.346 588.432C299.019 585.88 299.98 582.928 300.13 579.88C305.28 572.31 309.49 563.95 313.5 555.71C319.433 543.133 324.446 530.142 328.5 516.84C329.99 512.14 331.43 507.41 333.33 502.84C338.02 491.56 345.49 481.35 348.13 469.43C349.19 464.65 349.45 459.68 350.99 455.04C352.369 450.875 354.729 447.103 357.87 444.04C368.27 433.93 373.87 419.2 382.14 407.3C385.5 402.49 388.99 397.69 391.21 392.25C393.43 386.81 394.28 380.58 392.21 375.08C390.14 369.58 384.73 365.14 378.87 365.45C376.247 365.722 373.703 366.503 371.38 367.75C363.304 371.582 355.896 376.687 349.44 382.87C346.617 385.587 343.946 388.458 341.44 391.47C329.22 406.07 319.66 423.79 318.82 442.81C318.54 449.33 319.06 456.56 314.92 461.61C303.5 475.56 299.83 494.74 290.09 509.92C285.58 516.92 280.41 524.17 272.7 527.36C271.561 527.908 270.301 528.156 269.04 528.08C265.96 527.73 264.19 524.49 262.89 521.67C257.81 510.671 251.931 500.06 245.3 489.92C242.68 485.92 239.79 481.82 235.6 479.47C232.74 477.88 229.42 477.17 226.73 475.31C222.98 472.72 221.02 468.31 219.07 464.18C212.75 450.841 204.748 438.366 195.26 427.06C190.92 421.89 185.2 416.55 178.5 417.32C172.12 418.07 168.22 424.78 162.2 427.29Z" fill="black"/>
<path d="M161.5 379.51C176.058 379.51 187.86 368.859 187.86 355.72C187.86 342.581 176.058 331.93 161.5 331.93C146.942 331.93 135.14 342.581 135.14 355.72C135.14 368.859 146.942 379.51 161.5 379.51Z" fill="#FBBEBE"/>
<path d="M186.22 360.32C191.461 360.32 195.71 356.071 195.71 350.83C195.71 345.589 191.461 341.34 186.22 341.34C180.979 341.34 176.73 345.589 176.73 350.83C176.73 356.071 180.979 360.32 186.22 360.32Z" fill="#FBBEBE"/>
<path d="M164.96 355.72C185.013 355.72 201.27 351.373 201.27 346.01C201.27 340.647 185.013 336.3 164.96 336.3C144.907 336.3 128.65 340.647 128.65 346.01C128.65 351.373 144.907 355.72 164.96 355.72Z" fill="#FBBEBE"/>
<path d="M132.58 343.94C133.463 346.74 134.158 349.597 134.66 352.49C131.611 349.395 128.97 345.924 126.8 342.16C126.215 341.511 125.745 340.767 125.41 339.96C122.17 332.42 119.96 324.79 119.96 316.53C119.959 306.953 122.636 297.566 127.689 289.43C132.742 281.294 139.968 274.733 148.553 270.488C157.138 266.242 166.739 264.482 176.272 265.405C185.804 266.329 194.889 269.899 202.499 275.713C210.11 281.527 215.943 289.353 219.34 298.308C222.737 307.262 223.563 316.988 221.724 326.387C219.886 335.786 215.455 344.484 208.934 351.498C202.413 358.512 194.06 363.563 184.82 366.08C186.39 361.02 188.54 356.08 188.82 350.83C188.989 349.079 188.735 347.313 188.08 345.68C187.202 343.943 185.907 342.452 184.31 341.34C178.59 336.97 171.23 335.06 164.03 335.18C156.822 335.479 149.74 337.178 143.18 340.18C141.11 341.07 138.63 342.27 136.18 343.09C135.012 343.495 133.806 343.78 132.58 343.94V343.94Z" fill="#FBBEBE"/>
<path d="M262.83 456.32C259.54 461.59 252.51 463.2 246.33 462.73C234.81 461.88 224.33 455.73 215.43 448.33C206.53 440.93 198.75 432.33 189.65 425.21C172.72 411.94 153.65 406.61 132.11 406.3C136.32 402.81 134.77 394.53 135.11 389.09C135.85 378.09 136.55 366.8 135.11 355.96C134.96 354.79 134.79 353.64 134.59 352.49C134.93 352.85 135.29 353.2 135.66 353.56C142.066 359.707 149.954 364.091 158.556 366.285C167.159 368.479 176.183 368.408 184.75 366.08C184.199 367.822 183.768 369.599 183.46 371.4C182.22 379.13 184.3 386.97 186.35 394.54C187.57 399.07 189.02 403.93 192.75 406.76C195.17 408.6 198.22 409.32 201.09 410.29C206.811 412.24 212.092 415.298 216.63 419.29C219.79 422.06 222.63 425.29 226.02 427.7C229.244 429.74 232.64 431.493 236.17 432.94C244.833 436.938 253.018 441.899 260.57 447.73C261.995 448.619 263.104 449.935 263.74 451.49C263.927 452.315 263.942 453.169 263.786 453.999C263.629 454.83 263.304 455.62 262.83 456.32V456.32Z" fill="#FBBEBE"/>
<path d="M321.9 553.21C321.21 557.77 317.03 561.33 314.08 564.87C306.06 574.55 297.93 584.26 288.96 593.12C279.36 602.59 268.82 611.03 258.29 619.47L244.63 630.4C242.945 631.941 240.97 633.13 238.82 633.9C236.302 634.528 233.641 634.212 231.34 633.01C230.424 632.571 229.556 632.038 228.75 631.42C225.92 629.22 223.84 626.22 221.81 623.27C212.57 609.783 203.32 596.293 194.06 582.8C190.76 577.98 187.52 573.03 184.3 568.08C183.87 567.44 183.46 566.79 183.03 566.15C180.09 561.65 177.16 557.15 174.15 552.8L157.69 545.09L155.53 544.09L152.98 542.9C149.59 541.31 146.15 539.69 143.33 537.23C140.63 534.692 138.381 531.713 136.68 528.42C133.386 522.331 130.506 516.026 128.06 509.55C121.06 491.88 114.9 473.46 114.64 454.44C114.41 437.71 119.35 420.31 130.47 408.03C131.99 406.34 133.624 404.757 135.36 403.29C137.5 401.5 139.71 400.45 142.46 400.84C145.21 401.23 147.82 401.63 150.46 402.08C157.74 403.333 164.963 404.867 172.13 406.68C178.59 408.33 185.28 410.21 191.81 408.9C192.86 408.69 193.9 408.39 194.94 408.12C195.79 407.9 196.63 407.69 197.5 407.55C197.983 407.466 198.47 407.413 198.96 407.39C202.43 407.21 205.76 408.6 208.96 409.97C215.07 412.59 221.36 415.35 225.96 420.17C228.7 423.07 230.71 426.63 233.63 429.36C237.53 433.01 242.73 434.88 247.41 437.49C248.314 437.991 249.186 438.549 250.02 439.16C251.866 440.543 253.544 442.138 255.02 443.91V443.91C261.08 451.06 264.68 460.71 271.37 467.82C276.724 473.5 281.377 479.802 285.23 486.59C285.86 487.72 286.47 488.86 287.07 490.02C288.07 491.95 289 493.91 289.86 495.89C290.08 496.4 290.3 496.89 290.5 497.42C291.758 500.416 292.857 503.477 293.79 506.59C296.06 514.14 297.57 522.29 302.61 528.35C306.13 532.56 311.01 535.35 315.12 538.98C317.767 541.222 319.849 544.055 321.2 547.25C321.942 549.143 322.183 551.196 321.9 553.21Z" fill="#FBBEBE"/>
<path opacity="0.06" d="M294.06 493.15C292.913 494.597 291.737 496.023 290.53 497.43C290.33 497.69 290.11 497.94 289.89 498.19C279.364 510.504 267.314 521.428 254.03 530.7C245.81 536.44 237.14 541.53 228.49 546.61L212.49 555.98C205.8 559.91 199.02 563.87 191.6 566.13C189.22 566.84 186.73 567.41 184.3 568.08C183.87 567.44 183.46 566.79 183.03 566.15C180.09 561.65 177.16 557.15 174.15 552.8L157.69 545.09C166.78 539.344 174.845 532.118 181.55 523.71C191.55 511.38 199.24 497.32 206.82 483.35C208.164 481.095 209.209 478.674 209.93 476.15C210.93 471.96 210.09 467.56 208.86 463.44C204.357 448.668 194.89 435.905 182.06 427.31C173.06 421.31 162.82 417.66 152.64 414.14C145.53 411.68 137.74 409.3 130.51 410.31C132.028 408.621 133.662 407.04 135.4 405.58C137.54 403.78 139.75 402.73 142.5 403.12C145.25 403.51 147.86 403.91 150.5 404.37C155.85 406.01 161.11 407.97 166.34 409.99C169.781 411.251 173.123 412.765 176.34 414.52C179.542 416.475 182.618 418.629 185.55 420.97C194.221 427.58 203.351 433.565 212.87 438.88C223.87 444.95 235.42 449.88 246.96 454.88C248.184 455.509 249.535 455.851 250.91 455.88C251.599 455.879 252.268 455.648 252.811 455.224C253.354 454.801 253.741 454.208 253.91 453.54C253.956 452.812 253.789 452.085 253.43 451.45C251.43 447.36 246.89 445.3 242.78 443.31C225.72 435.05 210.72 423.16 195.88 411.36C195.52 411.074 195.203 410.737 194.94 410.36L197.5 409.79C214.108 421.718 231.648 432.293 249.95 441.41C250.917 441.903 251.887 442.383 252.86 442.85C253.56 443.2 254.25 443.54 254.96 443.85C259.89 446.27 264.82 448.85 268.53 452.85C270.923 455.609 272.94 458.672 274.53 461.96C278.617 469.682 282.107 477.705 284.97 485.96C285.024 486.136 285.088 486.31 285.16 486.48C285.523 487.741 286.15 488.91 287 489.91C287.299 490.245 287.655 490.526 288.05 490.74C289.93 491.85 292.51 491.73 294.06 493.15Z" fill="black"/>
<path d="M197.54 407.55C214.146 419.479 231.686 430.05 249.99 439.16L252.9 440.61C258.5 443.35 264.33 446.07 268.58 450.61C270.971 453.374 272.988 456.44 274.58 459.73C278.67 467.449 282.157 475.473 285.01 483.73C285.65 485.56 286.4 487.57 288.1 488.51C289.8 489.45 292.5 489.38 294.01 490.8C292.65 492.5 291.27 494.18 289.84 495.8C279.317 508.119 267.266 519.047 253.98 528.32C245.76 534.06 237.09 539.15 228.44 544.23L212.44 553.6C205.75 557.52 198.97 561.48 191.55 563.74C188.76 564.59 185.81 565.23 182.98 566.05C180.04 561.55 177.11 557.05 174.1 552.7L155.48 543.98C165.48 538.32 174.2 530.27 181.48 521.32C191.48 509 199.17 494.94 206.75 480.97C208.092 478.714 209.137 476.294 209.86 473.77C210.86 469.58 210.02 465.17 208.79 461.05C204.285 446.325 194.846 433.601 182.06 425.02C173.06 419.02 162.82 415.38 152.64 411.85C145.53 409.4 137.74 407.01 130.51 408.03C132.03 406.34 133.664 404.757 135.4 403.29C137.54 401.5 139.75 400.45 142.5 400.84C145.25 401.23 147.86 401.63 150.5 402.08C155.85 403.73 161.11 405.69 166.34 407.71C169.782 408.967 173.125 410.481 176.34 412.24C179.542 414.195 182.618 416.349 185.55 418.69C194.235 425.284 203.378 431.253 212.91 436.55C223.91 442.63 235.46 447.6 247 452.55C248.224 453.179 249.574 453.521 250.95 453.55C251.64 453.552 252.311 453.323 252.855 452.899C253.398 452.474 253.784 451.88 253.95 451.21C253.995 450.485 253.828 449.762 253.47 449.13C251.47 445.04 246.93 442.97 242.82 440.99C225.76 432.73 210.76 420.83 195.92 408.99C195.557 408.707 195.239 408.37 194.98 407.99L197.54 407.55Z" fill="#DE5555"/>
<path d="M337.65 461.84C372.317 461.84 400.42 433.737 400.42 399.07C400.42 364.403 372.317 336.3 337.65 336.3C302.983 336.3 274.88 364.403 274.88 399.07C274.88 433.737 302.983 461.84 337.65 461.84Z" fill="#464353"/>
<path d="M400.06 648.89C411.81 645.2 423.74 641.44 434.06 634.69C441.31 629.95 447.56 623.85 454.14 618.21C459.09 613.97 464.25 609.97 468.79 605.29C472.857 600.91 476.664 596.296 480.19 591.47C488.217 580.963 496.507 570.657 505.06 560.55C509.65 555.16 514.5 549.67 520.91 546.67C532.3 541.32 545.67 544.93 557.69 548.6C575.69 554.1 593.6 559.93 610.44 568.3C620.02 573.07 629.3 578.39 638.97 582.96C656.65 591.31 675.42 597.04 694.12 602.74C695.509 603.331 697.053 603.458 698.52 603.1C699.569 602.619 700.47 601.866 701.13 600.92C703.568 597.908 705.522 594.534 706.92 590.92C707.186 590.51 707.286 590.013 707.199 589.532C707.111 589.05 706.844 588.621 706.45 588.33C698.45 580.54 688.07 575.75 678.37 570.2C670.65 565.79 663.26 560.84 655.88 555.89C648.79 551.14 641.64 546.34 635.69 540.23C632.69 537.14 629.99 533.73 626.74 530.91C623.869 528.561 620.827 526.429 617.64 524.53C603.385 515.427 589.779 505.346 576.92 494.36C567.14 486 559.13 475.23 548.68 467.73C542.27 463.13 534.81 458.94 526.97 459.78C517.43 460.78 510.39 468.78 503.74 475.68C481.39 498.89 453.19 515.5 428.25 535.91C407.89 552.55 388.86 572.32 364.06 581.1C365.17 584.78 365.56 588.46 366.68 592.1C368.076 597.16 369.816 602.118 371.89 606.94C373.946 611.21 376.26 615.351 378.82 619.34L388.76 635.57C390.76 638.87 392.85 642.22 395.71 644.84C397.21 646.28 400.06 646.8 400.06 648.89Z" fill="#464353"/>
<path opacity="0.06" d="M400.06 648.89C411.81 645.2 423.74 641.44 434.06 634.69C441.31 629.95 447.56 623.85 454.14 618.21C459.09 613.97 464.25 609.97 468.79 605.29C472.857 600.91 476.664 596.296 480.19 591.47C488.217 580.963 496.507 570.657 505.06 560.55C509.65 555.16 514.5 549.67 520.91 546.67C532.3 541.32 545.67 544.93 557.69 548.6C575.69 554.1 593.6 559.93 610.44 568.3C620.02 573.07 629.3 578.39 638.97 582.96C656.65 591.31 675.42 597.04 694.12 602.74C695.509 603.331 697.053 603.458 698.52 603.1C699.569 602.619 700.47 601.866 701.13 600.92C703.568 597.908 705.522 594.534 706.92 590.92C707.186 590.51 707.286 590.013 707.199 589.532C707.111 589.05 706.844 588.621 706.45 588.33C698.45 580.54 688.07 575.75 678.37 570.2C670.65 565.79 663.26 560.84 655.88 555.89C648.79 551.14 641.64 546.34 635.69 540.23C632.69 537.14 629.99 533.73 626.74 530.91C623.869 528.561 620.827 526.429 617.64 524.53C603.385 515.427 589.779 505.346 576.92 494.36C567.14 486 559.13 475.23 548.68 467.73C542.27 463.13 534.81 458.94 526.97 459.78C517.43 460.78 510.39 468.78 503.74 475.68C481.39 498.89 453.19 515.5 428.25 535.91C407.89 552.55 388.86 572.32 364.06 581.1C365.17 584.78 365.56 588.46 366.68 592.1C368.076 597.16 369.816 602.118 371.89 606.94C373.946 611.21 376.26 615.351 378.82 619.34L388.76 635.57C390.76 638.87 392.85 642.22 395.71 644.84C397.21 646.28 400.06 646.8 400.06 648.89Z" fill="black"/>
<path d="M673.82 629.84C674.936 631.416 675.694 633.218 676.039 635.118C676.385 637.019 676.31 638.971 675.82 640.84C679.374 643.409 683.701 644.683 688.08 644.45C692.441 644.209 696.728 643.228 700.76 641.55C704.253 640.271 707.562 638.536 710.6 636.39C715.83 632.53 719.6 627.01 722.65 621.28C724.34 618.13 725.78 614.04 723.6 611.2C722.768 610.231 721.747 609.442 720.6 608.88C712.911 604.488 704.905 600.674 696.65 597.47C694.378 596.425 691.911 595.87 689.41 595.84C686.33 596.01 683.54 597.7 681.1 599.58C675.62 603.846 671.201 609.322 668.19 615.58C667.25 617.58 664.41 622.34 665.81 624.4C666.45 625.35 668.81 625.68 669.81 626.27C671.382 627.166 672.748 628.383 673.82 629.84V629.84Z" fill="#FBBEBE"/>
<path d="M719.61 606.18C736.53 609.33 752.09 617.5 768.72 621.91C775.45 623.69 782.38 624.91 788.81 627.53C795.24 630.15 801.3 634.63 804.07 641.01C805.24 644.073 806.016 647.272 806.38 650.53C807.1 655.14 807.69 660.29 804.95 664.07C802.06 668.07 796.6 668.96 791.71 669.54C774.13 671.64 756.55 673.73 738.91 675.21C735.346 675.432 731.796 675.856 728.28 676.48C725.38 677.07 722.55 677.94 719.67 678.62C715.95 679.5 712.15 680.04 708.37 680.62C698.7 682 688.92 683.4 679.21 682.33C674.78 681.84 669.82 680.41 667.87 676.41C667.061 674.337 666.719 672.11 666.87 669.89C666.87 663.96 666.77 658.02 666.87 652.09C666.96 646 667.26 639.68 670.02 634.25C670.707 632.589 671.997 631.249 673.63 630.5C674.636 630.212 675.688 630.117 676.73 630.22C681.93 630.4 687.31 630.62 691.96 632.94C695.65 634.77 698.31 629.3 702.07 630.94C709.2 634.09 704.37 624.54 711.57 627.51C713.25 622.33 720.39 625.41 719.15 620.1C717.91 614.79 722.36 617.1 721.85 611.64C721.828 610.449 721.598 609.271 721.17 608.16C720.61 607.09 720.79 606.01 719.61 606.18Z" fill="#464353"/>
<path opacity="0.06" d="M212.77 286.23C208.89 288.49 204.08 288.07 199.56 287.97C195.607 287.888 191.654 288.092 187.73 288.58C186.317 288.679 184.936 289.045 183.66 289.66C181.998 290.732 180.685 292.264 179.88 294.07C178.28 297.144 177.202 300.463 176.69 303.89C176.13 307.74 176.19 311.95 173.79 315C170.52 319.15 165.42 318.51 160.79 319.33C156.761 320.103 152.898 321.579 149.38 323.69C145.911 325.785 142.934 328.603 140.653 331.953C138.371 335.302 136.839 339.105 136.16 343.1C136.03 344.01 135.94 344.91 135.9 345.82C135.8 348.4 136.06 351.03 135.72 353.56C135.638 354.192 135.511 354.816 135.34 355.43C135.296 355.61 135.239 355.788 135.17 355.96C135.02 354.79 134.85 353.64 134.65 352.49C131.601 349.395 128.96 345.924 126.79 342.16C126.205 341.511 125.735 340.767 125.4 339.96C122.16 332.42 119.95 324.79 119.95 316.53C119.949 305.698 123.374 295.143 129.735 286.375C136.095 277.606 145.066 271.074 155.363 267.712C165.661 264.351 176.758 264.331 187.067 267.657C197.376 270.983 206.369 277.484 212.76 286.23H212.77Z" fill="black"/>
<path d="M216.06 266.55C213.49 260.6 208.06 256.38 202.48 253.07C191.48 246.51 178.82 242.39 165.98 242.22C159.502 242.222 153.041 242.892 146.7 244.22C140.521 245.324 134.468 247.043 128.63 249.35C118.998 253.356 110.483 259.643 103.82 267.67C102.42 267.776 101.032 268 99.67 268.34C94.23 269.7 89.33 272.69 84.86 276.08C81.1193 278.79 77.7971 282.034 75 285.71C71.7264 290.404 69.462 295.726 68.35 301.34C64.54 318.9 69.23 337.02 72.67 354.65C76.11 372.28 78.12 391.54 69.67 407.38C66.48 413.38 61.95 418.48 58.55 424.32C55.15 430.16 52.89 437.19 54.82 443.67C57.12 451.55 64.86 456.55 68.9 463.64C71.3742 468.278 72.2573 473.6 71.4137 478.788C70.57 483.977 68.0462 488.745 64.23 492.36C70.58 494.56 77.65 492.19 83.37 488.67C87.9052 486.029 91.7636 482.369 94.64 477.98C101.83 466.34 98.64 451.31 101.14 437.86C104.47 420.26 117.91 404.56 116.06 386.74C114.81 374.74 106.89 364.79 100.66 354.5C96.5044 347.638 93.012 340.395 90.23 332.87C88.23 327.5 86.61 321.73 87.6 316.09C87.9276 314.368 88.4545 312.69 89.17 311.09C89.17 311.28 89.17 311.47 89.17 311.66C89.284 316.84 90.4474 321.943 92.59 326.66C100.03 341.86 119.84 347.46 128.23 362.15C130.68 359.48 133.23 356.68 134.23 353.2C135.11 350.1 134.66 346.8 134.79 343.58C135.14 334.58 140.61 326.1 148.27 321.46C151.786 319.346 155.649 317.873 159.68 317.11C164.3 316.28 169.4 316.91 172.68 312.76C175.08 309.76 175.02 305.5 175.59 301.66C176.097 298.228 177.175 294.905 178.78 291.83C179.582 290.025 180.896 288.495 182.56 287.43C183.838 286.81 185.223 286.443 186.64 286.35C190.56 285.862 194.51 285.658 198.46 285.74C203.03 285.85 207.92 286.26 211.84 283.91C217.36 280.55 218.63 272.55 216.06 266.55Z" fill="#464353"/>
<path opacity="0.06" d="M774.87 211.35C774.87 211.49 774.87 211.62 774.87 211.76C773.06 227.36 758.06 226.64 754.56 251.22C753.18 260.85 738.56 262.63 728.95 265.22C724.8 263.82 720.6 262.61 716.45 261.1C706.85 257.63 713.56 252.42 717.67 246.82C731.12 228.48 733.67 203.42 748.94 186.57C754.54 197.21 763.399 205.778 774.22 211.02C774.43 211.16 774.65 211.26 774.87 211.35Z" fill="black"/>
<path d="M775.22 202.4C775.219 204.766 775.085 207.129 774.82 209.48C772.978 225.716 764.877 240.595 752.239 250.953C739.601 261.311 723.422 266.332 707.14 264.95C690.858 263.568 675.757 255.891 665.046 243.55C654.335 231.21 648.858 215.179 649.78 198.864C650.702 182.55 657.949 167.238 669.982 156.182C682.015 145.127 697.885 139.2 714.219 139.66C730.553 140.12 746.063 146.932 757.454 158.648C768.845 170.364 775.219 186.06 775.22 202.4V202.4Z" fill="#A1616A"/>
<path d="M800.47 209.42C807.66 209.07 814.57 211.89 821.21 214.66C847.54 225.66 874.09 236.75 897.62 252.9C909.22 260.9 919.97 269.98 930.7 279.09L974.79 316.55C983.26 323.74 991.79 331 998.59 339.8C1002.59 345.228 1006.24 350.906 1009.52 356.8L1016.06 367.95C1018.74 372.314 1021.08 376.878 1023.06 381.6C1026.42 390.21 1027.67 400.25 1034.45 406.54C1039 410.77 1045.27 412.49 1050.83 415.28C1056.39 418.07 1061.83 422.97 1061.74 429.19C1061.74 433.19 1059.32 436.79 1057.5 440.39C1053.73 447.913 1052.15 456.343 1052.94 464.72L980.84 409.62C977.97 407.43 974.97 405.17 971.44 404.43C966.86 403.43 962.19 405.16 957.77 406.72C922.925 419.008 885.897 423.876 849.06 421.01C832.77 419.73 816.23 416.8 801.97 408.83C794.08 404.43 787.1 398.6 780.17 392.83C771.52 385.59 762.84 378.33 755.17 370.05C753.17 367.84 751.09 365.41 750.58 362.45C750.2 360.31 750.67 358.13 750.85 355.97C752.11 340.8 739.51 328.17 735.67 313.44C733.964 306.495 734.2 299.213 736.354 292.393C738.507 285.573 742.495 279.476 747.88 274.77C756.47 282.29 756.16 295.5 755.16 306.87C753.81 322.18 758.09 329.77 756.74 345.09C762.18 344.89 761.19 348.39 763.51 343.46C765.83 338.53 766.28 332.97 766.72 327.54C768.327 307.9 770.277 288.293 772.57 268.72C773.71 258.93 775.01 249.16 776.26 239.38C777.02 233.43 776.92 227.87 780.06 222.59C784.42 215.28 791.83 209.83 800.47 209.42Z" fill="#E8F4FF"/>
<path d="M809.88 227.26C814.46 225.82 819.39 227.14 823.99 228.51C832.123 230.923 840.21 233.473 848.25 236.16C854.82 238.35 861.48 240.7 867.04 244.83C872.81 249.11 877.04 255.06 881.23 260.91C884.23 265.12 887.23 269.38 889.23 274.16C891.83 280.42 892.53 287.28 893.23 294.02C893.689 296.929 893.652 299.894 893.12 302.79C892.181 305.935 890.528 308.82 888.29 311.22C884.847 315.295 880.856 318.872 876.43 321.85C864.66 329.77 850.43 333.07 836.57 335.98C824.2 338.57 811.74 340.98 799.12 341.76C794.21 342.07 788.51 341.76 785.51 337.88C784.656 336.67 783.983 335.343 783.51 333.94C776.136 314.411 772.944 293.551 774.14 272.71C774.249 268.911 774.836 265.141 775.89 261.49C776.928 258.568 778.216 255.741 779.74 253.04C783.53 245.87 787.52 238.45 794.05 233.65C800.88 228.65 809.73 227.07 818.2 227.39" fill="#A1616A"/>
<path opacity="0.06" d="M855.95 301.42C852.02 304.07 850.65 309.19 850.15 313.91C848.02 333.98 856.3 353.85 855.75 374.02C855.31 390.02 849.33 405.38 843.43 420.31C833.37 445.78 828.13 473.44 826.1 500.75C824.07 528.06 821.1 556.5 806.44 579.6C803.11 584.83 799.23 589.69 795.97 594.95C792.55 600.45 789.84 606.35 786.82 612.07C777.922 628.963 766.452 644.371 752.82 657.74C748.82 661.64 744.58 665.42 739.48 667.67C736.193 669.096 732.655 669.85 729.072 669.888C725.49 669.926 721.936 669.246 718.62 667.89C711.78 665.06 706.02 658.68 705.74 651.28C705.49 644.66 709.44 638.69 713.4 633.39C726.822 615.434 742.256 599.074 759.4 584.63C762.51 582.01 765.79 579.3 767.4 575.56C769.21 571.25 768.47 566.36 768.7 561.69C769.07 554.24 771.97 547.17 773.7 539.91C780.7 510.42 768.26 478.22 778.38 449.65C780.63 443.3 783.97 437.23 784.76 430.54C785.32 425.86 784.15 420.63 781.23 417.12C778.487 413.965 776.95 409.94 776.89 405.76C776.89 404.9 776.89 404.05 777 403.21C778.22 390.12 779.43 376.97 778.77 363.84C778.11 350.71 775.5 337.51 769.44 325.84C766.3 319.79 762.24 314.13 760.3 307.6C757.18 297.03 760.06 285.6 764.71 275.6C768.34 267.78 773.18 260.33 779.94 254.97C792.5 245.02 811.3 243.87 825.05 252.1C835.19 258.16 842.13 268.35 847.76 278.74C851.8 286.33 856.06 292.76 855.95 301.42Z" fill="black"/>
<path d="M858.23 301.42C854.3 304.07 852.93 309.19 852.43 313.91C850.3 333.98 858.58 353.85 858.03 374.02C857.59 390.02 851.61 405.38 845.71 420.31C835.65 445.78 830.42 473.44 828.38 500.75C826.34 528.06 823.38 556.5 808.72 579.6C805.39 584.83 801.52 589.69 798.25 594.95C794.84 600.45 792.12 606.35 789.1 612.07C780.199 628.962 768.729 644.369 755.1 657.74C751.1 661.64 746.85 665.42 741.75 667.67C738.463 669.096 734.925 669.85 731.342 669.888C727.76 669.926 724.206 669.246 720.89 667.89C714.06 665.06 708.3 658.68 708.02 651.28C707.76 644.66 711.71 638.69 715.68 633.39C729.101 615.434 744.535 599.074 761.68 584.63C764.79 582.01 768.08 579.3 769.68 575.56C771.5 571.25 770.75 566.36 770.98 561.69C771.35 554.24 774.25 547.17 775.98 539.91C782.98 510.42 770.54 478.22 780.66 449.65C782.91 443.3 786.26 437.23 787.05 430.54C787.6 425.86 786.44 420.63 783.52 417.12C780.726 413.986 779.144 409.957 779.06 405.76C779.06 404.9 779.06 404.05 779.17 403.21C780.38 390.12 781.59 376.97 780.93 363.84C780.27 350.71 777.66 337.51 771.6 325.84C768.46 319.79 764.4 314.13 762.46 307.6C759.34 297.03 762.22 285.6 766.87 275.6C770.51 267.78 775.34 260.33 782.1 254.97C794.66 245.02 813.46 243.87 827.21 252.1C837.35 258.16 844.29 268.35 849.92 278.74C854.06 286.33 858.3 292.76 858.23 301.42Z" fill="#A1616A"/>
<path d="M959.36 562.55L958.5 562.81Z" fill="#464353"/>
<path d="M784.21 607.17C784.247 606.833 784.307 606.499 784.39 606.17Z" fill="#464353"/>
<path d="M998.61 538.55C1001.49 535.22 1005.93 533.73 1010.2 532.62C1017.08 530.841 1024.11 529.696 1031.2 529.2C1035.6 528.726 1040.05 529 1044.36 530.01C1048.62 531.18 1052.66 533.72 1054.82 537.57C1056.73 540.97 1057.03 545.01 1057.28 548.9C1057.8 556.9 1058.28 564.9 1056.96 572.78C1056.11 577.78 1054.52 582.62 1053.49 587.58C1050.15 603.84 1053.05 620.67 1052.75 637.27C1052.68 640.81 1052.45 644.44 1050.96 647.65C1049.37 651.06 1046.51 653.65 1043.72 656.21C1040.65 658.98 1037.53 661.77 1033.83 663.62C1028.35 666.37 1022.04 666.83 1015.91 667.02C1012.18 667.13 1008.34 667.14 1004.91 665.77C1001.48 664.4 998.39 661.32 998.14 657.59C997.74 651.26 1004.88 647.12 1006.92 641.12C1008.54 636.34 1006.68 631.06 1004.1 626.71C999.963 619.776 994.058 614.064 986.99 610.16C984.37 608.72 981.58 607.51 979.4 605.48C977.22 603.45 975.74 600.3 976.67 597.48C977.78 594.07 981.75 592.48 985.32 592.14C988.89 591.8 992.66 592.06 995.87 590.47C998.73 589.06 1000.72 586.34 1002.09 583.47C1005.01 577.344 1005.41 570.321 1003.22 563.9C1002.35 561.458 1001.1 559.171 999.5 557.13C998 555.21 994.92 553.59 993.85 551.49C991.95 547.71 996.06 541.55 998.61 538.55Z" fill="#464353"/>
<path opacity="0.06" d="M940.5 393.63C923.98 379.03 900.95 375.06 879.35 370.63C868.223 368.357 857.15 365.823 846.13 363.03C838.89 361.19 831.63 359.23 824.13 358.72C816.63 358.21 808.91 359.26 802.49 363.08C796.07 366.9 791.23 373.82 791.19 381.29C791.19 384.29 791.9 387.23 791.68 390.2C791.33 394.98 788.68 399.2 786.87 403.67C784.102 410.736 783.678 418.505 785.66 425.83C788.86 437.5 798.08 447.78 797.28 459.83C795.95 480 796.36 501.08 800.5 520.83C804.64 540.58 809.81 560.42 809.69 580.63C809.57 600.84 803.45 622.09 788.36 635.55C798.584 645.15 811.089 651.982 824.69 655.4C836.32 658.31 850.15 658.02 858.43 649.35C860.35 647.35 861.94 644.68 861.54 641.93C861.127 640.195 860.399 638.551 859.39 637.08C853.7 626.89 854.39 614.33 856.91 602.95C859.43 591.57 863.74 580.51 864.83 568.89C865.63 560.46 864.73 551.89 866.34 543.57C867.58 537.2 870.26 531.2 871.87 524.91C876.62 506.25 871.63 486.66 866.67 468.07C870.82 477.62 878.67 485.07 886.79 491.55C899.11 501.37 914.01 510.04 929.67 508.3C943.61 506.74 955.48 497.05 963.67 485.68C963.74 472.53 968.3 460.1 967.49 446.98C966.967 441.217 965.937 435.512 964.41 429.93C962.88 423.69 961.31 417.39 958.41 411.66C954.58 404.05 946.88 399.26 940.5 393.63Z" fill="black"/>
<path d="M943.92 393.63C927.4 379.03 904.38 375.06 882.77 370.63C871.643 368.357 860.573 365.823 849.56 363.03C842.32 361.19 835.05 359.23 827.56 358.72C820.07 358.21 812.35 359.26 805.93 363.08C799.51 366.9 794.66 373.82 794.63 381.29C794.63 384.29 795.33 387.23 795.11 390.2C794.77 394.98 792.06 399.2 790.3 403.67C787.535 410.737 787.114 418.506 789.1 425.83C792.29 437.5 801.51 447.78 800.72 459.83C799.38 480 799.79 501.08 803.93 520.83C808.07 540.58 813.24 560.42 813.12 580.63C813 600.84 806.84 622.02 791.74 635.46C801.965 645.058 814.469 651.89 828.07 655.31C839.7 658.22 853.54 657.93 861.81 649.26C863.73 647.26 865.32 644.59 864.92 641.84C864.507 640.105 863.779 638.461 862.77 636.99C857.08 626.8 857.77 614.24 860.29 602.86C862.81 591.48 867.12 580.42 868.22 568.8C869.01 560.37 868.11 551.8 869.73 543.48C870.96 537.11 873.65 531.11 875.25 524.82C880 506.16 875.02 486.57 870.05 467.98C874.2 477.53 882.05 484.98 890.18 491.46C902.5 501.28 917.39 509.95 933.05 508.21C946.99 506.65 958.86 496.96 967.05 485.59C967.11 472.44 971.67 460.01 970.86 446.89C970.337 441.127 969.307 435.422 967.78 429.84C966.26 423.6 964.68 417.3 961.78 411.57C958.06 404.05 950.3 399.26 943.92 393.63Z" fill="#A1616A"/>
<path d="M829.16 645.98C821.824 641.512 815.488 635.578 810.55 628.55C808.77 626.03 807.17 623.35 804.95 621.21C802.73 619.07 799.72 617.48 796.65 617.8C793.18 618.16 790.4 620.8 788.2 623.52C782.3 630.83 778.5 639.77 771.95 646.52C764.39 654.33 753.84 658.52 743.31 661.2C732.78 663.88 721.91 665.29 711.59 668.68C708.35 669.74 704.94 671.18 703.19 674.11C700.97 677.84 702.19 682.73 704.53 686.43C708.84 693.43 716.26 697.94 724 700.62C731.74 703.3 739.93 704.37 748 705.95C762.26 708.74 776.87 713.21 791.06 710.06C796.72 708.8 802.06 706.36 807.78 705.3C820.78 702.88 834.19 707.77 847.24 705.81C853.55 704.86 859.51 702.34 865.24 699.5C868.113 698.258 870.726 696.483 872.94 694.27C875.03 691.95 876.29 688.66 875.43 685.66C874.94 683.93 873.81 682.47 873.06 680.84C871.88 678.32 871.64 675.49 871.36 672.72C870.281 662.176 868.449 651.723 865.88 641.44C864.99 637.85 863.66 633.85 860.31 632.28C859.627 631.911 858.828 631.822 858.08 632.03C856.89 632.48 856.5 633.92 856.14 635.13C855.158 638.475 853.279 641.488 850.705 643.84C848.132 646.192 844.963 647.794 841.544 648.473C838.124 649.151 834.583 648.879 831.307 647.687C828.031 646.495 825.144 644.427 822.96 641.71" fill="#464353"/>
<path opacity="0.06" d="M775.22 202.4C775.219 204.766 775.085 207.129 774.82 209.48C771.669 209.952 768.45 209.674 765.427 208.667C762.404 207.661 759.66 205.956 757.42 203.69C755.31 201.45 753.73 198.74 751.64 196.48C749.55 194.22 746.64 192.34 743.64 192.58C741.08 192.77 738.86 194.39 737.11 196.27C734.833 198.718 733.164 201.667 732.24 204.88C731.57 207.15 731.24 209.73 729.36 211.24C727.48 212.75 725.17 212.65 722.94 212.57C720.05 212.47 717.05 212.33 714.5 210.97C709.7 208.38 708.08 202.45 706.3 197.29C703.3 188.62 696.55 172.22 686.06 170.47C681.06 169.64 674.98 172.28 671.06 175.13C665.15 179.42 660.79 182.2 653.15 182.08C657.967 168.023 667.613 156.13 680.374 148.517C693.135 140.904 708.182 138.064 722.84 140.502C737.498 142.94 750.816 150.498 760.426 161.832C770.035 173.166 775.313 187.541 775.32 202.4H775.22Z" fill="black"/>
<path d="M653.06 179.79C651.257 179.829 649.462 179.544 647.76 178.95C642.91 177.05 640.55 171.45 640.14 166.26C639.5 158.35 642.14 150.59 644.79 143.1C645.35 141.47 646.02 139.72 647.48 138.81C648.662 138.23 649.954 137.906 651.27 137.86C658.45 136.86 664.68 132.47 669.98 127.55C675.28 122.63 680.06 117.05 685.98 112.95C701.68 102.12 724.98 104.14 738.56 117.5C743.94 122.78 748.56 129.94 756.02 131.18C760.32 131.89 764.93 130.41 769.02 132.01C772.02 133.18 774.16 135.83 775.88 138.54C781.46 147.3 784.08 157.68 784.95 168.03C785.82 178.38 785.02 188.79 784.21 199.14C784.256 200.69 783.856 202.22 783.06 203.55C782.42 204.317 781.617 204.932 780.71 205.35C776.908 207.224 772.612 207.854 768.432 207.151C764.252 206.447 760.399 204.446 757.42 201.43C755.3 199.2 753.73 196.49 751.64 194.22C749.55 191.95 746.64 190.09 743.64 190.33C741.09 190.52 738.85 192.14 737.11 194.02C734.833 196.468 733.164 199.417 732.24 202.63C731.58 204.9 731.24 207.48 729.36 208.98C727.48 210.48 725.17 210.4 722.93 210.32C720.05 210.21 717.05 210.08 714.5 208.71C709.69 206.13 708.07 200.2 706.3 195.04C703.3 186.37 696.56 169.96 686.06 168.22C681.06 167.38 674.98 170.03 671.06 172.88C665.06 177.14 660.74 179.92 653.06 179.79Z" fill="#464353"/>
<path opacity="0.06" d="M321.9 553.21C321.21 557.77 317.03 561.33 314.08 564.87C306.06 574.55 297.93 584.26 288.96 593.12C279.36 602.59 268.82 611.03 258.29 619.47L244.63 630.4C242.945 631.941 240.97 633.131 238.82 633.9C236.302 634.528 233.641 634.212 231.34 633.01C231.54 632.61 231.75 632.24 231.98 631.87L248.36 604.42C251.58 599.04 253.69 594.14 257.36 589.09C262.89 581.53 268.47 573.93 275.28 567.52C283.89 559.41 294.93 553.52 305.17 547.66C306.65 543.22 312.85 541.99 317.04 544.09C318.593 544.895 319.991 545.968 321.17 547.26C321.921 549.148 322.172 551.197 321.9 553.21V553.21Z" fill="black"/>
<path d="M249.5 605.55L233.12 633.01C232.45 634.12 231.76 635.38 232.05 636.64C232.418 637.697 233.12 638.606 234.05 639.23C240.33 644.34 247.29 649.73 249.26 657.58C250.67 663.18 249.26 669.18 250.52 674.8C252.83 684.94 263.02 691.1 272.66 695C294.26 703.74 318.24 707.1 341.19 703C364.14 698.9 385.92 687.22 400.78 669.26C405.34 663.74 409.24 657.7 413.57 652C425.57 636.25 440.8 623.32 455.91 610.52C475.36 594.04 486.82 569.46 503.91 550.52C507.02 547.07 510.45 543.52 514.91 542.38C517.41 541.75 520.91 542.68 521.01 545.26C521.24 550.26 525.26 554.35 528.01 558.53C538.37 574.37 549.21 590.7 565.22 600.8C573.98 606.34 583.91 609.73 593.81 612.8C618.91 620.62 644.5 626.8 670.06 632.92C671.35 630.34 672.898 627.898 674.68 625.63C677.33 622.38 680.82 619.9 683.48 616.63C688.35 610.74 690.06 602.95 691.62 595.47C676.35 586.12 660.68 576.47 645.62 566.75C638.04 561.87 630.41 556.88 624.27 550.28C620.27 545.94 616.91 540.97 612.9 536.6C608.798 532.359 604.379 528.438 599.68 524.87L563.68 496.04C553.34 487.77 542.8 479.04 532.68 470.48C526.99 465.66 520.68 460.59 513.24 460.36C506.87 460.16 501.01 463.57 495.53 466.85C463.343 486.123 430.677 504.53 397.53 522.07C390.82 525.61 384.08 529.13 377.68 533.2C365.228 541.122 354.172 551.049 344.96 562.58C343.27 564.69 341.13 567.09 338.45 566.77C337.713 566.662 337.004 566.414 336.36 566.04C332.23 563.83 329.7 559.56 327.36 555.51C325.02 551.46 322.41 547.2 318.22 545.1C314.03 543 307.84 544.23 306.35 548.68C296.06 554.71 285.06 560.55 276.44 568.66C269.63 575.07 264.05 582.66 258.52 590.23C254.83 595.28 252.71 600.18 249.5 605.55Z" fill="#464353"/>
<path opacity="0.06" d="M222.67 438.07C222.67 438.07 239.14 445.38 250.95 453.63Z" fill="black"/>
<path d="M1047.53 453.1C1047.83 462.43 1048.07 471.78 1047.96 481.1C1047.9 486.04 1047.69 491.19 1045.32 495.52C1043.63 498.63 1040.96 501.06 1038.32 503.44L1021.85 518.37C1016.74 523 1011.23 527.83 1004.42 528.98C996.63 530.3 989.02 526.51 981.53 523.98C973.987 521.439 966.089 520.112 958.13 520.05C953.57 520.05 948.97 520.41 944.47 519.69C941.216 519.071 938.024 518.164 934.93 516.98L920.06 511.82C920.48 508.07 924.06 505.68 927.06 503.31C937.71 494.67 942.38 480.78 945.74 467.49C948.471 457.115 950.417 446.548 951.56 435.88C952.07 430.6 952.3 425.23 951.19 420.04C950.143 415.853 948.669 411.785 946.79 407.9L941.56 396.11C938.56 389.45 932.56 386.49 926.45 382.56C935.67 386.06 946.91 387.43 953.92 394.37C955.273 395.908 956.875 397.206 958.66 398.21C960.57 399.12 962.74 399.21 964.83 399.55C975.24 401.11 984.09 407.65 992.69 413.7C1003.22 421.113 1014.04 428.077 1025.15 434.59C1030.15 437.53 1035.31 440.42 1039.52 444.43C1043.73 448.44 1047.03 453.78 1047.3 459.59" fill="#464353"/>
<path opacity="0.06" d="M150.77 436.72C137.66 439.31 130.84 454.72 131.61 468.05C132.35 479.956 137.24 491.226 145.43 499.9C150.9 505.65 157.72 510.09 162.66 516.3C169.96 525.46 172.5 537.57 179.03 547.3C183.77 554.36 190.42 559.9 197.03 565.21C212.27 577.37 228.007 588.88 244.24 599.74C250.84 604.15 258.06 608.61 266 608.44C273.48 608.28 280.37 603.89 285.25 598.21C290.13 592.53 293.25 585.63 296.42 578.83C307.84 553.93 319.34 528.76 324.8 501.92C326.51 493.49 327.66 484.8 331.48 477.09C334.48 471.09 338.92 465.95 342.88 460.53C352.236 447.669 358.802 432.996 362.16 417.45C364.34 407.31 365.07 396.45 361.49 386.75C357.91 377.05 349.22 368.64 338.87 367.88C330.68 367.28 322.64 371.48 317.14 377.59C311.64 383.7 308.4 391.51 306.19 399.42C303.022 410.8 301.805 422.634 302.59 434.42C303.23 443.93 305.17 453.53 303.53 462.93C302.37 469.56 299.48 475.75 296.62 481.85C289.23 497.59 281.72 513.53 270.55 526.85C266.91 531.19 261.9 535.58 256.33 534.56C248.63 533.16 246.59 523.41 242.79 516.56C238.13 508.16 229.29 503.11 222.36 496.44C212.5 486.94 206.59 474.2 199.58 462.44C192.57 450.68 183.5 439.07 170.58 434.56C157.66 430.05 140.44 435.84 137.12 449.12" fill="black"/>
<path opacity="0.06" d="M160.66 445.85C147.54 448.44 130.84 450.13 131.66 463.48C132.392 475.388 137.283 486.661 145.48 495.33C150.95 501.09 157.77 505.53 162.71 511.74C170.01 520.9 172.55 533 179.08 542.74C183.82 549.81 190.47 555.35 197.08 560.65C212.32 572.817 228.057 584.327 244.29 595.18C250.89 599.6 258.11 604.06 266.05 603.89C273.53 603.73 280.42 599.33 285.3 593.66C290.18 587.99 293.3 581.08 296.47 574.27C307.89 549.37 319.39 524.2 324.85 497.36C326.56 488.94 327.71 480.24 331.53 472.54C334.53 466.54 338.97 461.4 342.93 455.97C352.287 443.113 358.854 428.443 362.21 412.9C364.39 402.75 365.12 391.9 361.54 382.19C357.96 372.48 349.27 364.09 338.92 363.32C330.73 362.72 322.69 366.93 317.19 373.03C311.69 379.13 308.45 386.95 306.24 394.87C303.071 406.25 301.854 418.084 302.64 429.87C303.28 439.39 305.22 448.99 303.58 458.38C302.42 465.02 299.53 471.21 296.67 477.31C289.28 493.05 281.77 508.98 270.6 522.31C266.96 526.65 261.95 531.03 256.38 530.02C248.68 528.61 246.64 518.86 242.84 512.02C238.18 503.62 229.34 498.57 222.41 491.9C212.55 482.41 206.64 469.66 199.63 457.9C192.62 446.14 183.55 434.54 170.63 430.02C157.71 425.5 173.89 454.45 170.56 467.73" fill="black"/>
<path d="M150.77 434.43C137.66 437.02 130.84 452.43 131.61 465.76C132.348 477.67 137.238 488.944 145.43 497.62C150.9 503.37 157.72 507.81 162.66 514.02C169.96 523.18 172.5 535.29 179.03 545.02C183.77 552.09 190.42 557.63 197.03 562.94C212.27 575.1 228.007 586.607 244.24 597.46C250.84 601.88 258.06 606.34 266 606.17C273.48 606.01 280.37 601.62 285.25 595.94C290.13 590.26 293.25 583.36 296.42 576.56C307.84 551.66 319.34 526.49 324.8 499.64C326.51 491.22 327.66 482.52 331.48 474.82C334.48 468.82 338.92 463.68 342.88 458.25C352.237 445.393 358.804 430.723 362.16 415.18C364.34 405.03 365.07 394.18 361.49 384.47C357.91 374.76 349.22 366.37 338.87 365.61C330.68 365 322.64 369.21 317.14 375.32C311.64 381.43 308.4 389.24 306.19 397.15C303.022 408.53 301.805 420.364 302.59 432.15C303.23 441.66 305.17 451.26 303.53 460.65C302.37 467.29 299.48 473.48 296.62 479.58C289.23 495.32 281.72 511.26 270.55 524.58C266.91 528.92 261.9 533.3 256.33 532.29C248.63 530.88 246.59 521.14 242.79 514.29C238.13 505.88 229.29 500.83 222.36 494.17C212.5 484.67 206.59 471.93 199.58 460.17C192.57 448.41 183.5 436.81 170.58 432.3C157.66 427.79 140.44 433.58 137.12 446.86" fill="#FBBEBE"/>
<g opacity="0.06">
<path opacity="0.06" d="M100.66 354.55C96.5044 347.688 93.012 340.445 90.23 332.92L89.89 331.92C87.7797 329.655 86.005 327.099 84.62 324.33C82.4761 319.613 81.3126 314.51 81.2 309.33C81.2 309.14 81.2 308.95 81.2 308.76C80.4845 310.36 79.9576 312.038 79.63 313.76C78.63 319.4 80.28 325.16 82.26 330.54C85.0439 338.064 88.5363 345.307 92.69 352.17C98.9 362.55 106.83 372.55 108.06 384.46C109.91 402.28 96.47 417.97 93.15 435.58C90.61 449.03 93.83 464.06 86.64 475.7C83.7661 480.089 79.907 483.746 75.37 486.38C72.5244 488.193 69.409 489.544 66.14 490.38C65.5439 491.087 64.9025 491.756 64.22 492.38C70.57 494.58 77.64 492.21 83.36 488.69C87.8952 486.049 91.7536 482.39 94.63 478C101.82 466.36 98.63 451.33 101.13 437.88C104.46 420.28 117.9 404.58 116.05 386.76C114.81 374.78 106.89 364.79 100.66 354.55Z" fill="black"/>
<path opacity="0.06" d="M216.06 266.55C213.49 260.6 208.06 256.38 202.48 253.07C195.406 248.825 187.709 245.721 179.67 243.87C184.829 245.671 189.794 247.986 194.49 250.78C200.07 254.1 205.49 258.31 208.08 264.27C210.67 270.23 209.38 278.27 203.82 281.59C199.9 283.94 195.01 283.52 190.44 283.42C186.491 283.33 182.54 283.53 178.62 284.02C177.205 284.122 175.821 284.489 174.54 285.1C172.871 286.181 171.557 287.728 170.76 289.55C169.152 292.625 168.07 295.948 167.56 299.38C167 303.22 167.05 307.43 164.65 310.48C161.39 314.63 156.29 314 151.65 314.82C147.621 315.593 143.758 317.069 140.24 319.18C132.58 323.81 127.11 332.27 126.76 341.3C126.64 344.52 127.08 347.81 126.21 350.91C125.649 352.718 124.768 354.412 123.61 355.91C125.382 357.804 126.932 359.894 128.23 362.14C130.68 359.47 133.23 356.67 134.23 353.19C135.11 350.09 134.66 346.79 134.79 343.57C135.14 334.57 140.61 326.09 148.27 321.45C151.786 319.336 155.649 317.863 159.68 317.1C164.3 316.27 169.4 316.9 172.68 312.75C175.08 309.75 175.02 305.49 175.59 301.65C176.097 298.218 177.175 294.896 178.78 291.82C179.582 290.015 180.896 288.485 182.56 287.42C183.838 286.8 185.223 286.433 186.64 286.34C190.56 285.852 194.51 285.648 198.46 285.73C203.03 285.84 207.92 286.25 211.84 283.9C217.36 280.55 218.63 272.55 216.06 266.55Z" fill="black"/>
</g>
<path opacity="0.06" d="M150.58 362.1C150.58 362.1 162.39 372.26 184.82 366.1C184.82 366.08 170.93 371.55 150.58 362.1Z" fill="black"/>
<path opacity="0.06" d="M783.99 190.7C784.013 192.244 783.597 193.763 782.79 195.08C782.15 195.844 781.347 196.456 780.44 196.87C776.641 198.746 772.347 199.378 768.168 198.676C763.99 197.975 760.138 195.975 757.16 192.96C755.04 190.72 753.47 187.96 751.38 185.75C749.29 183.54 746.38 181.61 743.38 181.85C740.83 182.05 738.6 183.67 736.85 185.54C734.584 187.996 732.917 190.943 731.98 194.15C731.33 196.43 730.98 199 729.11 200.51C727.24 202.02 724.92 201.92 722.68 201.84C719.79 201.74 716.79 201.61 714.25 200.24C709.44 197.66 707.82 191.72 706.04 186.57C703.04 177.89 696.3 161.49 685.81 159.74C680.81 158.91 674.72 161.56 670.81 164.4C664.9 168.69 660.54 171.47 652.89 171.4C651.088 171.435 649.293 171.15 647.59 170.56C643.19 168.83 640.84 164.05 640.13 159.31C639.858 161.482 639.801 163.676 639.96 165.86C640.38 171.04 642.74 176.64 647.59 178.55C649.293 179.14 651.088 179.425 652.89 179.39C660.54 179.51 664.89 176.73 670.81 172.44C674.74 169.6 680.81 166.94 685.81 167.78C696.26 169.48 703.06 185.88 706 194.55C707.78 199.71 709.4 205.65 714.21 208.23C716.75 209.59 719.75 209.73 722.64 209.83C724.88 209.91 727.34 209.92 729.07 208.5C730.8 207.08 731.29 204.41 731.94 202.14C732.875 198.932 734.542 195.984 736.81 193.53C738.56 191.66 740.81 190.04 743.34 189.84C746.42 189.6 749.34 191.47 751.34 193.74C753.34 196.01 755 198.74 757.12 200.95C760.098 203.965 763.949 205.965 768.128 206.666C772.307 207.368 776.601 206.736 780.4 204.86C781.305 204.443 782.107 203.831 782.75 203.07C783.558 201.75 783.974 200.228 783.95 198.68C784.733 190.257 785.066 181.798 784.95 173.34C784.87 179.13 784.44 184.92 783.99 190.7Z" fill="black"/>
<path d="M89.81 617.3C89.81 617.3 91.4 615.53 88.41 614.83V611.92H90.21C90.2061 608.404 88.9954 604.996 86.7802 602.266C84.565 599.536 81.4796 597.648 78.04 596.92V593.39H78.51V588.8H66.94V593.39H67.27V596.96C63.8626 597.724 60.8173 599.626 58.6359 602.353C56.4545 605.079 55.2673 608.468 55.27 611.96H56.86V614.75C56.86 614.75 53.07 616.54 56.86 619.75C60.65 622.96 60.06 625.28 60.06 625.28C60.06 625.28 58.47 631.28 55.28 632.06V687.69C55.2787 689.314 55.5974 690.922 56.218 692.423C56.8385 693.924 57.7488 695.288 58.8966 696.436C60.0445 697.585 61.4075 698.496 62.9077 699.118C64.408 699.74 66.016 700.06 67.64 700.06H77.41C80.6907 700.06 83.8371 698.757 86.1569 696.437C88.4767 694.117 89.78 690.971 89.78 687.69V632.06C89.78 632.06 84.19 627.87 85.19 625.28C86.5316 622.51 88.0758 619.843 89.81 617.3V617.3Z" fill="#464353"/>
</g>
<defs>
<linearGradient id="paint0_linear" x1="555.01" y1="709.87" x2="555.01" y2="98.97" gradientUnits="userSpaceOnUse">
<stop stop-color="#808080" stop-opacity="0.25"/>
<stop offset="0.54" stop-color="#808080" stop-opacity="0.12"/>
<stop offset="1" stop-color="#808080" stop-opacity="0.1"/>
</linearGradient>
<clipPath id="clip0">
<rect width="1152.12" height="771.1" fill="white"/>
</clipPath>
</defs>
</svg>
