<svg width="1135" height="791" viewBox="0 0 1135 791" fill="none" xmlns="http://www.w3.org/2000/svg">
<g clip-path="url(#clip0)">
<path opacity="0.1" d="M1113.06 225.65C1102.26 200.588 1087.67 177.339 1069.8 156.72L469.62 150.81L963.77 81.41C931.851 68.6928 897.866 61.9508 863.51 61.5199C816.24 23.7204 758.028 2.19365 697.538 0.143186C637.047 -1.90727 577.511 15.6281 527.79 50.1399C488.051 29.718 443.999 19.1088 399.32 19.1999C265.97 19.1999 154.85 111.56 129.92 234.04L1113.06 225.65Z" fill="#1E5631"/>
<path opacity="0.1" d="M1134.12 328.37C1134.15 295.158 1127.8 262.248 1115.42 231.43L75.23 340.61C64.5328 360.004 56.3471 380.68 50.87 402.14L372.98 450.14L43.52 485.14C53.43 623.79 172.3 733.28 317.52 733.28C390.61 733.28 457.02 705.53 506.24 660.28C555.6 706.38 622.65 734.73 696.53 734.73C806.15 734.73 900.75 672.32 944.81 582.08C1033.2 554.08 1101.81 483.59 1125.36 395.47L717.99 332.34H1134.06C1134.06 331.02 1134.12 329.7 1134.12 328.37Z" fill="#1E5631"/>
<path d="M486.58 775.28C716.369 775.28 902.65 757.595 902.65 735.78C902.65 713.965 716.369 696.28 486.58 696.28C256.791 696.28 70.51 713.965 70.51 735.78C70.51 757.595 256.791 775.28 486.58 775.28Z" fill="#1E5631"/>
<path d="M801.22 662.14C807.46 659.49 812.09 657.28 813.34 656.14C818.35 651.59 862.22 611.87 850.81 649.77C839.4 687.67 813.81 702.3 813.81 702.3C813.81 702.3 785.94 727.88 780 741.13C774.06 754.38 756.26 750.73 748.94 741.13C741.62 731.53 718.79 735.19 718.79 735.19L684.06 737.93C684.06 737.93 621.11 746.26 599.99 731.65C578.87 717.04 564.8 716.92 564.8 716.92C564.8 716.92 548.36 724.23 529.64 725.14C520.763 725.747 511.943 727.003 503.25 728.9C503.04 729.822 502.704 730.71 502.25 731.54H501.88C501.677 732.496 501.341 733.418 500.88 734.28C500.88 734.28 475.29 735.16 457.25 731.99C439.21 728.82 399.06 733.82 399.06 733.82C399.06 733.82 382.53 733.83 345.98 737.25C309.43 740.67 241.59 737.25 241.59 737.25C241.59 737.25 207.28 733.8 200.7 726.25C194.12 718.7 186.77 718.24 175.12 708.25C163.47 698.26 161.87 669.14 161.87 669.14C161.87 669.14 159.17 645.47 199.6 636.58C240.03 627.69 267.67 646.69 267.67 646.69C267.68 646.67 267.87 646.39 268.15 645.92H267.78L268.24 645.75C269.36 643.87 271.73 639.38 271.61 635.18C271.4 629.65 277.61 615.65 277.61 615.65L277.74 615.59C277.57 615.053 277.57 614.477 277.74 613.94C279.97 606.91 287.33 593.72 287.33 593.72C287.33 593.72 292.64 590.64 292.47 587.72C292.3 584.8 302.24 576.24 302.24 576.24C302.24 576.24 308.4 571.13 307.55 566.82C306.7 562.51 313.55 555.51 313.55 555.51L326.55 529.98C326.55 529.98 337.52 506.2 345.06 505.14C352.6 504.08 366.48 482.11 366.48 482.11C366.48 482.11 391.15 462.22 391.32 458.11C391.49 454 403.66 446.63 403.66 446.63C403.66 446.63 403.71 447.09 403.87 447.85L405.29 446.72C413.94 439.85 426.76 430.89 436.44 429.5C436.44 429.5 449.57 421.2 458.37 412.6C461.63 409.44 495.81 393.85 525.2 382.6C549.69 373.218 575.288 367.037 601.36 364.21H601.53H601.85L700.97 385.14C711.852 387.441 722.227 391.697 731.59 397.7C734.39 399.49 737.44 401.49 740.64 403.64C738.93 402.52 737.2 401.4 735.7 400.44C734.2 399.48 732.67 398.58 731.12 397.71C758.05 414.97 808.95 451.43 780.42 464.2C742.5 481.19 719.65 418.6 719.65 418.6C719.65 418.6 707.76 407.6 673.06 410.37C638.36 413.14 582.24 404.01 582.24 404.01C582.24 404.01 561.24 423.64 534.24 425.01C534.24 425.01 514.6 431.86 511.86 437.34C509.661 441.718 505.729 450.758 504.222 454.22L504.14 454.41L505.01 454.24L503.84 455.13C503.7 455.45 503.64 455.61 503.64 455.61L510.06 457.45C513.729 458.373 517.497 458.84 521.28 458.84C522.21 458.823 523.139 458.75 524.06 458.62C525.403 448.297 530.45 438.814 538.263 431.934C546.075 425.054 556.12 421.247 566.53 421.22C568.174 421.219 569.816 421.309 571.45 421.49C571.9 421.54 572.35 421.61 572.79 421.68C572.86 421.56 572.86 421.36 572.86 421.32V421.21C573.26 419.48 574.53 418.89 576.05 418.59C576.83 418.44 577.67 418.35 578.5 418.24C579.19 418.16 579.84 418.05 580.5 418.05H581.01C581.82 418.05 582.62 418 583.44 418.05C587.642 418.197 591.751 419.324 595.44 421.34C596.81 422.08 598.12 422.94 599.53 423.58C602.86 425.08 606.61 425.27 610.08 426.37C617.03 428.55 622.44 434.25 625.86 440.66C629.28 447.07 631 454.26 632.67 461.33C633.163 462.931 633.293 464.622 633.05 466.28C632.885 466.981 632.619 467.655 632.26 468.28C632.15 468.47 632.02 468.66 631.91 468.86C633.268 469.288 634.578 469.854 635.82 470.55C639.592 472.701 642.802 475.713 645.19 479.34C649.36 485.62 651.14 493.22 651.66 500.75C651.982 503.953 651.82 507.185 651.18 510.34V510.48L651.12 510.76C651.04 511.06 650.97 511.36 650.87 511.66L650.69 512.21C650.48 512.82 650.26 513.43 650.02 514.03C649.61 515.09 649.16 516.09 648.73 517.09C648.077 518.557 647.581 520.089 647.25 521.66C646.29 526.88 648.37 532.14 650.06 537.14C651.686 541.909 652.982 546.784 653.94 551.73C654.92 556.89 655.47 562.38 654.28 567.38C654.282 567.353 654.282 567.327 654.28 567.3C654.24 567.5 654.18 567.7 654.13 567.9L654.07 568.14L654.01 568.37C653.929 568.703 653.84 568.988 653.75 569.275L653.72 569.37C653.68 569.49 653.69 569.48 653.61 569.74C653.53 570 653.42 570.26 653.32 570.53C653.089 571.106 652.828 571.67 652.54 572.22L652.41 572.48C652.3 572.7 652.17 572.93 652.06 573.14C652.024 573.199 651.984 573.256 651.94 573.31L651.69 573.75C651.52 574.04 651.38 574.25 651.16 574.62C650.94 574.99 650.71 575.36 650.47 575.72L650.38 575.85C649.67 576.94 648.92 578.02 648.19 579.09C647.92 579.48 647.66 579.88 647.4 580.27C647.01 580.87 646.64 581.48 646.28 582.09C646.14 582.32 646 582.56 645.88 582.79C645.62 583.21 645.37 583.73 645.14 584.21C644.61 585.322 644.194 586.484 643.9 587.68C642.35 594.13 645.1 600.75 647.35 607C651.89 619.67 654.38 633.84 650.09 646.49C650 646.789 649.891 647.088 649.781 647.387L649.78 647.39L649.42 648.31C649.38 648.41 649.31 648.51 649.31 648.6C649.08 649.18 648.81 649.76 648.52 650.33V650.4C653.547 652.568 658.407 655.105 663.06 657.99C673.841 659.535 684.438 662.165 694.69 665.84C700.54 667.92 707.71 669.84 714.2 669.84C728.36 669.84 801.45 650.65 801.45 660.25C801.315 661.187 800.824 662.035 800.08 662.62L801.22 662.14Z" fill="url(#paint0_linear)"/>
<path d="M775.96 465.72C738.66 482.43 716.19 420.87 716.19 420.87C716.19 420.87 704.52 410.08 670.36 412.78C636.2 415.48 580.94 406.48 580.94 406.48C580.94 406.48 560.27 425.82 533.76 427.14C533.76 427.14 514.44 433.88 511.76 439.28C509.57 443.66 505.59 452.81 504.17 456.06C504.088 456.302 503.991 456.54 503.88 456.77C503.74 457.08 503.68 457.25 503.68 457.25L502.57 457.77L480.31 468.46L449.76 477.01L430.43 479.25L397.63 456.52C397.63 456.52 401.42 452.98 406.99 448.52C415.5 441.77 428.11 432.95 437.63 431.59C437.63 431.59 450.55 423.42 459.2 414.97C462.41 411.82 496.03 396.49 524.93 385.42C549.018 376.195 574.196 370.115 599.84 367.33L697.33 387.92C708.041 390.178 718.256 394.355 727.48 400.25C753.93 417.28 804.06 453.14 775.96 465.72Z" fill="#FFC1C7"/>
<g opacity="0.1">
<path opacity="0.1" d="M402.13 459.25C402.13 459.25 405.92 455.7 411.49 451.25C420 444.5 432.61 435.68 442.13 434.32C442.13 434.32 455.05 426.15 463.7 417.7C466.91 414.54 500.53 399.22 529.43 388.15C553.521 378.947 578.699 372.894 604.34 370.14L701.83 390.72C712.539 392.98 722.751 397.16 731.97 403.06C733.523 404.053 735.143 405.103 736.83 406.21C733.68 404.09 730.68 402.12 727.93 400.36C718.71 394.465 708.498 390.288 697.79 388.03L600.3 367.44C574.656 370.223 549.478 376.303 525.39 385.53C496.48 396.6 462.86 411.93 459.66 415.08C451 423.53 438.09 431.7 438.09 431.7C428.57 433.06 415.95 441.88 407.45 448.63C401.88 453.06 398.09 456.63 398.09 456.63L430.89 479.36H431.02L402.13 459.25Z" fill="black"/>
<path opacity="0.1" d="M720.72 423.56C719.492 422.561 718.149 421.711 716.72 421.03C717.62 423.41 729 452.89 748.41 464.21C730.71 450.92 720.72 423.56 720.72 423.56Z" fill="black"/>
</g>
<path d="M651.65 568.01C651.526 568.527 651.376 569.038 651.2 569.54C651.12 569.8 651.01 570.06 650.92 570.31C650.666 570.935 650.379 571.546 650.06 572.14C649.93 572.41 649.78 572.68 649.65 572.94C649.618 573 649.581 573.056 649.54 573.11C649.4 573.37 649.26 573.61 649.11 573.85C648.11 575.55 646.95 577.17 645.84 578.85C645.47 579.39 645.1 579.94 644.75 580.5C644.687 580.614 644.617 580.725 644.54 580.83C644.35 581.14 644.15 581.47 643.97 581.83C643.79 582.19 643.65 582.37 643.51 582.64C643.37 582.91 643.35 582.92 643.28 583.06L642.85 583.89C642.349 584.932 641.95 586.021 641.66 587.14C640.12 593.49 642.84 600 645.05 606.14C649.51 618.6 651.97 632.54 647.75 644.98C647.65 645.27 647.55 645.57 647.44 645.87C647.33 646.17 647.14 646.66 646.98 647.05C646.74 647.65 646.47 648.24 646.17 648.83C643.89 653.27 639.98 657.26 635.17 656.83C628.56 656.25 625.35 648.15 619.33 645.39C614.1 642.99 607.49 644.95 602.56 641.99C602.971 640.642 603.531 639.344 604.23 638.12C605.12 636.48 606.23 634.91 607.23 633.35C608.908 631.046 610.254 628.518 611.23 625.84C611.422 625.243 611.579 624.635 611.7 624.02C611.706 623.974 611.706 623.927 611.7 623.88C611.75 623.57 611.81 623.28 611.85 622.97C611.89 622.66 611.93 622.38 611.96 622.06C611.965 622.007 611.965 621.953 611.96 621.9C611.96 621.55 611.96 621.2 612.03 620.84C612.04 617.461 611.705 614.091 611.03 610.78C609.783 603.26 608.53 595.74 607.27 588.22C606.35 582.72 605.45 576.96 607.15 571.65C607.28 571.27 607.42 570.89 607.56 570.52C607.7 570.15 607.87 569.77 608.04 569.41C609.022 567.364 610.18 565.406 611.5 563.56C614.673 558.893 618.077 554.377 621.71 550.01C624.17 547.01 626.81 544.01 627.71 540.27C627.807 539.909 627.881 539.541 627.93 539.17C628.51 535.56 627.49 531.96 626.29 528.35C626.137 527.93 625.997 527.51 625.87 527.09C625.45 525.85 625.03 524.6 624.67 523.33C624.55 522.92 624.44 522.5 624.33 522.08C624.117 521.239 623.947 520.388 623.82 519.53C623.687 518.683 623.613 517.827 623.6 516.97C623.6 516.57 623.6 516.16 623.6 515.76C623.6 515.36 623.6 515.16 623.68 514.85C623.76 514.54 623.77 514.21 623.82 513.85C623.87 513.49 623.9 513.37 623.95 513.13C624 512.89 624.1 512.4 624.2 512.05C624.257 511.762 624.334 511.478 624.43 511.2C624.48 510.97 624.55 510.74 624.61 510.52L624.87 509.72L625.28 508.56C625.41 508.18 625.56 507.79 625.71 507.41C626.46 505.41 627.32 503.41 628.07 501.49C628.492 500.38 628.856 499.248 629.16 498.1C629.16 497.89 629.27 497.66 629.32 497.44C629.382 497.219 629.432 496.996 629.47 496.77C629.54 496.493 629.593 496.213 629.63 495.93C629.7 495.56 629.77 495.17 629.81 494.79C629.85 494.41 629.89 494.02 629.92 493.63C629.95 493.24 629.92 492.86 629.92 492.48C629.937 491.125 629.745 489.776 629.35 488.48C629.201 487.951 629.007 487.436 628.77 486.94C628.597 486.598 628.406 486.264 628.2 485.94C626.92 483.86 624.93 482.27 623.77 480.1C623.086 478.768 622.742 477.287 622.77 475.79C622.766 475.382 622.793 474.974 622.85 474.57C622.91 474.156 623.004 473.748 623.13 473.35C623.171 473.19 623.225 473.032 623.29 472.88C623.363 472.713 623.433 472.553 623.5 472.4C623.598 472.2 623.708 472.006 623.83 471.82C623.93 471.69 624.02 471.55 624.12 471.43C625.18 470.09 626.88 469.43 629.21 470.11L629.78 470.3C631.112 470.728 632.399 471.287 633.62 471.97C637.33 474.085 640.489 477.045 642.84 480.61C646.94 486.79 648.69 494.27 649.2 501.67C649.51 504.823 649.352 508.004 648.73 511.11C648.73 511.24 648.66 511.39 648.64 511.52C648.56 511.82 648.49 512.12 648.39 512.41C647.783 514.225 647.082 516.008 646.29 517.75C645.648 519.195 645.159 520.703 644.83 522.25C643.89 527.39 645.94 532.52 647.6 537.47C649.173 542.169 650.422 546.97 651.34 551.84C652.5 557.21 653.06 562.84 651.65 568.01Z" fill="#6E0526"/>
<g opacity="0.1">
<path opacity="0.1" d="M646.43 517.77C647.227 516.022 647.931 514.232 648.54 512.41C648.67 511.98 648.79 511.55 648.89 511.11C647.869 513.25 647.046 515.48 646.43 517.77Z" fill="black"/>
<path opacity="0.1" d="M628.41 485.94C630.63 489.54 630.41 493.94 629.31 498.17C629.39 497.95 629.48 497.74 629.56 497.52C631.47 492.52 632.56 486.52 629.76 481.9C628.47 479.82 626.47 478.22 625.32 476.06C624.587 474.631 624.243 473.034 624.32 471.43C622.63 473.53 622.51 477.29 624.02 480.11C625.12 482.27 627.12 483.86 628.41 485.94Z" fill="black"/>
<path opacity="0.1" d="M643.06 583.14C643.01 583.36 642.97 583.58 642.93 583.81C645.13 579.14 649.01 575.18 650.93 570.34C651.334 569.325 651.652 568.278 651.88 567.21C649.31 572.72 644.44 577.19 643.06 583.14Z" fill="black"/>
<path opacity="0.1" d="M648.33 643.05C646.27 648.13 641.98 653.3 636.51 652.82C629.9 652.25 626.7 644.15 620.67 641.38C615.55 639.03 609.11 640.85 604.22 638.16C603.525 639.386 602.965 640.683 602.55 642.03C607.48 645.03 614.09 643.03 619.32 645.42C625.32 648.19 628.55 656.3 635.16 656.87C640.63 657.34 644.92 652.17 646.98 647.09C647.532 645.719 648.003 644.316 648.39 642.89L648.33 643.05Z" fill="black"/>
<path opacity="0.1" d="M611.11 610.82C611.84 615.2 612.56 619.75 611.7 624.06C612.036 623.339 612.326 622.597 612.57 621.84C614.11 617.01 613.29 611.78 612.46 606.78C611.213 599.26 609.96 591.737 608.7 584.21C607.89 579.32 607.09 574.21 608.12 569.44C607.778 570.171 607.481 570.923 607.23 571.69C605.53 577 606.44 582.75 607.35 588.25C608.61 595.783 609.863 603.307 611.11 610.82Z" fill="black"/>
<path opacity="0.1" d="M629.17 536.27C631.1 528.53 625.17 520.94 625.06 512.97C625.077 511.116 625.342 509.273 625.85 507.49C624.543 510.503 623.82 513.737 623.72 517.02C623.79 524.62 629.2 531.87 628.03 539.25C628.52 538.302 628.902 537.303 629.17 536.27V536.27Z" fill="black"/>
</g>
<path d="M845.16 648.24C833.93 685.53 808.76 699.91 808.76 699.91C808.76 699.91 781.35 725.08 775.5 738.14C769.65 751.2 752.14 747.58 744.96 738.14C737.78 728.7 715.3 732.31 715.3 732.31L681.14 735C681.14 735 619.24 743.21 598.46 728.83C577.68 714.45 563.86 714.34 563.86 714.34C563.86 714.34 547.68 721.52 529.27 722.43C520.524 723.013 511.834 724.243 503.27 726.11C498.5 727.11 494.33 728.11 491.34 728.82C488.35 729.53 486.57 730.06 486.57 730.06L440.81 725.45L397.59 721.08L374.23 717.92L368.1 704.58L362.2 691.76L360.2 687.38L363 641.57H436.7C436.7 641.57 513.56 645.57 523.43 645.57H525.67C525.67 645.57 537.96 640.65 558.02 652.75C560.578 654.184 563.254 655.396 566.02 656.37C597.9 668.28 687.47 683.76 687.47 683.76L745.47 680.16C745.47 680.16 778.08 668.28 796.47 660.45C802.6 657.83 807.16 655.66 808.38 654.55C813.25 650.04 856.39 610.94 845.16 648.24Z" fill="#FFC1C7"/>
<path opacity="0.1" d="M388.33 686.6L391.88 699.24L379.74 705.82L368.11 704.54L362.21 691.72L360.21 687.34L363.01 641.53H436.66C421.29 642.91 388.33 686.6 388.33 686.6Z" fill="black"/>
<path d="M386.98 686.6L390.53 699.24L378.4 705.82L347.73 702.45L331.21 689.14C304.21 645.33 271.56 645.14 271.56 645.14C271.56 645.14 275.61 639.23 275.44 633.84C275.27 628.45 281.38 614.63 281.38 614.63L281.96 614.35C284.02 613.35 291.01 609.89 291.45 609.74C291.45 609.74 430.12 632.15 432.82 633C433.517 633.289 434.088 633.818 434.43 634.49C436 636.95 436.7 641.49 436.7 641.49C422.06 640.14 386.98 686.6 386.98 686.6Z" fill="#565988"/>
<path d="M550.84 499.5C546.766 499.415 542.691 499.672 538.66 500.27C531.95 501.36 525.52 503.91 528.37 509.84C533.76 521.07 499.61 540.84 499.61 540.84L451.97 571.4L422.31 526.46L437.6 490.06L480.28 468.49L503.66 457.27C503.66 457.27 512.92 460.64 521.06 460.45C524.82 460.37 528.35 459.53 530.62 457.27C537.8 450.08 550.84 499.5 550.84 499.5Z" fill="#FFC1C7"/>
<path opacity="0.1" d="M550.84 499.5C546.766 499.415 542.691 499.672 538.66 500.27C533.115 496.376 528.592 491.202 525.472 485.188C522.353 479.173 520.729 472.495 520.74 465.72C520.735 463.958 520.842 462.198 521.06 460.45C524.82 460.37 528.35 459.53 530.62 457.27C537.8 450.08 550.84 499.5 550.84 499.5Z" fill="black"/>
<path d="M607.9 465.72C607.901 471.267 606.81 476.76 604.688 481.885C602.567 487.011 599.457 491.668 595.535 495.591C591.614 499.514 586.958 502.627 581.834 504.751C576.709 506.875 571.217 507.969 565.67 507.97C563.713 507.971 561.758 507.834 559.82 507.56C549.217 506.09 539.568 500.65 532.822 492.339C526.077 484.028 522.738 473.466 523.481 462.788C524.224 452.11 528.993 442.112 536.825 434.815C544.656 427.519 554.966 423.467 565.67 423.48C567.287 423.484 568.902 423.574 570.51 423.75C580.804 424.944 590.301 429.879 597.194 437.617C604.088 445.355 607.898 455.357 607.9 465.72V465.72Z" fill="#FFC1C7"/>
<path opacity="0.1" d="M796.63 661.27C796.63 666.63 768.14 677.52 743.57 685.92C726.336 691.666 708.217 694.297 690.06 693.69C688.592 693.614 687.121 693.746 685.69 694.08C678.95 695.87 591.33 675.2 591.33 675.2C591.33 675.2 573.44 666.9 566.04 656.35C597.92 668.26 687.49 683.74 687.49 683.74L745.49 680.14C745.49 680.14 778.1 668.26 796.49 660.43C796.613 660.692 796.661 660.983 796.63 661.27V661.27Z" fill="black"/>
<path d="M532.41 513.98C532.41 513.98 538.7 530.51 546.79 534.55C554.88 538.59 571.05 554.77 569.71 575.89C569.71 575.89 567.01 581.74 575.55 593.89C584.09 606.04 604.76 632.53 604.76 632.53C604.76 632.53 646.99 647.36 660.47 656.35H660.52C671.119 657.872 681.536 660.469 691.61 664.1C697.37 666.1 704.42 668.03 710.8 668.03C724.73 668.03 796.63 649.16 796.63 658.59C796.63 663.96 768.14 674.85 743.56 683.25C726.327 688.982 708.211 691.603 690.06 690.99C688.592 690.919 687.122 691.051 685.69 691.38C678.95 693.17 591.32 672.5 591.32 672.5C591.32 672.5 572.85 663.97 565.66 653.14C558.47 642.31 540.06 628.47 540.06 628.47C540.06 628.47 519.84 594.32 518.06 586.23C518.06 586.23 507.73 580.39 480.76 589.37C453.79 598.35 474.89 569.14 474.89 569.14L505 534.14L532.41 513.98Z" fill="#FFC1C7"/>
<path opacity="0.1" d="M540.95 526.47L531.56 503.63C522.812 509.184 514.665 515.632 507.25 522.87C496.01 534.1 488.37 540.87 482.98 542.19C477.59 543.51 459.17 552.89 451.53 533.61C443.89 514.33 447.03 501.3 454.22 495.01C461.41 488.72 510.06 459.14 510.06 459.14L503.67 458.65C503.67 458.65 459.19 474.22 445.26 467.11C445.26 467.11 420.54 471.24 415.15 462.25C409.76 453.26 404.67 451.84 404.67 451.84L372.01 495.95L383.7 593.46H413.8L446.15 580.88L489.29 577.28C489.29 577.28 505.47 562 507.72 554.81C509.97 547.62 527.06 524.22 540.95 526.47Z" fill="black"/>
<path d="M540.95 525.14L531.56 502.3C522.812 507.854 514.665 514.302 507.25 521.54C496.01 532.78 488.37 539.54 482.98 540.86C477.59 542.18 459.17 551.56 451.53 532.28C443.89 513 447.03 499.97 454.22 493.68C461.41 487.39 510.06 459.14 510.06 459.14L503.67 457.31C503.67 457.31 459.19 472.87 445.26 465.76C445.26 465.76 420.54 469.89 415.15 460.9C409.76 451.91 404.67 450.49 404.67 450.49L372.01 494.6L383.7 592.11H413.8L446.15 579.53L489.29 575.93C489.29 575.93 505.47 560.66 507.72 553.47C509.97 546.28 527.06 522.87 540.95 525.14Z" fill="#565988"/>
<path opacity="0.1" d="M434.43 634.51C433.91 636.99 433.49 638.58 433.49 638.58C433.49 638.58 431.64 637.9 408.9 642.29C386.16 646.68 363.57 642.29 363.57 642.29C350.363 640.759 337.291 638.221 324.47 634.7C304.93 629.14 279.31 622.56 281.47 615.7C281.61 615.3 281.75 614.85 281.92 614.41C283.98 613.41 290.97 609.95 291.41 609.8C291.41 609.8 430.08 632.21 432.78 633.06C433.485 633.331 434.07 633.846 434.43 634.51V634.51Z" fill="black"/>
<path opacity="0.1" d="M531.56 503.63L539.36 521.26C539.36 521.26 527.36 514.89 512.02 541.01C496.68 567.13 494.66 570.84 494.66 570.84C494.66 570.84 483.88 578.2 486.58 587.58C486.58 587.58 454.64 598.58 433.58 591.31C433.58 591.31 428.86 605.55 429.37 615.16C429.685 620.291 429.711 625.436 429.45 630.57C429.45 630.57 435.45 626.02 412.69 630.41C389.93 634.8 367.36 633.52 367.36 633.52C354.942 631.494 342.649 628.767 330.54 625.35C310.99 619.79 280.66 621.22 282.85 614.35C285.04 607.48 292.29 594.47 292.29 594.47C292.29 594.47 297.51 591.47 297.29 588.57C297.07 585.67 306.9 577.28 306.9 577.28C306.9 577.28 312.96 572.23 312.12 568.01C311.28 563.79 318.02 556.89 318.02 556.89L330.83 531.79C330.83 531.79 341.61 508.36 349.03 507.35C356.45 506.34 370.09 484.77 370.09 484.77C370.09 484.77 394.35 465.23 394.52 461.18C394.69 457.13 406.65 449.89 406.65 449.89C406.65 449.89 408.58 466.43 424.65 467.11C440.72 467.79 461.95 467.11 461.95 467.11L503.64 457.31C503.64 457.31 485.38 473.82 481.16 475C476.94 476.18 464.26 485.28 457.8 487C451.34 488.72 438.21 497.54 438.72 510.14C439.23 522.74 443.61 529.14 443.61 529.14C443.61 529.14 456.75 554.14 469.89 551.14C469.89 551.14 484.57 551.93 490.45 543.22C496.33 534.51 531.56 503.63 531.56 503.63Z" fill="black"/>
<path opacity="0.1" d="M505 455.92L503.86 456.79L502.55 457.79L480.29 468.48L449.74 477.03L430.41 479.27L397.61 456.54C397.61 456.54 401.4 453 406.97 448.54C407.87 452.54 411.54 463.78 424.68 464.33C440.73 465.02 461.98 464.33 461.98 464.33L504.16 456.04L505 455.92Z" fill="black"/>
<path d="M531.56 502.28L539.36 521.28C539.36 521.28 526.01 513.57 510.67 539.69C495.33 565.81 493.32 569.51 493.32 569.51C493.32 569.51 483.88 578.22 486.58 587.6C486.58 587.6 457.42 602.37 436.36 595.12C436.36 595.12 435.86 603.89 436.36 613.49C436.86 623.09 433.5 635.9 433.5 635.9C433.5 635.9 431.64 635.23 408.89 639.61C386.14 643.99 363.57 639.61 363.57 639.61C350.362 638.085 337.291 635.551 324.47 632.03C304.93 626.47 279.31 619.89 281.47 613.03C283.63 606.17 290.91 593.14 290.91 593.14C290.91 593.14 296.13 590.14 295.97 587.24C295.81 584.34 305.57 575.95 305.57 575.95C305.57 575.95 311.64 570.95 310.79 566.69C309.94 562.43 316.69 555.56 316.69 555.56L329.5 530.46C329.5 530.46 340.28 507.03 347.7 506.02C355.12 505.01 368.76 483.44 368.76 483.44C368.76 483.44 393.06 463.84 393.22 459.79C393.38 455.74 405.36 448.5 405.36 448.5C405.36 448.5 407.28 465.04 423.36 465.72C439.44 466.4 460.67 465.72 460.67 465.72L503.67 457.27C503.67 457.27 484.07 472.43 479.86 473.61C475.65 474.79 462.95 483.89 456.49 485.61C450.03 487.33 436.89 496.23 437.39 508.87C437.89 521.51 442.28 527.87 442.28 527.87C442.28 527.87 455.42 552.81 468.57 549.78C468.57 549.78 483.24 550.56 489.12 541.86C495 533.16 531.56 502.28 531.56 502.28Z" fill="#E8F4FF"/>
<path opacity="0.1" d="M400.81 563.42C400.81 563.42 417.32 594.09 424.9 597.42C432.48 600.75 430.97 595.06 430.97 595.06C430.97 595.06 403.17 570.14 400.81 563.42Z" fill="black"/>
<path opacity="0.1" d="M368.96 586.68C368.96 586.68 385.14 612.46 397.1 612.46L368.96 586.68Z" fill="black"/>
<path opacity="0.1" d="M333.4 554.83C333.4 554.83 352.28 614.48 386.99 619.2C386.99 619.2 341.66 585.84 333.4 554.83Z" fill="black"/>
<path opacity="0.1" d="M336.77 606.39C336.77 606.39 367.95 631.16 386.99 627.46C386.99 627.46 354.47 621.9 336.77 606.39Z" fill="black"/>
<path opacity="0.1" d="M313.63 648.89C313.63 648.89 344.8 673.66 363.85 669.95C363.85 669.95 331.32 664.39 313.63 648.89Z" fill="black"/>
<path opacity="0.1" d="M321.78 662.95C321.78 662.95 352.95 687.72 371.99 684.02C371.99 684.02 339.47 678.46 321.78 662.95Z" fill="black"/>
<path opacity="0.1" d="M326.49 640.14C326.49 640.14 357.66 664.88 376.7 661.14C376.7 661.14 344.18 655.61 326.49 640.14Z" fill="black"/>
<path opacity="0.1" d="M470.06 493.49L450.52 518.6L453.21 523.65L470.06 493.49Z" fill="black"/>
<path opacity="0.1" d="M607.9 465.72C607.901 471.267 606.81 476.76 604.688 481.885C602.567 487.011 599.457 491.668 595.535 495.591C591.614 499.514 586.958 502.627 581.834 504.751C576.709 506.875 571.217 507.969 565.67 507.97C563.713 507.971 561.758 507.834 559.82 507.56C560.443 506.849 560.965 506.055 561.37 505.2C562.62 501.71 557.37 498.07 559.02 494.73C559.87 492.95 562.16 492.5 564.13 492.45C566.1 492.4 568.29 492.45 569.72 491.09C571.37 489.5 571.14 486.88 571.56 484.63C572.22 481.21 574.62 478.36 577.23 476.03C579.84 473.7 582.76 471.69 585.01 469.03C588.46 464.93 590.08 459.57 590.51 454.23C590.79 450.78 590.51 447.11 588.69 444.23C586.69 441.14 583.26 439.4 580.12 437.5C577.199 435.884 574.656 433.665 572.66 430.99C571.38 429.11 570.1 426.18 570.51 423.8C580.796 424.993 590.285 429.921 597.178 437.649C604.07 445.376 607.886 455.365 607.9 465.72V465.72Z" fill="black"/>
<path d="M631.06 467.79C630.895 468.491 630.628 469.165 630.27 469.79C630.17 469.97 630.05 470.16 629.94 470.35L629.33 471.28C628.369 472.482 627.732 473.911 627.48 475.43C627.36 477.28 628.37 478.97 629.03 480.73L629.14 481.04C629.23 481.289 629.307 481.543 629.37 481.8C629.778 483.539 629.641 485.361 628.98 487.02V487.02C628.257 488.871 627.188 490.568 625.83 492.02C623.28 494.77 620.07 496.85 617.5 499.57C615.58 501.57 614.03 503.94 612.13 505.96C607.63 510.72 601.33 513.45 594.92 514.75C589.902 515.654 584.808 516.066 579.71 515.98H575.36C574.679 516.021 573.997 515.915 573.36 515.67C572.625 515.177 571.991 514.549 571.49 513.82C568.87 510.82 564.49 510.25 560.49 509.91C560.448 509.529 560.485 509.143 560.599 508.776C560.712 508.41 560.9 508.071 561.15 507.78C561.797 507.013 562.348 506.17 562.79 505.27C564.05 501.77 558.79 498.14 560.45 494.78C560.603 494.464 560.814 494.18 561.07 493.94C561.238 493.772 561.422 493.621 561.62 493.49C562.822 492.815 564.181 492.47 565.56 492.49C566.3 492.49 567.07 492.49 567.82 492.4C569.01 492.353 570.151 491.91 571.06 491.14V491.14C572.71 489.57 572.48 486.94 572.9 484.7C573.56 481.26 575.96 478.42 578.57 476.1C581.18 473.78 584.1 471.76 586.35 469.1C589.8 465.01 591.42 459.63 591.85 454.31C592.13 450.86 591.85 447.18 590.03 444.31C588.29 441.61 585.43 439.94 582.64 438.31L581.46 437.61C579.293 436.36 577.305 434.823 575.55 433.04C575.005 432.376 574.507 431.674 574.06 430.94C572.81 429.1 571.57 426.27 571.88 423.94C571.892 423.784 571.919 423.63 571.96 423.48C572.55 420.91 575.09 420.88 577.5 420.56C578.15 420.48 578.79 420.41 579.44 420.37C580.399 420.315 581.361 420.315 582.32 420.37C586.429 420.524 590.447 421.626 594.06 423.59C595.4 424.32 596.68 425.17 598.06 425.8C601.34 427.27 605.06 427.46 608.44 428.54C615.28 430.68 620.59 436.28 623.96 442.6C627.33 448.92 629.01 455.97 630.66 462.93C631.15 464.501 631.286 466.16 631.06 467.79V467.79Z" fill="#6E0526"/>
<path opacity="0.1" d="M503.28 726.07C503.071 726.98 502.734 727.855 502.28 728.67C502.28 728.67 497.82 728.83 491.28 728.78C482.35 728.71 469.59 728.25 459.28 726.43C453.132 725.544 446.917 725.21 440.71 725.43L397.49 721.06L374.13 717.9L362.13 691.74C369.07 692.12 375.05 691.85 375.05 691.85C388.32 679.27 400.67 681.29 407.41 686.75C414.15 692.21 426.74 696.56 427.63 696.56C428.23 696.56 448.1 696.98 460.88 697.24C470.78 697.387 480.489 699.985 489.14 704.8C504.06 713.14 504.28 721.86 503.28 726.07Z" fill="black"/>
<path d="M281.37 641.54L271.56 645.14C271.56 645.14 244.38 626.44 204.61 635.2C164.84 643.96 167.54 667.33 167.54 667.33C167.54 667.33 169.11 695.97 180.54 705.8C191.97 715.63 199.19 716.08 205.7 723.5C212.21 730.92 245.92 734.28 245.92 734.28C245.92 734.28 312.65 737.65 348.6 734.28C384.55 730.91 400.78 730.91 400.78 730.91C400.78 730.91 440.26 725.97 458.01 729.11C475.76 732.25 500.93 731.36 500.93 731.36C500.93 731.36 508.35 719.08 487.84 707.47C479.191 702.649 469.481 700.051 459.58 699.91C446.81 699.64 426.94 699.23 426.33 699.23C425.43 699.23 412.85 694.88 406.11 689.42C399.37 683.96 387.02 681.93 373.76 694.51C373.76 694.51 344.33 695.86 340.28 688.45C336.23 681.04 315.34 657.78 315.34 657.78L281.37 641.54Z" fill="#FFC1C7"/>
<path opacity="0.1" d="M330.2 685.68C330.2 685.68 329.98 689.75 339.08 689.08C347.5 688.45 314.14 658.41 314.14 658.41L280.14 642.16L270.33 645.77C270.33 645.77 303.24 641.87 330.2 685.68Z" fill="black"/>
<path d="M331.55 684.33C331.55 684.33 331.33 688.4 340.43 687.73C348.85 687.11 315.49 657.06 315.49 657.06L281.49 640.81L271.67 644.42C271.67 644.42 304.59 640.52 331.55 684.33Z" fill="#565988"/>
<path opacity="0.1" d="M234.94 656.55C234.94 656.55 244.6 651.61 258.76 657.79C263.816 659.967 269.023 661.775 274.34 663.2C282.866 665.502 291.051 668.921 298.68 673.37C308.54 679.1 321.92 685.98 329.36 685.98" stroke="black" stroke-miterlimit="10"/>
<path opacity="0.1" d="M578.06 515.9C577.379 515.947 576.695 515.841 576.06 515.59C575.321 515.103 574.685 514.474 574.19 513.74C571.57 510.74 567.14 510.17 563.19 509.84C562.87 508.1 564.88 506.84 565.48 505.2C566.75 501.7 561.48 498.07 563.14 494.72C564 492.95 566.29 492.5 568.26 492.45C570.23 492.4 572.42 492.45 573.84 491.08C575.49 489.5 575.26 486.87 575.69 484.63C576.34 481.2 578.74 478.35 581.35 476.03C583.96 473.71 586.89 471.69 589.14 469.03C592.58 464.94 594.2 459.57 594.64 454.24C594.92 450.78 594.64 447.11 592.81 444.19C590.81 441.11 587.38 439.37 584.24 437.46C581.319 435.844 578.776 433.625 576.78 430.95C575.46 429.01 574.12 425.95 574.68 423.5C575.24 421.05 577.82 420.9 580.23 420.58C580.94 420.48 581.64 420.42 582.36 420.38C580.747 420.307 579.131 420.374 577.53 420.58C575.12 420.9 572.53 420.93 571.98 423.5C571.43 426.07 572.76 429.01 574.09 430.95C576.086 433.625 578.629 435.844 581.55 437.46C584.6 439.35 588.06 441.14 590.06 444.14C591.93 447.06 592.17 450.73 591.89 454.19C591.45 459.52 589.89 464.89 586.39 468.98C584.14 471.66 581.22 473.67 578.61 475.98C576 478.29 573.61 481.15 572.94 484.58C572.51 486.82 572.74 489.45 571.1 491.03C569.68 492.39 567.48 492.35 565.51 492.4C563.54 492.45 561.25 492.9 560.39 494.67C558.77 498.02 564 501.67 562.74 505.15C562.13 506.81 560.13 508.05 560.44 509.79C564.44 510.12 568.86 510.66 571.44 513.69C571.93 514.428 572.566 515.058 573.31 515.54C573.945 515.793 574.629 515.899 575.31 515.85C576.76 515.85 578.22 515.85 579.68 515.85L578.06 515.9Z" fill="black"/>
<path d="M629.55 488.53C629.95 487.25 630.4 485.82 630.84 484.3C632.133 480.278 633.112 476.163 633.77 471.99C632.549 471.307 631.262 470.748 629.93 470.32C630.04 470.13 630.16 469.94 630.26 469.76L629.36 470.13C629.36 470.13 629.36 470.55 629.36 471.25C629.29 473.15 629.15 477.17 629.06 480.7C629.06 480.76 629.06 480.81 629.06 480.86C628.99 483.65 628.95 486.12 629.06 487L629.55 488.53Z" fill="#565988"/>
<path opacity="0.1" d="M917.6 710.64C941.635 710.64 961.12 707.963 961.12 704.66C961.12 701.357 941.635 698.68 917.6 698.68C893.565 698.68 874.08 701.357 874.08 704.66C874.08 707.963 893.565 710.64 917.6 710.64Z" fill="#6C63FF"/>
<path d="M935.25 697.21C937.08 695.51 938.79 693.51 939.32 691.07C939.85 688.63 938.8 685.7 936.47 684.81C933.86 683.81 931.07 685.63 928.96 687.45C926.85 689.27 924.42 691.37 921.65 690.98C923.069 689.687 924.128 688.048 924.726 686.224C925.323 684.4 925.439 682.452 925.06 680.57C924.93 679.784 924.584 679.05 924.06 678.45C922.61 676.9 919.98 677.57 918.25 678.79C912.73 682.67 911.19 690.17 911.16 696.92C910.6 694.48 911.07 691.92 911.06 689.45C911.05 686.98 910.36 684.18 908.25 682.84C906.936 682.136 905.46 681.791 903.97 681.84C901.49 681.75 898.73 681.99 897.03 683.84C894.93 686.09 895.47 689.84 897.31 692.36C899.15 694.88 901.92 696.36 904.49 698.11C906.545 699.339 908.298 701.013 909.62 703.01C909.772 703.288 909.9 703.579 910 703.88H925.56C929.08 702.11 932.34 699.866 935.25 697.21Z" fill="#1E5631"/>
<path opacity="0.1" d="M1056.75 736.31C1080.79 736.31 1100.27 733.633 1100.27 730.33C1100.27 727.027 1080.79 724.35 1056.75 724.35C1032.71 724.35 1013.23 727.027 1013.23 730.33C1013.23 733.633 1032.71 736.31 1056.75 736.31Z" fill="#6C63FF"/>
<path d="M1074.4 722.88C1076.23 721.18 1077.94 719.18 1078.47 716.74C1079 714.3 1077.95 711.37 1075.62 710.48C1073.01 709.48 1070.22 711.29 1068.11 713.12C1066 714.95 1063.57 717.04 1060.8 716.65C1062.22 715.358 1063.29 713.72 1063.89 711.893C1064.5 710.067 1064.62 708.116 1064.24 706.23C1064.11 705.448 1063.76 704.718 1063.24 704.12C1061.79 702.57 1059.16 703.23 1057.43 704.46C1051.91 708.34 1050.37 715.84 1050.34 722.58C1049.78 720.15 1050.25 717.58 1050.24 715.12C1050.23 712.66 1049.54 709.85 1047.43 708.51C1046.12 707.805 1044.64 707.46 1043.15 707.51C1040.67 707.42 1037.91 707.67 1036.21 709.51C1034.11 711.76 1034.65 715.51 1036.49 718.03C1038.33 720.55 1041.1 722.03 1043.67 723.78C1045.73 725.006 1047.48 726.681 1048.8 728.68C1048.96 728.956 1049.08 729.248 1049.18 729.55H1064.74C1068.25 727.774 1071.5 725.531 1074.4 722.88V722.88Z" fill="#1E5631"/>
<path opacity="0.1" d="M969.7 790.28C993.735 790.28 1013.22 787.603 1013.22 784.3C1013.22 780.997 993.735 778.32 969.7 778.32C945.665 778.32 926.18 780.997 926.18 784.3C926.18 787.603 945.665 790.28 969.7 790.28Z" fill="#6C63FF"/>
<path d="M987.35 776.85C989.18 775.15 990.89 773.15 991.42 770.71C991.95 768.27 990.91 765.35 988.58 764.46C985.96 763.46 983.17 765.27 981.06 767.09C978.95 768.91 976.52 771.01 973.75 770.62C975.174 769.33 976.239 767.693 976.842 765.868C977.445 764.044 977.565 762.095 977.19 760.21C977.06 759.424 976.714 758.69 976.19 758.09C974.74 756.54 972.12 757.21 970.38 758.43C964.86 762.31 963.32 769.81 963.29 776.56C962.73 774.12 963.2 771.56 963.19 769.09C963.18 766.62 962.49 763.82 960.38 762.48C959.07 761.776 957.597 761.431 956.11 761.48C953.62 761.39 950.86 761.64 949.17 763.48C947.06 765.74 947.61 769.48 949.44 772C951.27 774.52 954.06 776 956.62 777.75C958.677 778.977 960.43 780.652 961.75 782.65C961.911 782.924 962.038 783.216 962.13 783.52H977.69C981.199 781.748 984.45 779.504 987.35 776.85V776.85Z" fill="#1E5631"/>
<path opacity="0.1" d="M87.05 700.88C111.085 700.88 130.57 698.203 130.57 694.9C130.57 691.597 111.085 688.92 87.05 688.92C63.0146 688.92 43.53 691.597 43.53 694.9C43.53 698.203 63.0146 700.88 87.05 700.88Z" fill="#6C63FF"/>
<path d="M104.69 687.45C106.52 685.75 108.24 683.75 108.76 681.31C109.28 678.87 108.25 675.94 105.92 675.05C103.31 674.05 100.52 675.86 98.3999 677.69C96.2799 679.52 93.8599 681.61 91.0899 681.22C92.5163 679.93 93.5831 678.291 94.1861 676.464C94.7891 674.638 94.9076 672.686 94.5299 670.8C94.3941 670.019 94.0485 669.29 93.5299 668.69C92.0799 667.14 89.4499 667.8 87.7099 669.03C82.1899 672.91 80.6499 680.41 80.6199 687.15C80.0699 684.72 80.5399 682.15 80.5199 679.69C80.4999 677.23 79.8199 674.42 77.7199 673.08C76.4059 672.376 74.9297 672.031 73.4399 672.08C70.9599 671.99 68.1899 672.24 66.4999 674.08C64.3899 676.33 64.9399 680.08 66.7699 682.6C68.5999 685.12 71.3899 686.6 73.9599 688.35C76.0169 689.576 77.7705 691.251 79.0899 693.25C79.2423 693.528 79.3695 693.819 79.4699 694.12H95.0599C98.5566 692.342 101.796 690.098 104.69 687.45V687.45Z" fill="#1E5631"/>
<path opacity="0.1" d="M43.52 785.69C67.5554 785.69 87.04 783.013 87.04 779.71C87.04 776.407 67.5554 773.73 43.52 773.73C19.4846 773.73 0 776.407 0 779.71C0 783.013 19.4846 785.69 43.52 785.69Z" fill="#6C63FF"/>
<path d="M61.17 772.26C63 770.56 64.71 768.56 65.24 766.12C65.77 763.68 64.7299 760.75 62.3999 759.86C59.7799 758.86 56.99 760.67 54.88 762.5C52.77 764.33 50.34 766.42 47.57 766.03C49.0036 764.744 50.0789 763.107 50.6906 761.281C51.3023 759.454 51.4296 757.5 51.06 755.61C50.9276 754.828 50.5815 754.098 50.06 753.5C48.61 751.95 45.99 752.61 44.25 753.84C38.73 757.72 37.1899 765.22 37.1599 771.97C36.5999 769.53 37.07 766.97 37.06 764.5C37.05 762.03 36.36 759.23 34.25 757.89C32.9413 757.182 31.467 756.837 29.9799 756.89C27.4899 756.79 24.73 757.04 23.04 758.89C20.93 761.14 21.48 764.89 23.31 767.41C25.14 769.93 27.93 771.41 30.49 773.16C32.5491 774.384 34.3032 776.059 35.6199 778.06C35.7807 778.334 35.9083 778.626 36 778.93H51.5499C55.0431 777.151 58.2792 774.908 61.17 772.26V772.26Z" fill="#1E5631"/>
</g>
<defs>
<linearGradient id="paint0_linear" x1="507.26" y1="749.75" x2="507.26" y2="364.23" gradientUnits="userSpaceOnUse">
<stop stop-color="#808080" stop-opacity="0.25"/>
<stop offset="0.54" stop-color="#808080" stop-opacity="0.12"/>
<stop offset="1" stop-color="#808080" stop-opacity="0.1"/>
</linearGradient>
<clipPath id="clip0">
<rect width="1134.12" height="790.27" fill="white"/>
</clipPath>
</defs>
</svg>
