<svg width="389" height="134" viewBox="0 0 389 134" fill="none" xmlns="http://www.w3.org/2000/svg">
<path d="M52.4219 53C52.4219 53.1432 52.3324 53.3044 52.1533 53.4834C51.6878 53.9131 51.1149 54.3786 50.4346 54.8799C49.79 55.3812 49.0918 55.8288 48.3398 56.2227C47.5879 56.6523 46.8359 57.0104 46.084 57.2969C45.332 57.5833 44.6338 57.7266 43.9893 57.7266C42.8434 57.7266 41.9482 57.4401 41.3037 56.8672C40.6592 56.2943 40.1579 55.5781 39.7998 54.7188C39.4775 53.8594 39.2627 52.9284 39.1553 51.9258C39.0837 50.9232 39.0479 50.0101 39.0479 49.1865C39.0479 47.6826 39.1553 46.0713 39.3701 44.3525C39.6208 42.6338 39.9251 40.915 40.2832 39.1963C40.6771 37.4417 41.1068 35.723 41.5723 34.04C42.0378 32.3571 42.4854 30.7816 42.915 29.3135C41.7692 29.5999 40.6055 29.8148 39.4238 29.958C38.278 30.0654 37.1143 30.1549 35.9326 30.2266C34.7868 30.2624 33.623 30.2803 32.4414 30.2803C31.2956 30.2803 30.1318 30.2982 28.9502 30.334C26.4795 30.4414 24.0625 30.9248 21.6992 31.7842C20.8757 34.5771 19.9626 37.3701 18.96 40.1631C17.9574 42.9202 16.6325 45.5342 14.9854 48.0049C14.3408 48.9717 13.571 49.9027 12.6758 50.7979C11.8164 51.693 10.8496 52.4629 9.77539 53.1074C8.73698 53.7878 7.62695 54.3249 6.44531 54.7188C5.29948 55.1126 4.11784 55.3096 2.90039 55.3096C2.68555 55.3096 2.50651 55.2021 2.36328 54.9873C2.25586 54.8083 2.20215 54.6292 2.20215 54.4502C2.20215 54.0205 2.39909 53.7699 2.79297 53.6982C3.50911 53.5192 4.18945 53.3581 4.83398 53.2148C5.47852 53.0716 6.15885 52.8389 6.875 52.5166C8.48633 51.7288 9.88281 50.6546 11.0645 49.2939C12.2819 47.8975 13.3203 46.3757 14.1797 44.7285C15.0749 43.0456 15.8268 41.3089 16.4355 39.5186C17.0443 37.7282 17.5814 36.0273 18.0469 34.416L18.4229 33.1807C18.3512 33.2165 18.1722 33.306 17.8857 33.4492C17.5993 33.5924 17.3128 33.7357 17.0264 33.8789C16.7399 34.0221 16.4714 34.1654 16.2207 34.3086C15.9701 34.416 15.8268 34.4697 15.791 34.4697C15.5404 34.4697 15.3076 34.3802 15.0928 34.2012C14.9137 33.9863 14.8242 33.7715 14.8242 33.5566C14.8242 33.306 15.0033 32.9837 15.3613 32.5898C15.7552 32.1602 16.2028 31.7484 16.7041 31.3545C17.2412 30.9606 17.7604 30.6025 18.2617 30.2803C18.763 29.958 19.139 29.7432 19.3896 29.6357C19.9268 27.4873 20.4818 25.3568 21.0547 23.2441C21.6276 21.0957 22.3796 19.001 23.3105 16.96C22.3438 17.5687 21.3411 18.1416 20.3027 18.6787C19.3001 19.18 18.3154 19.7529 17.3486 20.3975C16.6683 20.863 15.9701 21.3643 15.2539 21.9014C14.5736 22.4385 13.929 23.0114 13.3203 23.6201C12.7116 24.2288 12.1566 24.8913 11.6553 25.6074C11.154 26.3236 10.7601 27.0755 10.4736 27.8633C10.2946 28.3646 10.1872 28.7764 10.1514 29.0986C10.1514 29.4209 10.0977 29.7969 9.99023 30.2266C9.91862 30.4056 9.8112 30.5488 9.66797 30.6562C9.52474 30.7279 9.36361 30.7637 9.18457 30.7637C9.00553 30.7637 8.8265 30.71 8.64746 30.6025C8.50423 30.4951 8.41471 30.3519 8.37891 30.1729V30.2266C8.37891 30.0833 8.361 29.958 8.3252 29.8506C8.3252 29.7074 8.3252 29.5641 8.3252 29.4209C8.3252 27.3441 8.93392 25.4463 10.1514 23.7275C11.3688 21.973 12.8727 20.3975 14.6631 19.001C16.4535 17.6045 18.3691 16.3691 20.4102 15.2949C22.4512 14.1849 24.2773 13.236 25.8887 12.4482C25.9603 12.4124 26.0319 12.3766 26.1035 12.3408C26.1751 12.305 26.2467 12.2871 26.3184 12.2871C26.569 12.2871 26.7839 12.3766 26.9629 12.5557C27.1777 12.7347 27.2852 12.9495 27.2852 13.2002V13.3076C26.9987 14.1312 26.7122 14.9368 26.4258 15.7246C26.1751 16.4766 25.9066 17.2643 25.6201 18.0879C25.083 19.8066 24.5817 21.5254 24.1162 23.2441C23.6507 24.9629 23.1673 26.6816 22.666 28.4004C23.8477 28.0781 25.0293 27.8633 26.2109 27.7559C27.4284 27.6484 28.6458 27.5947 29.8633 27.5947C31.0449 27.5947 32.2266 27.6305 33.4082 27.7021C34.5898 27.738 35.7715 27.7559 36.9531 27.7559C38.0632 27.7559 39.1553 27.7201 40.2295 27.6484C41.3395 27.5768 42.4316 27.4157 43.5059 27.165C44.0788 25.3747 44.6875 23.6201 45.332 21.9014C45.9766 20.1468 46.7106 18.4102 47.5342 16.6914C47.8206 16.1185 48.1071 15.5277 48.3936 14.9189C48.68 14.3102 49.0023 13.7552 49.3604 13.2539C49.5036 13.0391 49.7184 12.9316 50.0049 12.9316C50.2197 12.9316 50.4167 13.0033 50.5957 13.1465C50.8105 13.2897 50.918 13.5046 50.918 13.791C50.918 13.8626 50.8105 14.2207 50.5957 14.8652C50.4167 15.474 50.1839 16.2438 49.8975 17.1748C49.611 18.07 49.2887 19.0726 48.9307 20.1826C48.5726 21.2568 48.2324 22.2773 47.9102 23.2441C47.5879 24.2109 47.3014 25.0703 47.0508 25.8223C46.8001 26.5742 46.639 27.0755 46.5674 27.3262C46.5674 27.362 46.5674 27.3978 46.5674 27.4336C46.6032 27.4694 46.6211 27.5052 46.6211 27.541C46.6211 27.7559 46.5316 27.917 46.3525 28.0244C45.8154 29.7074 45.2604 31.4977 44.6875 33.3955C44.1146 35.2575 43.5954 37.1553 43.1299 39.0889C42.6644 41.0225 42.2884 42.9561 42.002 44.8896C41.7155 46.7874 41.5723 48.6136 41.5723 50.3682C41.5723 50.7979 41.5902 51.3171 41.626 51.9258C41.6618 52.5345 41.7692 53.1074 41.9482 53.6445C42.1273 54.2174 42.3779 54.6829 42.7002 55.041C43.0583 55.4349 43.5596 55.6318 44.2041 55.6318C44.8128 55.6318 45.5111 55.4349 46.2988 55.041C47.0866 54.6829 47.8564 54.2891 48.6084 53.8594C49.3604 53.4297 50.0049 53.0358 50.542 52.6777C51.1149 52.2839 51.4551 52.0869 51.5625 52.0869C51.7773 52.0869 51.9743 52.1943 52.1533 52.4092C52.3324 52.5882 52.4219 52.7852 52.4219 53ZM75.249 44.6211C74.318 46.5189 73.3512 48.2197 72.3486 49.7236C71.346 51.1917 70.0391 52.624 68.4277 54.0205C67.64 54.7367 66.7448 55.0947 65.7422 55.0947C65.2051 55.0947 64.6859 54.9336 64.1846 54.6113C63.7191 54.3249 63.3968 53.9131 63.2178 53.376C63.1462 53.1969 63.0924 52.9463 63.0566 52.624C63.0566 52.3018 63.0387 51.9616 63.0029 51.6035C63.0029 51.2454 63.0029 50.9053 63.0029 50.583C63.0387 50.2249 63.0566 49.9385 63.0566 49.7236C61.8034 51.2275 60.3174 52.4987 58.5986 53.5371C56.9157 54.6113 55.0537 55.1484 53.0127 55.1484C52.9053 55.1484 52.7441 55.1126 52.5293 55.041C52.3503 54.9694 52.207 54.9157 52.0996 54.8799C51.276 54.486 50.6494 53.8594 50.2197 53C49.8258 52.1406 49.6289 51.2812 49.6289 50.4219C49.6289 49.2402 49.7721 48.0765 50.0586 46.9307C50.3809 45.749 50.7926 44.6211 51.2939 43.5469C51.8311 42.4368 52.4398 41.3805 53.1201 40.3779C53.8005 39.3753 54.5166 38.4264 55.2686 37.5312C57.2021 35.1322 59.4222 33.0553 61.9287 31.3008C64.4352 29.5104 67.1566 28.0781 70.0928 27.0039C70.1286 26.9681 70.2002 26.9502 70.3076 26.9502C70.5583 26.9502 70.7373 27.0397 70.8447 27.2188C70.988 27.3978 71.0596 27.5947 71.0596 27.8096C71.0596 28.1318 70.9342 28.3467 70.6836 28.4541C70.0749 28.7764 69.4661 29.0807 68.8574 29.3672C68.2845 29.6178 67.7116 29.9043 67.1387 30.2266C63.1641 32.5182 59.8161 35.4544 57.0947 39.0352C56.5576 39.7513 56.0026 40.557 55.4297 41.4521C54.8568 42.3473 54.3376 43.2783 53.8721 44.2451C53.4066 45.1761 53.0127 46.1429 52.6904 47.1455C52.404 48.1481 52.2607 49.1149 52.2607 50.0459C52.2607 50.1891 52.2786 50.404 52.3145 50.6904C52.3503 50.9411 52.404 51.2096 52.4756 51.4961C52.5472 51.7467 52.6546 51.9795 52.7979 52.1943C52.9769 52.3734 53.1738 52.4629 53.3887 52.4629C54.4271 52.4629 55.4297 52.1943 56.3965 51.6572C57.3991 51.1201 58.3301 50.4398 59.1895 49.6162C60.0488 48.7926 60.8187 47.9154 61.499 46.9844C62.1794 46.0534 62.7344 45.1761 63.1641 44.3525C63.9876 42.8486 64.7217 41.3447 65.3662 39.8408C66.0107 38.3011 66.6553 36.7614 67.2998 35.2217C67.5505 34.5771 67.8369 33.8252 68.1592 32.9658C68.5173 32.1064 68.8574 31.3724 69.1797 30.7637C69.3229 30.513 69.5557 30.3877 69.8779 30.3877C70.1286 30.3877 70.3434 30.4593 70.5225 30.6025C70.7015 30.7458 70.791 30.9427 70.791 31.1934L70.7373 31.3008C70.4508 32.5898 70.1286 33.8968 69.7705 35.2217C69.4124 36.5107 69.0186 37.7819 68.5889 39.0352C68.4098 39.5365 68.195 40.0915 67.9443 40.7002C67.6937 41.3089 67.4967 41.8281 67.3535 42.2578C67.2819 42.5085 67.2282 42.7591 67.1924 43.0098C67.1924 43.2604 67.1745 43.5111 67.1387 43.7617C67.0312 44.3346 66.9059 44.9076 66.7627 45.4805C66.6553 46.0176 66.5299 46.5726 66.3867 47.1455C66.2077 47.8617 66.0465 48.5957 65.9033 49.3477C65.7959 50.0638 65.7422 50.7979 65.7422 51.5498C65.7422 51.7288 65.7422 51.89 65.7422 52.0332C65.7422 52.1764 65.7601 52.3197 65.7959 52.4629C66.0465 52.4629 66.333 52.3555 66.6553 52.1406C67.0133 51.9258 67.3714 51.6751 67.7295 51.3887C68.0876 51.0664 68.4098 50.7441 68.6963 50.4219C69.0186 50.0996 69.2692 49.849 69.4482 49.6699C70.5225 48.5241 71.543 47.2529 72.5098 45.8564C72.7604 45.57 72.9753 45.2656 73.1543 44.9434C73.3691 44.5853 73.6019 44.263 73.8525 43.9766C73.96 43.7975 74.1211 43.708 74.3359 43.708C74.5866 43.708 74.8014 43.7975 74.9805 43.9766C75.1595 44.1556 75.249 44.3704 75.249 44.6211ZM96.626 33.9326C96.626 36.2243 96.2142 38.4443 95.3906 40.5928C94.6029 42.7054 93.5824 44.7285 92.3291 46.6621C91.7204 47.5573 91.0579 48.4346 90.3418 49.2939C89.6615 50.1175 88.8916 50.8516 88.0322 51.4961C87.2087 52.1406 86.2956 52.6598 85.293 53.0537C84.3262 53.4476 83.2699 53.6445 82.124 53.6445C81.9808 53.6445 81.748 53.6266 81.4258 53.5908C81.1393 53.5908 80.9424 53.5729 80.835 53.5371C80.262 53.3939 79.7428 53.0895 79.2773 52.624C78.8118 52.1585 78.4717 51.6572 78.2568 51.1201C77.8271 52.266 77.2721 53.6982 76.5918 55.417C75.9115 57.1715 75.1237 59.0156 74.2285 60.9492C73.3333 62.8828 72.3486 64.8164 71.2744 66.75C70.1644 68.7194 69.0007 70.474 67.7832 72.0137C66.5299 73.5892 65.223 74.8604 63.8623 75.8271C62.4658 76.7939 61.0514 77.2773 59.6191 77.2773C58.6165 77.2773 57.7214 77.0804 56.9336 76.6865C56.1458 76.3285 55.4476 75.8271 54.8389 75.1826C54.1943 74.5739 53.6214 73.8757 53.1201 73.0879C52.6188 72.3359 52.1533 71.5661 51.7236 70.7783C51.652 70.6351 51.6162 70.5277 51.6162 70.4561C51.6162 70.2412 51.7236 70.0443 51.9385 69.8652C52.1175 69.722 52.2965 69.6504 52.4756 69.6504C52.7262 69.6504 52.9232 69.7578 53.0664 69.9727C53.2454 70.2591 53.4245 70.5277 53.6035 70.7783C53.7826 71.029 53.9616 71.2975 54.1406 71.584C54.7493 72.4434 55.4834 73.2669 56.3428 74.0547C57.2021 74.8424 58.2048 75.2363 59.3506 75.2363C60.389 75.2363 61.4274 74.8604 62.4658 74.1084C63.4684 73.3564 64.4531 72.3717 65.4199 71.1543C66.3867 69.9368 67.2998 68.5762 68.1592 67.0723C69.0186 65.6042 69.8063 64.1361 70.5225 62.668C71.2386 61.1999 71.8831 59.8034 72.4561 58.4785C72.9932 57.1895 73.4229 56.151 73.7451 55.3633C74.9984 52.1764 76.1084 48.9717 77.0752 45.749C78.042 42.5264 78.9551 39.25 79.8145 35.9199C80.1009 34.8099 80.3695 33.7178 80.6201 32.6436C80.9066 31.5693 81.193 30.4772 81.4795 29.3672C81.6227 28.9017 81.7301 28.4362 81.8018 27.9707C81.9092 27.4694 82.0524 26.986 82.2314 26.5205C82.3747 26.1624 82.6253 25.9834 82.9834 25.9834C83.234 25.9834 83.4489 26.055 83.6279 26.1982C83.807 26.3057 83.8965 26.4847 83.8965 26.7354C83.8965 27.1292 83.8786 27.5589 83.8428 28.0244C83.807 28.4899 83.7533 28.9733 83.6816 29.4746C83.8249 29.403 83.9502 29.3493 84.0576 29.3135C84.165 29.2419 84.2725 29.1702 84.3799 29.0986C85.3467 28.5973 86.2598 28.1855 87.1191 27.8633C88.0143 27.5052 88.999 27.2367 90.0732 27.0576C90.2523 27.0218 90.4134 27.0039 90.5566 27.0039C90.7357 26.9681 90.9147 26.9502 91.0938 26.9502C91.7741 26.9502 92.4186 27.0934 93.0273 27.3799C93.6361 27.6305 94.1732 27.9886 94.6387 28.4541C95.14 28.8838 95.5518 29.403 95.874 30.0117C96.1963 30.5846 96.4111 31.1934 96.5186 31.8379C96.5544 32.196 96.5723 32.554 96.5723 32.9121C96.6081 33.2344 96.626 33.5745 96.626 33.9326ZM94.209 33.5029C94.209 32.2855 93.9583 31.2471 93.457 30.3877C92.9557 29.4925 92.0247 29.0449 90.6641 29.0449C89.9837 29.0449 89.2497 29.1702 88.4619 29.4209C87.6742 29.6357 86.9401 29.8864 86.2598 30.1729C85.5794 30.4593 84.9707 30.7279 84.4336 30.9785C83.9323 31.2292 83.61 31.3545 83.4668 31.3545C83.252 32.8226 82.9834 34.2907 82.6611 35.7588C82.3747 37.2269 82.0882 38.498 81.8018 39.5723C81.6585 40.181 81.4795 40.8076 81.2646 41.4521C81.0856 42.0609 80.9424 42.6696 80.835 43.2783C80.7275 43.8512 80.6559 44.5495 80.6201 45.373C80.5843 46.1966 80.5664 46.9128 80.5664 47.5215C80.5664 47.7363 80.5664 48.0228 80.5664 48.3809C80.5664 48.7031 80.5843 49.0254 80.6201 49.3477C80.6917 49.6699 80.7812 49.9564 80.8887 50.207C81.0319 50.4577 81.2467 50.6188 81.5332 50.6904C81.6406 50.7262 81.748 50.7441 81.8555 50.7441C81.9987 50.7441 82.124 50.7441 82.2314 50.7441C83.0192 50.7441 83.7891 50.5651 84.541 50.207C85.3288 49.849 86.0628 49.4014 86.7432 48.8643C87.4235 48.3271 88.0501 47.7363 88.623 47.0918C89.196 46.4115 89.6794 45.7669 90.0732 45.1582C91.1833 43.4395 92.1501 41.5775 92.9736 39.5723C93.7972 37.5671 94.209 35.5439 94.209 33.5029ZM119.077 33.9326C119.077 36.2243 118.665 38.4443 117.842 40.5928C117.054 42.7054 116.034 44.7285 114.78 46.6621C114.172 47.5573 113.509 48.4346 112.793 49.2939C112.113 50.1175 111.343 50.8516 110.483 51.4961C109.66 52.1406 108.747 52.6598 107.744 53.0537C106.777 53.4476 105.721 53.6445 104.575 53.6445C104.432 53.6445 104.199 53.6266 103.877 53.5908C103.59 53.5908 103.394 53.5729 103.286 53.5371C102.713 53.3939 102.194 53.0895 101.729 52.624C101.263 52.1585 100.923 51.6572 100.708 51.1201C100.278 52.266 99.7233 53.6982 99.043 55.417C98.3626 57.1715 97.5749 59.0156 96.6797 60.9492C95.7845 62.8828 94.7998 64.8164 93.7256 66.75C92.6156 68.7194 91.4518 70.474 90.2344 72.0137C88.9811 73.5892 87.6742 74.8604 86.3135 75.8271C84.917 76.7939 83.5026 77.2773 82.0703 77.2773C81.0677 77.2773 80.1725 77.0804 79.3848 76.6865C78.597 76.3285 77.8988 75.8271 77.29 75.1826C76.6455 74.5739 76.0726 73.8757 75.5713 73.0879C75.07 72.3359 74.6045 71.5661 74.1748 70.7783C74.1032 70.6351 74.0674 70.5277 74.0674 70.4561C74.0674 70.2412 74.1748 70.0443 74.3896 69.8652C74.5687 69.722 74.7477 69.6504 74.9268 69.6504C75.1774 69.6504 75.3743 69.7578 75.5176 69.9727C75.6966 70.2591 75.8757 70.5277 76.0547 70.7783C76.2337 71.029 76.4128 71.2975 76.5918 71.584C77.2005 72.4434 77.9346 73.2669 78.7939 74.0547C79.6533 74.8424 80.6559 75.2363 81.8018 75.2363C82.8402 75.2363 83.8786 74.8604 84.917 74.1084C85.9196 73.3564 86.9043 72.3717 87.8711 71.1543C88.8379 69.9368 89.751 68.5762 90.6104 67.0723C91.4697 65.6042 92.2575 64.1361 92.9736 62.668C93.6898 61.1999 94.3343 59.8034 94.9072 58.4785C95.4443 57.1895 95.874 56.151 96.1963 55.3633C97.4495 52.1764 98.5596 48.9717 99.5264 45.749C100.493 42.5264 101.406 39.25 102.266 35.9199C102.552 34.8099 102.821 33.7178 103.071 32.6436C103.358 31.5693 103.644 30.4772 103.931 29.3672C104.074 28.9017 104.181 28.4362 104.253 27.9707C104.36 27.4694 104.504 26.986 104.683 26.5205C104.826 26.1624 105.076 25.9834 105.435 25.9834C105.685 25.9834 105.9 26.055 106.079 26.1982C106.258 26.3057 106.348 26.4847 106.348 26.7354C106.348 27.1292 106.33 27.5589 106.294 28.0244C106.258 28.4899 106.204 28.9733 106.133 29.4746C106.276 29.403 106.401 29.3493 106.509 29.3135C106.616 29.2419 106.724 29.1702 106.831 29.0986C107.798 28.5973 108.711 28.1855 109.57 27.8633C110.465 27.5052 111.45 27.2367 112.524 27.0576C112.703 27.0218 112.865 27.0039 113.008 27.0039C113.187 26.9681 113.366 26.9502 113.545 26.9502C114.225 26.9502 114.87 27.0934 115.479 27.3799C116.087 27.6305 116.624 27.9886 117.09 28.4541C117.591 28.8838 118.003 29.403 118.325 30.0117C118.647 30.5846 118.862 31.1934 118.97 31.8379C119.006 32.196 119.023 32.554 119.023 32.9121C119.059 33.2344 119.077 33.5745 119.077 33.9326ZM116.66 33.5029C116.66 32.2855 116.41 31.2471 115.908 30.3877C115.407 29.4925 114.476 29.0449 113.115 29.0449C112.435 29.0449 111.701 29.1702 110.913 29.4209C110.125 29.6357 109.391 29.8864 108.711 30.1729C108.031 30.4593 107.422 30.7279 106.885 30.9785C106.383 31.2292 106.061 31.3545 105.918 31.3545C105.703 32.8226 105.435 34.2907 105.112 35.7588C104.826 37.2269 104.539 38.498 104.253 39.5723C104.11 40.181 103.931 40.8076 103.716 41.4521C103.537 42.0609 103.394 42.6696 103.286 43.2783C103.179 43.8512 103.107 44.5495 103.071 45.373C103.035 46.1966 103.018 46.9128 103.018 47.5215C103.018 47.7363 103.018 48.0228 103.018 48.3809C103.018 48.7031 103.035 49.0254 103.071 49.3477C103.143 49.6699 103.232 49.9564 103.34 50.207C103.483 50.4577 103.698 50.6188 103.984 50.6904C104.092 50.7262 104.199 50.7441 104.307 50.7441C104.45 50.7441 104.575 50.7441 104.683 50.7441C105.47 50.7441 106.24 50.5651 106.992 50.207C107.78 49.849 108.514 49.4014 109.194 48.8643C109.875 48.3271 110.501 47.7363 111.074 47.0918C111.647 46.4115 112.131 45.7669 112.524 45.1582C113.634 43.4395 114.601 41.5775 115.425 39.5723C116.248 37.5671 116.66 35.5439 116.66 33.5029ZM145.879 27.7559C145.879 27.8991 145.861 28.0065 145.825 28.0781C144.465 31.7305 143.014 35.3112 141.475 38.8203C139.935 42.2936 138.485 45.8564 137.124 49.5088C136.444 51.2633 135.835 53.0179 135.298 54.7725C134.797 56.527 134.295 58.3174 133.794 60.1436C133.687 60.5374 133.561 60.8955 133.418 61.2178C133.311 61.5758 133.185 61.9518 133.042 62.3457C132.612 63.6706 132.165 64.9596 131.699 66.2129C131.234 67.502 130.697 68.7552 130.088 69.9727C129.479 71.1901 128.781 72.3359 127.993 73.4102C127.205 74.5202 126.31 75.4691 125.308 76.2568C124.305 77.0804 123.213 77.7249 122.031 78.1904C120.85 78.6917 119.561 78.9424 118.164 78.9424C116.696 78.9424 115.335 78.6738 114.082 78.1367C112.793 77.6354 111.611 76.9372 110.537 76.042C109.463 75.1826 108.514 74.1442 107.69 72.9268C106.831 71.7451 106.079 70.4561 105.435 69.0596C105.363 68.9163 105.327 68.791 105.327 68.6836C105.291 68.3971 105.381 68.1823 105.596 68.0391C105.775 67.9316 105.972 67.8779 106.187 67.8779C106.33 67.8779 106.455 67.9316 106.562 68.0391C106.67 68.1465 106.759 68.2539 106.831 68.3613C107.082 68.7552 107.314 69.167 107.529 69.5967C107.708 70.0622 107.941 70.4919 108.228 70.8857C108.765 71.6377 109.391 72.3538 110.107 73.0342C110.788 73.7503 111.558 74.359 112.417 74.8604C113.241 75.3975 114.118 75.8092 115.049 76.0957C115.98 76.418 116.929 76.5791 117.896 76.5791C119.364 76.5791 120.724 76.221 121.978 75.5049C123.768 74.4307 125.254 72.9447 126.436 71.0469C127.617 69.1491 128.638 67.0544 129.497 64.7627C130.321 62.5426 131.019 60.2689 131.592 57.9414C132.201 55.6497 132.809 53.5013 133.418 51.4961C132.988 51.89 132.469 52.3197 131.86 52.7852C131.252 53.2507 130.625 53.6803 129.98 54.0742C129.336 54.5039 128.674 54.862 127.993 55.1484C127.349 55.4349 126.758 55.5781 126.221 55.5781C125.182 55.5781 124.233 55.238 123.374 54.5576C122.55 53.8773 122.031 52.9642 121.816 51.8184C121.637 51.1022 121.53 50.4398 121.494 49.8311C121.423 48.721 121.458 47.5573 121.602 46.3398C121.781 45.0866 122.013 43.8512 122.3 42.6338C122.622 41.3805 122.98 40.181 123.374 39.0352C123.768 37.8535 124.18 36.7793 124.609 35.8125C125.505 33.7357 126.471 31.6947 127.51 29.6895C127.725 29.2956 127.922 28.8838 128.101 28.4541C128.28 28.0244 128.494 27.6126 128.745 27.2188C128.888 27.0039 129.103 26.8965 129.39 26.8965C129.569 26.8965 129.766 27.0039 129.98 27.2188C130.195 27.3978 130.321 27.5947 130.356 27.8096L130.195 28.6152C129.873 30.1191 129.443 31.5872 128.906 33.0195C128.405 34.4518 127.868 35.8483 127.295 37.209C126.901 38.1758 126.489 39.1963 126.06 40.2705C125.666 41.3089 125.308 42.3652 124.985 43.4395C124.699 44.5137 124.466 45.6058 124.287 46.7158C124.108 47.79 124.054 48.8643 124.126 49.9385C124.162 50.2607 124.198 50.6009 124.233 50.959C124.305 51.3171 124.412 51.6572 124.556 51.9795C124.699 52.266 124.878 52.5166 125.093 52.7314C125.308 52.9105 125.594 53 125.952 53C126.561 53 127.277 52.8031 128.101 52.4092C128.924 51.9795 129.748 51.4961 130.571 50.959C131.395 50.3861 132.165 49.7952 132.881 49.1865C133.633 48.5778 134.242 48.0586 134.707 47.6289C135.638 45.0508 136.641 42.5443 137.715 40.1094C138.789 37.6387 139.953 35.2217 141.206 32.8584C141.707 31.9274 142.209 30.9785 142.71 30.0117C143.211 29.0091 143.748 28.0602 144.321 27.165C144.465 26.9144 144.679 26.7891 144.966 26.7891C145.216 26.7891 145.413 26.8965 145.557 27.1113C145.736 27.2904 145.843 27.5052 145.879 27.7559Z" fill="url(#paint0_linear)"/>
<path d="M192.988 25.2461C192.988 25.4805 192.93 25.6562 192.812 25.7734C191.406 27.8047 190.078 29.8164 188.828 31.8086C187.617 33.7617 186.465 35.7539 185.371 37.7852C184.277 39.8164 183.262 41.9062 182.324 44.0547C181.426 46.1641 180.586 48.3906 179.805 50.7344C179.023 53 178.359 55.3047 177.812 57.6484C177.305 59.9531 176.777 62.2773 176.23 64.6211C175.723 66.9648 175.176 69.2891 174.59 71.5938C174.004 73.9375 173.281 76.2422 172.422 78.5078C171.641 80.5391 170.742 82.4531 169.727 84.25C168.711 86.0859 167.5 87.6875 166.094 89.0547C164.727 90.4609 163.125 91.5547 161.289 92.3359C159.453 93.1562 157.344 93.5664 154.961 93.5664C152.93 93.5664 151.035 93.2344 149.277 92.5703C147.52 91.9453 145.996 91.0273 144.707 89.8164C143.379 88.6445 142.344 87.2188 141.602 85.5391C140.859 83.8594 140.488 81.9844 140.488 79.9141C140.488 77.8047 140.82 75.6758 141.484 73.5273C142.109 71.3789 142.988 69.3086 144.121 67.3164C145.254 65.3633 146.602 63.5664 148.164 61.9258C149.727 60.3242 151.426 59.0156 153.262 58C153.418 57.9219 153.555 57.8828 153.672 57.8828C153.906 57.8828 154.102 57.9609 154.258 58.1172C154.453 58.3125 154.551 58.5273 154.551 58.7617C154.551 59.0742 154.395 59.3281 154.082 59.5234C153.691 59.8359 153.301 60.1094 152.91 60.3438C152.52 60.6172 152.129 60.9102 151.738 61.2227C149.98 62.668 148.477 64.3477 147.227 66.2617C146.016 68.1758 145.02 70.1875 144.238 72.2969C143.848 73.4297 143.535 74.582 143.301 75.7539C143.066 76.9648 142.949 78.1953 142.949 79.4453C142.949 81.2422 143.242 82.8438 143.828 84.25C144.414 85.6562 145.234 86.8281 146.289 87.7656C147.344 88.7422 148.594 89.4844 150.039 89.9922C151.523 90.5 153.145 90.7539 154.902 90.7539C155.801 90.7539 156.68 90.6758 157.539 90.5195C158.438 90.3633 159.316 90.0898 160.176 89.6992C161.543 89.1133 162.773 88.2539 163.867 87.1211C165 85.9883 165.996 84.6797 166.855 83.1953C167.754 81.7109 168.535 80.1094 169.199 78.3906C169.902 76.7109 170.508 75.0117 171.016 73.293C171.523 71.5742 171.953 69.8945 172.305 68.2539C172.695 66.6133 173.027 65.1289 173.301 63.8008C173.77 61.6914 174.238 59.582 174.707 57.4727C175.176 55.3242 175.703 53.1953 176.289 51.0859C175.625 51.9453 174.824 52.8828 173.887 53.8984C172.988 54.875 171.992 55.793 170.898 56.6523C169.844 57.4727 168.73 58.1562 167.559 58.7031C166.387 59.2891 165.215 59.582 164.043 59.582C162.871 59.582 161.914 59.3281 161.172 58.8203C160.469 58.3516 159.922 57.7461 159.531 57.0039C159.18 56.2227 158.926 55.3633 158.77 54.4258C158.652 53.4883 158.594 52.5508 158.594 51.6133C158.594 50.3633 158.672 49.1523 158.828 47.9805C158.984 46.7695 159.199 45.5781 159.473 44.4062C160.488 39.7969 161.738 35.2852 163.223 30.8711C164.707 26.457 166.562 22.1602 168.789 17.9805C167.656 18.6445 166.504 19.25 165.332 19.7969C164.199 20.3438 163.066 20.9492 161.934 21.6133C160.41 22.5508 158.887 23.6445 157.363 24.8945C155.879 26.1445 154.785 27.6289 154.082 29.3477C153.926 29.7383 153.809 30.1094 153.73 30.4609C153.652 30.8125 153.574 31.1836 153.496 31.5742C153.379 31.9258 153.105 32.1016 152.676 32.1016C152.48 32.1016 152.266 32.0234 152.031 31.8672C151.836 31.7109 151.738 31.5156 151.738 31.2812C151.738 29.9141 151.973 28.6445 152.441 27.4727C152.949 26.2617 153.613 25.1484 154.434 24.1328C155.254 23.1172 156.172 22.1992 157.188 21.3789C158.242 20.5195 159.297 19.7578 160.352 19.0938C162.109 18 163.887 16.9844 165.684 16.0469C167.52 15.0703 169.414 14.2305 171.367 13.5273C171.406 13.4102 171.484 13.3125 171.602 13.2344C171.758 13.1562 171.895 13.1172 172.012 13.1172C172.246 13.1172 172.461 13.2148 172.656 13.4102C172.891 13.5664 173.008 13.7813 173.008 14.0547C173.008 14.1719 172.988 14.25 172.949 14.2891C172.363 15.8906 171.66 17.707 170.84 19.7383C170.059 21.7695 169.238 23.918 168.379 26.1836C167.52 28.4102 166.68 30.7148 165.859 33.0977C165.039 35.4414 164.297 37.7461 163.633 40.0117C163.008 42.2383 162.48 44.3867 162.051 46.457C161.66 48.4883 161.465 50.3242 161.465 51.9648C161.465 52.5117 161.465 53.0781 161.465 53.6641C161.504 54.2109 161.602 54.7188 161.758 55.1875C161.953 55.6562 162.227 56.0469 162.578 56.3594C162.969 56.6719 163.516 56.8281 164.219 56.8281C164.727 56.8281 165.215 56.75 165.684 56.5938C166.152 56.4375 166.602 56.2617 167.031 56.0664C168.438 55.3633 169.727 54.5039 170.898 53.4883C172.07 52.4336 173.164 51.3008 174.18 50.0898C175.234 48.8789 176.211 47.6289 177.109 46.3398C178.047 45.0117 178.926 43.7227 179.746 42.4727C179.824 42.3945 179.863 42.3359 179.863 42.2969C180.566 40.8125 181.348 39.2891 182.207 37.7266C183.066 36.125 183.984 34.5625 184.961 33.0391C185.938 31.4766 186.973 29.9922 188.066 28.5859C189.16 27.1406 190.273 25.832 191.406 24.6602C191.602 24.4648 191.836 24.3672 192.109 24.3672C192.344 24.3672 192.539 24.4453 192.695 24.6016C192.891 24.7578 192.988 24.9727 192.988 25.2461ZM214.551 36.9062C214.551 38.3906 214.375 40.0117 214.023 41.7695C213.711 43.5273 213.223 45.2852 212.559 47.043C211.895 48.8008 211.074 50.5195 210.098 52.1992C209.16 53.8398 208.066 55.3047 206.816 56.5938C205.605 57.8828 204.238 58.8984 202.715 59.6406C201.23 60.4219 199.629 60.8125 197.91 60.8125C196.621 60.8125 195.508 60.4609 194.57 59.7578C193.633 59.0938 192.832 58.2344 192.168 57.1797C191.543 56.125 191.074 54.9922 190.762 53.7812C190.449 52.5312 190.293 51.3594 190.293 50.2656C190.293 48.9766 190.469 47.707 190.82 46.457C191.914 42.8633 193.672 39.6602 196.094 36.8477C198.516 34.0352 201.465 31.9258 204.941 30.5195C205.02 30.4805 205.117 30.4609 205.234 30.4609C205.508 30.4609 205.703 30.5586 205.82 30.7539C205.977 30.9492 206.055 31.1641 206.055 31.3984C206.055 31.6719 205.898 31.9062 205.586 32.1016C205.039 32.4141 204.492 32.7266 203.945 33.0391C203.398 33.3125 202.852 33.6641 202.305 34.0938C200.156 35.6562 198.32 37.5898 196.797 39.8945C195.273 42.1992 194.121 44.6211 193.34 47.1602C193.066 47.9805 192.93 48.8984 192.93 49.9141C192.93 50.7344 193.047 51.6133 193.281 52.5508C193.516 53.4883 193.867 54.3672 194.336 55.1875C194.805 55.9688 195.391 56.6328 196.094 57.1797C196.836 57.6875 197.695 57.9414 198.672 57.9414C199.297 57.9414 199.883 57.8242 200.43 57.5898C201.016 57.3555 201.562 57.0625 202.07 56.7109C203.555 55.6562 204.883 54.2891 206.055 52.6094C207.227 50.9297 208.223 49.1328 209.043 47.2188C209.863 45.2656 210.488 43.293 210.918 41.3008C211.348 39.2695 211.562 37.3555 211.562 35.5586V34.8555C211.484 33.8398 211.133 32.9805 210.508 32.2773C209.922 31.5742 209.18 31.0078 208.281 30.5781C208.008 30.4609 207.734 30.3633 207.461 30.2852C207.227 30.207 206.992 30.1094 206.758 29.9922C206.367 29.8359 206.172 29.5625 206.172 29.1719C206.172 28.8984 206.25 28.6641 206.406 28.4688C206.562 28.2734 206.777 28.1953 207.051 28.2344H207.109C207.969 28.3125 208.809 28.5078 209.629 28.8203C210.488 29.1328 211.25 29.5625 211.914 30.1094C212.578 30.6562 213.125 31.3008 213.555 32.043C214.023 32.7852 214.316 33.625 214.434 34.5625C214.512 34.9531 214.551 35.3438 214.551 35.7344C214.551 36.0859 214.551 36.4766 214.551 36.9062ZM239.922 31.2812C239.922 31.3594 239.883 31.4766 239.805 31.6328C239.727 32.2969 239.648 32.9414 239.57 33.5664C239.531 34.1523 239.453 34.7578 239.336 35.3828C239.141 36.6719 238.926 37.9414 238.691 39.1914C238.457 40.4414 238.203 41.6914 237.93 42.9414C236.953 47.4336 235.742 51.8477 234.297 56.1836C232.891 60.5195 231.328 64.8164 229.609 69.0742C228.984 70.5977 228.32 72.1211 227.617 73.6445C226.953 75.207 226.191 76.7109 225.332 78.1562C224.512 79.6406 223.594 81.0469 222.578 82.375C221.562 83.7031 220.41 84.9141 219.121 86.0078C217.324 87.6094 215.254 88.4102 212.91 88.4102C211.66 88.4102 210.449 88.1953 209.277 87.7656C208.105 87.3359 207.012 86.75 205.996 86.0078C204.98 85.3047 204.082 84.4453 203.301 83.4297C202.48 82.4531 201.855 81.3984 201.426 80.2656C201.387 80.2266 201.367 80.1289 201.367 79.9727C201.367 79.7383 201.465 79.543 201.66 79.3867C201.855 79.2305 202.07 79.1523 202.305 79.1523C202.578 79.1523 202.812 79.2891 203.008 79.5625C203.203 79.9141 203.398 80.2656 203.594 80.6172C203.75 80.9688 203.965 81.3008 204.238 81.6133C205.254 82.8633 206.504 83.8984 207.988 84.7188C209.434 85.5781 210.957 86.0078 212.559 86.0078C214.395 86.0078 216.016 85.3633 217.422 84.0742C218.516 83.0977 219.551 81.9062 220.527 80.5C221.504 79.0938 222.422 77.5703 223.281 75.9297C224.18 74.2891 225 72.5703 225.742 70.7734C226.523 68.9766 227.227 67.1797 227.852 65.3828C228.516 63.625 229.121 61.9062 229.668 60.2266C230.215 58.5469 230.723 57.0039 231.191 55.5977C229.785 56.9648 228.262 58.0391 226.621 58.8203C224.98 59.6016 223.164 59.9922 221.172 59.9922C221.133 59.9922 221.074 59.9922 220.996 59.9922C220.918 59.9922 220.859 59.9727 220.82 59.9336C219.922 59.7383 219.16 59.3867 218.535 58.8789C217.949 58.3711 217.461 57.7852 217.07 57.1211C216.719 56.418 216.465 55.6758 216.309 54.8945C216.152 54.0742 216.074 53.2539 216.074 52.4336C216.074 50.0898 216.406 47.7656 217.07 45.4609C217.773 43.1562 218.809 41.0273 220.176 39.0742C221.035 37.9023 222.012 36.7695 223.105 35.6758C224.199 34.543 225.391 33.5664 226.68 32.7461C227.969 31.8867 229.336 31.2031 230.781 30.6953C232.227 30.1484 233.711 29.875 235.234 29.875C235.469 29.875 235.84 29.8945 236.348 29.9336C236.855 29.9727 237.363 30.0508 237.871 30.168C238.418 30.2461 238.887 30.3828 239.277 30.5781C239.707 30.7734 239.922 31.0078 239.922 31.2812ZM237.871 31.9844C237.285 31.8281 236.621 31.75 235.879 31.75C234.512 31.75 233.164 32.0039 231.836 32.5117C230.508 33.0195 229.258 33.7031 228.086 34.5625C226.914 35.3828 225.84 36.3203 224.863 37.375C223.887 38.4297 223.027 39.4844 222.285 40.5391C221.191 42.1797 220.352 43.9961 219.766 45.9883C219.219 47.9805 218.945 49.9727 218.945 51.9648C218.945 52.3945 218.965 52.9023 219.004 53.4883C219.082 54.0742 219.199 54.6406 219.355 55.1875C219.551 55.6953 219.824 56.1445 220.176 56.5352C220.566 56.8867 221.055 57.0625 221.641 57.0625C222.852 57.0625 224.023 56.7695 225.156 56.1836C226.328 55.5977 227.402 54.8555 228.379 53.957C229.355 53.0586 230.215 52.0625 230.957 50.9688C231.738 49.8359 232.363 48.7617 232.832 47.7461C234.004 45.207 234.941 42.6094 235.645 39.9531C236.387 37.2969 237.129 34.6406 237.871 31.9844ZM267.871 48.8594C266.855 50.9297 265.801 52.7852 264.707 54.4258C263.613 56.0273 262.188 57.5898 260.43 59.1133C259.57 59.8945 258.594 60.2852 257.5 60.2852C256.914 60.2852 256.348 60.1094 255.801 59.7578C255.293 59.4453 254.941 58.9961 254.746 58.4102C254.668 58.2148 254.609 57.9414 254.57 57.5898C254.57 57.2383 254.551 56.8672 254.512 56.4766C254.512 56.0859 254.512 55.7148 254.512 55.3633C254.551 54.9727 254.57 54.6602 254.57 54.4258C253.203 56.0664 251.582 57.4531 249.707 58.5859C247.871 59.7578 245.84 60.3438 243.613 60.3438C243.496 60.3438 243.32 60.3047 243.086 60.2266C242.891 60.1484 242.734 60.0898 242.617 60.0508C241.719 59.6211 241.035 58.9375 240.566 58C240.137 57.0625 239.922 56.125 239.922 55.1875C239.922 53.8984 240.078 52.6289 240.391 51.3789C240.742 50.0898 241.191 48.8594 241.738 47.6875C242.324 46.4766 242.988 45.3242 243.73 44.2305C244.473 43.1367 245.254 42.1016 246.074 41.125C248.184 38.5078 250.605 36.2422 253.34 34.3281C256.074 32.375 259.043 30.8125 262.246 29.6406C262.285 29.6016 262.363 29.582 262.48 29.582C262.754 29.582 262.949 29.6797 263.066 29.875C263.223 30.0703 263.301 30.2852 263.301 30.5195C263.301 30.8711 263.164 31.1055 262.891 31.2227C262.227 31.5742 261.562 31.9062 260.898 32.2188C260.273 32.4922 259.648 32.8047 259.023 33.1562C254.688 35.6562 251.035 38.8594 248.066 42.7656C247.48 43.5469 246.875 44.4258 246.25 45.4023C245.625 46.3789 245.059 47.3945 244.551 48.4492C244.043 49.4648 243.613 50.5195 243.262 51.6133C242.949 52.707 242.793 53.7617 242.793 54.7773C242.793 54.9336 242.812 55.168 242.852 55.4805C242.891 55.7539 242.949 56.0469 243.027 56.3594C243.105 56.6328 243.223 56.8867 243.379 57.1211C243.574 57.3164 243.789 57.4141 244.023 57.4141C245.156 57.4141 246.25 57.1211 247.305 56.5352C248.398 55.9492 249.414 55.207 250.352 54.3086C251.289 53.4102 252.129 52.4531 252.871 51.4375C253.613 50.4219 254.219 49.4648 254.688 48.5664C255.586 46.9258 256.387 45.2852 257.09 43.6445C257.793 41.9648 258.496 40.2852 259.199 38.6055C259.473 37.9023 259.785 37.082 260.137 36.1445C260.527 35.207 260.898 34.4062 261.25 33.7422C261.406 33.4688 261.66 33.332 262.012 33.332C262.285 33.332 262.52 33.4102 262.715 33.5664C262.91 33.7227 263.008 33.9375 263.008 34.2109L262.949 34.3281C262.637 35.7344 262.285 37.1602 261.895 38.6055C261.504 40.0117 261.074 41.3984 260.605 42.7656C260.41 43.3125 260.176 43.918 259.902 44.582C259.629 45.2461 259.414 45.8125 259.258 46.2812C259.18 46.5547 259.121 46.8281 259.082 47.1016C259.082 47.375 259.062 47.6484 259.023 47.9219C258.906 48.5469 258.77 49.1719 258.613 49.7969C258.496 50.3828 258.359 50.9883 258.203 51.6133C258.008 52.3945 257.832 53.1953 257.676 54.0156C257.559 54.7969 257.5 55.5977 257.5 56.418C257.5 56.6133 257.5 56.7891 257.5 56.9453C257.5 57.1016 257.52 57.2578 257.559 57.4141C257.832 57.4141 258.145 57.2969 258.496 57.0625C258.887 56.8281 259.277 56.5547 259.668 56.2422C260.059 55.8906 260.41 55.5391 260.723 55.1875C261.074 54.8359 261.348 54.5625 261.543 54.3672C262.715 53.1172 263.828 51.7305 264.883 50.207C265.156 49.8945 265.391 49.5625 265.586 49.2109C265.82 48.8203 266.074 48.4688 266.348 48.1562C266.465 47.9609 266.641 47.8633 266.875 47.8633C267.148 47.8633 267.383 47.9609 267.578 48.1562C267.773 48.3516 267.871 48.5859 267.871 48.8594Z" fill="url(#paint1_linear)"/>
<path d="M75.707 111.365C75.707 111.528 75.6257 111.691 75.4629 111.854C75.0723 112.212 74.5677 112.602 73.9492 113.025C73.3307 113.449 72.6797 113.839 71.9961 114.197C71.3125 114.588 70.6289 114.913 69.9453 115.174C69.2617 115.434 68.6595 115.564 68.1387 115.564C67.4876 115.564 66.9017 115.434 66.3809 115.174C65.8926 114.913 65.4531 114.555 65.0625 114.1C64.6719 113.676 64.3626 113.188 64.1348 112.635C63.9069 112.081 63.7604 111.512 63.6953 110.926C63.6302 110.307 63.5651 109.705 63.5 109.119C63.4349 108.501 63.4023 107.882 63.4023 107.264C63.4023 105.701 63.5651 103.895 63.8906 101.844C64.2161 99.7604 64.623 97.6445 65.1113 95.4961C65.5996 93.3151 66.1367 91.2155 66.7227 89.1973C67.3086 87.1465 67.8783 85.3724 68.4316 83.875C67.6829 85.0794 66.918 86.2676 66.1367 87.4395C65.388 88.6113 64.623 89.7669 63.8418 90.9062C63.1582 91.9479 62.4583 92.9896 61.7422 94.0312C61.026 95.0729 60.2611 96.0983 59.4473 97.1074C58.666 98.1165 57.8197 99.0605 56.9082 99.9395C56.0293 100.818 55.069 101.6 54.0273 102.283C53.9622 102.316 53.8646 102.332 53.7344 102.332C53.5716 102.332 53.4089 102.267 53.2461 102.137C53.0833 102.007 52.9694 101.86 52.9043 101.697L52.8555 101.746C52.8229 101.746 52.8066 101.73 52.8066 101.697C52.8066 101.665 52.7904 101.632 52.7578 101.6C52.4323 100.656 52.1882 99.679 52.0254 98.6699C51.8952 97.6608 51.7975 96.6517 51.7324 95.6426C51.6673 94.666 51.6022 93.6895 51.5371 92.7129C51.5046 91.7363 51.4557 90.7598 51.3906 89.7832C51.2604 88.0254 51.1302 86.2676 51 84.5098C50.9023 82.7194 50.7721 80.929 50.6094 79.1387C49.5026 81.9056 48.4772 84.6888 47.5332 87.4883C46.5892 90.2878 45.5801 93.0872 44.5059 95.8867C43.7246 97.9049 42.862 99.8743 41.918 101.795C40.974 103.715 39.8509 105.538 38.5488 107.264C37.8652 108.143 37.1003 108.956 36.2539 109.705C35.4076 110.454 34.4961 111.105 33.5195 111.658C32.543 112.212 31.5013 112.635 30.3945 112.928C29.3203 113.253 28.2298 113.416 27.123 113.416C26.9603 113.416 26.8138 113.335 26.6836 113.172C26.5534 113.009 26.4883 112.846 26.4883 112.684C26.4883 112.293 26.6673 112.065 27.0254 112C27.709 111.837 28.3438 111.707 28.9297 111.609C29.5482 111.479 30.1829 111.284 30.834 111.023C32.3639 110.34 33.6986 109.396 34.8379 108.191C36.0098 106.987 37.0514 105.652 37.9629 104.188C38.8743 102.723 39.6556 101.193 40.3066 99.5977C40.9902 98.0026 41.6087 96.4727 42.1621 95.0078C42.6504 93.7057 43.1061 92.3874 43.5293 91.0527C43.9525 89.7181 44.3757 88.3997 44.7988 87.0977C45.2546 85.763 45.7266 84.4447 46.2148 83.1426C46.7357 81.8405 47.3379 80.571 48.0215 79.334C47.11 79.8874 46.1823 80.3919 45.2383 80.8477C44.2943 81.2708 43.3665 81.7591 42.4551 82.3125C41.7715 82.7031 41.0879 83.1426 40.4043 83.6309C39.7207 84.0866 39.0697 84.6074 38.4512 85.1934C37.8327 85.7467 37.263 86.349 36.7422 87C36.2539 87.651 35.8633 88.3509 35.5703 89.0996C35.4401 89.4251 35.3424 89.7507 35.2773 90.0762C35.2122 90.3691 35.1309 90.6784 35.0332 91.0039C35.0007 91.1667 34.9193 91.2969 34.7891 91.3945C34.6589 91.4596 34.5286 91.4922 34.3984 91.4922C34.2682 91.4922 34.1055 91.4271 33.9102 91.2969C33.7148 91.1667 33.6172 91.0365 33.6172 90.9062C33.6172 89.7018 33.8288 88.5788 34.252 87.5371C34.6751 86.4954 35.2448 85.5352 35.9609 84.6562C36.6771 83.7448 37.4746 82.9147 38.3535 82.166C39.265 81.4173 40.1927 80.75 41.1367 80.1641C42.6341 79.2201 44.2129 78.3086 45.873 77.4297C47.5332 76.5182 49.1934 75.7858 50.8535 75.2324H50.9512C51.2767 75.2324 51.5208 75.3626 51.6836 75.623C51.7812 75.6882 51.8464 75.7858 51.8789 75.916C51.9115 76.0462 51.8952 76.1602 51.8301 76.2578C52.3835 78.4388 52.8066 80.6523 53.0996 82.8984C53.3926 85.112 53.653 87.3418 53.8809 89.5879C54.0436 91.2155 54.1901 92.8268 54.3203 94.4219C54.4831 95.9844 54.5156 97.5794 54.418 99.207C55.6549 97.5794 56.9082 95.9844 58.1777 94.4219C59.4473 92.8268 60.6517 91.1992 61.791 89.5391C63.0605 87.7161 64.3138 85.9258 65.5508 84.168C66.7878 82.3776 68.0573 80.6035 69.3594 78.8457C69.8151 78.2598 70.2708 77.6576 70.7266 77.0391C71.2148 76.4206 71.7031 75.8346 72.1914 75.2812C72.3216 75.151 72.4681 75.0859 72.6309 75.0859C72.8262 75.0859 73.0378 75.1999 73.2656 75.4277C73.4935 75.623 73.6074 75.8184 73.6074 76.0137V76.1113C72.5983 79.7572 71.4915 83.3379 70.2871 86.8535C69.0827 90.3691 68.0573 93.9824 67.2109 97.6934C66.8203 99.4512 66.4622 101.209 66.1367 102.967C65.8438 104.692 65.6973 106.434 65.6973 108.191C65.6973 108.647 65.7135 109.184 65.7461 109.803C65.7786 110.421 65.8763 111.023 66.0391 111.609C66.2018 112.163 66.446 112.635 66.7715 113.025C67.1296 113.416 67.6341 113.611 68.2852 113.611C68.8711 113.611 69.5221 113.449 70.2383 113.123C70.9544 112.83 71.638 112.488 72.2891 112.098C72.9727 111.707 73.5586 111.365 74.0469 111.072C74.5352 110.747 74.8281 110.584 74.9258 110.584C75.1211 110.584 75.3001 110.665 75.4629 110.828C75.6257 110.991 75.707 111.17 75.707 111.365ZM91.9668 91.6387C91.9668 92.4525 91.7715 93.2663 91.3809 94.0801C90.9902 94.8613 90.4857 95.61 89.8672 96.3262C89.2812 97.0423 88.6302 97.6934 87.9141 98.2793C87.1979 98.8652 86.5306 99.3698 85.9121 99.793C84.9681 100.444 83.9753 101.046 82.9336 101.6C81.9245 102.153 80.8177 102.43 79.6133 102.43C79.3529 102.43 79.0599 102.397 78.7344 102.332C78.4414 102.267 78.2949 102.055 78.2949 101.697C78.2949 101.242 78.5065 100.965 78.9297 100.867C79.0273 100.835 79.1413 100.818 79.2715 100.818C79.4017 100.818 79.5319 100.802 79.6621 100.77C80.0202 100.704 80.362 100.59 80.6875 100.428C81.0456 100.265 81.4036 100.086 81.7617 99.8906C82.3151 99.5326 83.015 99.028 83.8613 98.377C84.7077 97.7259 85.5378 97.0098 86.3516 96.2285C87.1654 95.4473 87.849 94.6497 88.4023 93.8359C88.9883 93.0221 89.2812 92.2572 89.2812 91.541C89.2812 91.0853 89.0371 90.8574 88.5488 90.8574C88.3535 90.8574 88.1582 90.89 87.9629 90.9551C87.7676 91.0202 87.5723 91.0853 87.377 91.1504C85.8145 91.6712 84.3822 92.4688 83.0801 93.543C81.778 94.5846 80.6549 95.8053 79.7109 97.2051C78.7669 98.6048 78.0182 100.102 77.4648 101.697C76.944 103.292 76.6836 104.887 76.6836 106.482C76.6836 107.003 76.7161 107.605 76.7812 108.289C76.8789 108.94 77.0417 109.559 77.2695 110.145C77.5299 110.73 77.8717 111.235 78.2949 111.658C78.7181 112.049 79.2715 112.244 79.9551 112.244C80.2155 112.244 80.4596 112.195 80.6875 112.098C80.9154 112.033 81.1432 111.935 81.3711 111.805C82.25 111.316 83.0638 110.665 83.8125 109.852C84.5612 109.005 85.2285 108.159 85.8145 107.312C85.9772 107.117 86.1237 106.906 86.2539 106.678C86.4167 106.45 86.5794 106.222 86.7422 105.994C86.8398 105.831 87.0026 105.75 87.2305 105.75C87.4258 105.75 87.6048 105.815 87.7676 105.945C87.9629 106.076 88.0605 106.255 88.0605 106.482C88.0605 106.548 88.028 106.645 87.9629 106.775C87.5723 107.492 87.084 108.289 86.498 109.168C85.9121 110.014 85.2611 110.812 84.5449 111.561C83.8288 112.309 83.0475 112.928 82.2012 113.416C81.3874 113.937 80.5247 114.197 79.6133 114.197C78.6042 114.197 77.7578 113.904 77.0742 113.318C76.4232 112.765 75.9023 112.081 75.5117 111.268C75.1211 110.421 74.8444 109.526 74.6816 108.582C74.5189 107.605 74.4375 106.727 74.4375 105.945C74.4375 103.471 74.9583 101.111 76 98.8652C77.0417 96.5866 78.4414 94.5846 80.1992 92.8594C80.7201 92.3385 81.3223 91.8177 82.0059 91.2969C82.6895 90.7435 83.4056 90.2552 84.1543 89.832C84.9355 89.3763 85.7168 89.0182 86.498 88.7578C87.3118 88.4648 88.0931 88.3184 88.8418 88.3184C89.7858 88.3184 90.5345 88.6439 91.0879 89.2949C91.6738 89.9134 91.9668 90.6947 91.9668 91.6387ZM116.869 74.1094C116.869 74.207 116.853 74.2884 116.82 74.3535C115.779 76.86 114.77 79.3665 113.793 81.873C112.849 84.347 111.954 86.8861 111.107 89.4902C111.335 89.5553 111.596 89.653 111.889 89.7832C112.182 89.9134 112.328 90.1087 112.328 90.3691C112.328 90.597 112.263 90.7923 112.133 90.9551C112.003 91.1178 111.824 91.1992 111.596 91.1992C111.465 91.1992 111.303 91.1667 111.107 91.1016C110.945 91.0365 110.798 90.9714 110.668 90.9062C110.18 92.4036 109.691 93.9987 109.203 95.6914C108.715 97.3841 108.259 99.0931 107.836 100.818C107.445 102.544 107.12 104.269 106.859 105.994C106.599 107.687 106.469 109.314 106.469 110.877C106.469 111.007 106.469 111.186 106.469 111.414C106.469 111.609 106.485 111.805 106.518 112C106.55 112.195 106.599 112.358 106.664 112.488C106.762 112.651 106.908 112.732 107.104 112.732C107.396 112.732 107.803 112.505 108.324 112.049C108.878 111.593 109.431 111.072 109.984 110.486C110.538 109.868 111.059 109.282 111.547 108.729C112.068 108.143 112.442 107.736 112.67 107.508C112.768 107.345 112.914 107.264 113.109 107.264C113.305 107.264 113.484 107.345 113.646 107.508C113.809 107.671 113.891 107.85 113.891 108.045C113.891 108.208 113.858 108.322 113.793 108.387C113.142 109.396 112.426 110.34 111.645 111.219C110.863 112.098 110.033 112.928 109.154 113.709C108.503 114.295 107.803 114.588 107.055 114.588C106.404 114.588 105.899 114.409 105.541 114.051C105.183 113.693 104.906 113.253 104.711 112.732C104.548 112.244 104.434 111.707 104.369 111.121C104.337 110.535 104.32 109.998 104.32 109.51C104.32 109.184 104.32 108.875 104.32 108.582C104.353 108.257 104.385 107.947 104.418 107.654C103.995 108.273 103.458 108.973 102.807 109.754C102.156 110.503 101.439 111.219 100.658 111.902C99.9095 112.586 99.112 113.156 98.2656 113.611C97.4518 114.1 96.638 114.344 95.8242 114.344C94.9779 114.344 94.278 114.148 93.7246 113.758C93.2038 113.367 92.7969 112.863 92.5039 112.244C92.2109 111.658 91.9993 111.007 91.8691 110.291C91.7715 109.575 91.7227 108.891 91.7227 108.24C91.7227 106.84 91.8854 105.424 92.2109 103.992C92.569 102.527 93.041 101.111 93.627 99.7441C94.2454 98.3444 94.9616 97.026 95.7754 95.7891C96.5892 94.5195 97.4844 93.3965 98.4609 92.4199C99.6003 91.2806 100.935 90.4017 102.465 89.7832C103.995 89.1322 105.59 88.8066 107.25 88.8066C107.478 88.8066 107.689 88.8066 107.885 88.8066C108.113 88.8066 108.34 88.8229 108.568 88.8555C108.926 87.651 109.333 86.3652 109.789 84.998C110.277 83.6309 110.814 82.2637 111.4 80.8965C111.986 79.5293 112.621 78.2109 113.305 76.9414C114.021 75.6719 114.77 74.5488 115.551 73.5723C115.648 73.4095 115.811 73.3281 116.039 73.3281C116.234 73.3281 116.413 73.4095 116.576 73.5723C116.771 73.7025 116.869 73.8815 116.869 74.1094ZM108.08 90.5156H107.689C105.769 90.4831 104.06 90.9388 102.562 91.8828C101.098 92.7943 99.8118 93.9824 98.7051 95.4473C97.6309 96.8796 96.7357 98.4746 96.0195 100.232C95.3359 101.99 94.8314 103.683 94.5059 105.311C94.3105 106.157 94.2129 107.003 94.2129 107.85C94.2129 108.11 94.2129 108.468 94.2129 108.924C94.2454 109.347 94.3105 109.77 94.4082 110.193C94.5384 110.617 94.7012 110.975 94.8965 111.268C95.1243 111.561 95.4336 111.707 95.8242 111.707C96.3451 111.707 97.0286 111.398 97.875 110.779C98.7539 110.128 99.6328 109.38 100.512 108.533C101.423 107.654 102.286 106.792 103.1 105.945C103.913 105.099 104.516 104.48 104.906 104.09C104.971 104.025 105.036 103.992 105.102 103.992C105.264 101.714 105.639 99.4512 106.225 97.2051C106.843 94.9264 107.462 92.6966 108.08 90.5156ZM126.83 75.623C126.83 75.8184 126.749 76.0462 126.586 76.3066L126.537 76.4531C126.602 76.6484 126.635 76.7949 126.635 76.8926C126.407 77.0553 126.244 77.2344 126.146 77.4297C126.049 77.5924 125.821 77.6738 125.463 77.6738C125.17 77.6738 124.877 77.5599 124.584 77.332C124.291 77.0716 124.145 76.7624 124.145 76.4043C124.145 75.8184 124.193 75.3464 124.291 74.9883C124.421 74.5977 124.861 74.4023 125.609 74.4023C125.902 74.4023 126.179 74.5326 126.439 74.793C126.7 75.0534 126.83 75.3301 126.83 75.623ZM126.488 106.775C126.488 106.938 126.439 107.068 126.342 107.166C125.723 107.915 125.121 108.663 124.535 109.412C123.982 110.128 123.38 110.796 122.729 111.414C122.11 112.033 121.41 112.553 120.629 112.977C119.848 113.432 118.952 113.758 117.943 113.953C117.064 113.562 116.462 113.042 116.137 112.391C115.811 111.772 115.648 111.007 115.648 110.096V108.338C115.648 107.492 115.73 106.613 115.893 105.701C116.088 104.79 116.283 103.911 116.479 103.064C116.771 101.795 117.097 100.428 117.455 98.9629C117.846 97.498 118.285 96.0495 118.773 94.6172C119.294 93.1523 119.88 91.7526 120.531 90.418C121.182 89.0508 121.915 87.8626 122.729 86.8535C122.891 86.6908 123.054 86.6094 123.217 86.6094C123.412 86.6094 123.607 86.6908 123.803 86.8535C123.998 86.9837 124.096 87.1628 124.096 87.3906V87.4883C123.542 89.2135 122.908 91.0365 122.191 92.957C121.508 94.8451 120.84 96.7819 120.189 98.7676C119.571 100.721 119.034 102.674 118.578 104.627C118.155 106.58 117.943 108.468 117.943 110.291C117.943 110.486 117.943 110.763 117.943 111.121C117.976 111.479 118.09 111.707 118.285 111.805C119.001 111.674 119.75 111.3 120.531 110.682C121.345 110.063 122.094 109.412 122.777 108.729C123.493 108.045 124.112 107.426 124.633 106.873C125.154 106.32 125.512 106.043 125.707 106.043C125.87 106.043 126.033 106.124 126.195 106.287C126.391 106.45 126.488 106.613 126.488 106.775ZM142.504 80.0176C142.504 80.0827 142.488 80.1315 142.455 80.1641C142.455 80.1966 142.455 80.2292 142.455 80.2617C141.446 82.5078 140.404 84.7376 139.33 86.9512C138.256 89.1322 137.296 91.3945 136.449 93.7383C136.807 93.7383 137.149 93.7383 137.475 93.7383C137.8 93.7057 138.142 93.6895 138.5 93.6895C138.663 93.6895 138.842 93.6895 139.037 93.6895C139.265 93.6569 139.46 93.6732 139.623 93.7383C139.818 93.7708 139.981 93.8522 140.111 93.9824C140.242 94.0801 140.307 94.2591 140.307 94.5195C140.307 94.8451 140.176 95.0566 139.916 95.1543C139.688 95.2194 139.379 95.3008 138.988 95.3984C138.63 95.4635 138.24 95.5286 137.816 95.5938C137.426 95.6589 137.035 95.724 136.645 95.7891C136.286 95.8216 135.977 95.8542 135.717 95.8867C135.424 96.7331 135.147 97.6771 134.887 98.7188C134.626 99.7279 134.398 100.786 134.203 101.893C134.008 102.967 133.845 104.041 133.715 105.115C133.585 106.157 133.52 107.117 133.52 107.996C133.52 108.224 133.52 108.582 133.52 109.07C133.552 109.526 133.601 109.982 133.666 110.438C133.764 110.893 133.894 111.3 134.057 111.658C134.252 112.016 134.512 112.195 134.838 112.195C135.294 112.195 135.814 111.967 136.4 111.512C136.986 111.056 137.556 110.535 138.109 109.949C138.695 109.331 139.232 108.729 139.721 108.143C140.242 107.524 140.665 107.052 140.99 106.727C141.12 106.596 141.267 106.531 141.43 106.531C141.625 106.531 141.804 106.613 141.967 106.775C142.162 106.938 142.26 107.117 142.26 107.312C142.26 107.41 142.211 107.524 142.113 107.654C141.755 108.175 141.283 108.826 140.697 109.607C140.144 110.356 139.525 111.089 138.842 111.805C138.191 112.488 137.491 113.074 136.742 113.562C136.026 114.051 135.326 114.295 134.643 114.295C133.894 114.295 133.292 114.035 132.836 113.514C132.38 112.993 132.022 112.374 131.762 111.658C131.534 110.91 131.371 110.145 131.273 109.363C131.208 108.549 131.176 107.866 131.176 107.312C131.176 106.531 131.225 105.652 131.322 104.676C131.452 103.699 131.599 102.706 131.762 101.697C131.924 100.688 132.12 99.7116 132.348 98.7676C132.576 97.791 132.787 96.9121 132.982 96.1309C132.722 96.1309 132.462 96.1471 132.201 96.1797C131.973 96.1797 131.729 96.1797 131.469 96.1797C130.785 96.1797 130.085 96.1634 129.369 96.1309C128.653 96.0983 127.953 96.0332 127.27 95.9355C126.586 95.8053 125.919 95.61 125.268 95.3496C124.617 95.0566 124.031 94.666 123.51 94.1777C123.38 94.0801 123.314 93.9336 123.314 93.7383C123.314 93.6732 123.412 93.5104 123.607 93.25C123.803 92.957 123.933 92.8105 123.998 92.8105C125.202 92.8105 126.391 92.9408 127.562 93.2012C128.734 93.4616 129.923 93.6243 131.127 93.6895C131.518 93.722 131.908 93.7383 132.299 93.7383C132.722 93.7383 133.145 93.7383 133.568 93.7383H133.715C134.073 92.6315 134.512 91.4271 135.033 90.125C135.554 88.8229 136.14 87.5371 136.791 86.2676C137.442 84.998 138.126 83.7773 138.842 82.6055C139.59 81.401 140.355 80.3594 141.137 79.4805C141.332 79.3503 141.495 79.2852 141.625 79.2852C141.82 79.2852 142.016 79.3665 142.211 79.5293C142.406 79.6595 142.504 79.8223 142.504 80.0176ZM164.77 104.383C163.923 106.108 163.044 107.654 162.133 109.021C161.221 110.356 160.033 111.658 158.568 112.928C157.852 113.579 157.038 113.904 156.127 113.904C155.639 113.904 155.167 113.758 154.711 113.465C154.288 113.204 153.995 112.83 153.832 112.342C153.767 112.179 153.718 111.951 153.686 111.658C153.686 111.365 153.669 111.056 153.637 110.73C153.637 110.405 153.637 110.096 153.637 109.803C153.669 109.477 153.686 109.217 153.686 109.021C152.546 110.389 151.195 111.544 149.633 112.488C148.103 113.465 146.41 113.953 144.555 113.953C144.457 113.953 144.311 113.921 144.115 113.855C143.952 113.79 143.822 113.742 143.725 113.709C142.976 113.351 142.406 112.781 142.016 112C141.658 111.219 141.479 110.438 141.479 109.656C141.479 108.582 141.609 107.524 141.869 106.482C142.162 105.408 142.536 104.383 142.992 103.406C143.48 102.397 144.034 101.437 144.652 100.525C145.271 99.6139 145.922 98.7513 146.605 97.9375C148.363 95.7565 150.382 93.8685 152.66 92.2734C154.939 90.6458 157.413 89.3438 160.082 88.3672C160.115 88.3346 160.18 88.3184 160.277 88.3184C160.505 88.3184 160.668 88.3997 160.766 88.5625C160.896 88.7253 160.961 88.9043 160.961 89.0996C160.961 89.3926 160.847 89.5879 160.619 89.6855C160.066 89.9785 159.512 90.2552 158.959 90.5156C158.438 90.7435 157.917 91.0039 157.396 91.2969C153.783 93.3802 150.74 96.0495 148.266 99.3047C147.777 99.9557 147.273 100.688 146.752 101.502C146.231 102.316 145.759 103.162 145.336 104.041C144.913 104.887 144.555 105.766 144.262 106.678C144.001 107.589 143.871 108.468 143.871 109.314C143.871 109.445 143.887 109.64 143.92 109.9C143.952 110.128 144.001 110.372 144.066 110.633C144.132 110.861 144.229 111.072 144.359 111.268C144.522 111.43 144.701 111.512 144.896 111.512C145.84 111.512 146.752 111.268 147.631 110.779C148.542 110.291 149.389 109.673 150.17 108.924C150.951 108.175 151.651 107.378 152.27 106.531C152.888 105.685 153.393 104.887 153.783 104.139C154.532 102.771 155.199 101.404 155.785 100.037C156.371 98.6374 156.957 97.2376 157.543 95.8379C157.771 95.252 158.031 94.5684 158.324 93.7871C158.65 93.0059 158.959 92.3385 159.252 91.7852C159.382 91.5573 159.594 91.4434 159.887 91.4434C160.115 91.4434 160.31 91.5085 160.473 91.6387C160.635 91.7689 160.717 91.9479 160.717 92.1758L160.668 92.2734C160.408 93.4453 160.115 94.6335 159.789 95.8379C159.464 97.0098 159.105 98.1654 158.715 99.3047C158.552 99.7604 158.357 100.265 158.129 100.818C157.901 101.372 157.722 101.844 157.592 102.234C157.527 102.462 157.478 102.69 157.445 102.918C157.445 103.146 157.429 103.374 157.396 103.602C157.299 104.122 157.185 104.643 157.055 105.164C156.957 105.652 156.843 106.157 156.713 106.678C156.55 107.329 156.404 107.996 156.273 108.68C156.176 109.331 156.127 109.998 156.127 110.682C156.127 110.844 156.127 110.991 156.127 111.121C156.127 111.251 156.143 111.382 156.176 111.512C156.404 111.512 156.664 111.414 156.957 111.219C157.283 111.023 157.608 110.796 157.934 110.535C158.259 110.242 158.552 109.949 158.812 109.656C159.105 109.363 159.333 109.135 159.496 108.973C160.473 107.931 161.4 106.775 162.279 105.506C162.507 105.245 162.702 104.969 162.865 104.676C163.061 104.35 163.272 104.057 163.5 103.797C163.598 103.634 163.744 103.553 163.939 103.553C164.167 103.553 164.363 103.634 164.525 103.797C164.688 103.96 164.77 104.155 164.77 104.383ZM180.98 80.0176C180.98 80.0827 180.964 80.1315 180.932 80.1641C180.932 80.1966 180.932 80.2292 180.932 80.2617C179.923 82.5078 178.881 84.7376 177.807 86.9512C176.732 89.1322 175.772 91.3945 174.926 93.7383C175.284 93.7383 175.626 93.7383 175.951 93.7383C176.277 93.7057 176.618 93.6895 176.977 93.6895C177.139 93.6895 177.318 93.6895 177.514 93.6895C177.742 93.6569 177.937 93.6732 178.1 93.7383C178.295 93.7708 178.458 93.8522 178.588 93.9824C178.718 94.0801 178.783 94.2591 178.783 94.5195C178.783 94.8451 178.653 95.0566 178.393 95.1543C178.165 95.2194 177.855 95.3008 177.465 95.3984C177.107 95.4635 176.716 95.5286 176.293 95.5938C175.902 95.6589 175.512 95.724 175.121 95.7891C174.763 95.8216 174.454 95.8542 174.193 95.8867C173.9 96.7331 173.624 97.6771 173.363 98.7188C173.103 99.7279 172.875 100.786 172.68 101.893C172.484 102.967 172.322 104.041 172.191 105.115C172.061 106.157 171.996 107.117 171.996 107.996C171.996 108.224 171.996 108.582 171.996 109.07C172.029 109.526 172.077 109.982 172.143 110.438C172.24 110.893 172.37 111.3 172.533 111.658C172.729 112.016 172.989 112.195 173.314 112.195C173.77 112.195 174.291 111.967 174.877 111.512C175.463 111.056 176.033 110.535 176.586 109.949C177.172 109.331 177.709 108.729 178.197 108.143C178.718 107.524 179.141 107.052 179.467 106.727C179.597 106.596 179.743 106.531 179.906 106.531C180.102 106.531 180.281 106.613 180.443 106.775C180.639 106.938 180.736 107.117 180.736 107.312C180.736 107.41 180.688 107.524 180.59 107.654C180.232 108.175 179.76 108.826 179.174 109.607C178.62 110.356 178.002 111.089 177.318 111.805C176.667 112.488 175.967 113.074 175.219 113.562C174.503 114.051 173.803 114.295 173.119 114.295C172.37 114.295 171.768 114.035 171.312 113.514C170.857 112.993 170.499 112.374 170.238 111.658C170.01 110.91 169.848 110.145 169.75 109.363C169.685 108.549 169.652 107.866 169.652 107.312C169.652 106.531 169.701 105.652 169.799 104.676C169.929 103.699 170.076 102.706 170.238 101.697C170.401 100.688 170.596 99.7116 170.824 98.7676C171.052 97.791 171.264 96.9121 171.459 96.1309C171.199 96.1309 170.938 96.1471 170.678 96.1797C170.45 96.1797 170.206 96.1797 169.945 96.1797C169.262 96.1797 168.562 96.1634 167.846 96.1309C167.13 96.0983 166.43 96.0332 165.746 95.9355C165.062 95.8053 164.395 95.61 163.744 95.3496C163.093 95.0566 162.507 94.666 161.986 94.1777C161.856 94.0801 161.791 93.9336 161.791 93.7383C161.791 93.6732 161.889 93.5104 162.084 93.25C162.279 92.957 162.41 92.8105 162.475 92.8105C163.679 92.8105 164.867 92.9408 166.039 93.2012C167.211 93.4616 168.399 93.6243 169.604 93.6895C169.994 93.722 170.385 93.7383 170.775 93.7383C171.199 93.7383 171.622 93.7383 172.045 93.7383H172.191C172.549 92.6315 172.989 91.4271 173.51 90.125C174.031 88.8229 174.617 87.5371 175.268 86.2676C175.919 84.998 176.602 83.7773 177.318 82.6055C178.067 81.401 178.832 80.3594 179.613 79.4805C179.809 79.3503 179.971 79.2852 180.102 79.2852C180.297 79.2852 180.492 79.3665 180.688 79.5293C180.883 79.6595 180.98 79.8223 180.98 80.0176ZM194.408 75.623C194.408 75.8184 194.327 76.0462 194.164 76.3066L194.115 76.4531C194.18 76.6484 194.213 76.7949 194.213 76.8926C193.985 77.0553 193.822 77.2344 193.725 77.4297C193.627 77.5924 193.399 77.6738 193.041 77.6738C192.748 77.6738 192.455 77.5599 192.162 77.332C191.869 77.0716 191.723 76.7624 191.723 76.4043C191.723 75.8184 191.771 75.3464 191.869 74.9883C191.999 74.5977 192.439 74.4023 193.188 74.4023C193.48 74.4023 193.757 74.5326 194.018 74.793C194.278 75.0534 194.408 75.3301 194.408 75.623ZM194.066 106.775C194.066 106.938 194.018 107.068 193.92 107.166C193.301 107.915 192.699 108.663 192.113 109.412C191.56 110.128 190.958 110.796 190.307 111.414C189.688 112.033 188.988 112.553 188.207 112.977C187.426 113.432 186.531 113.758 185.521 113.953C184.643 113.562 184.04 113.042 183.715 112.391C183.389 111.772 183.227 111.007 183.227 110.096V108.338C183.227 107.492 183.308 106.613 183.471 105.701C183.666 104.79 183.861 103.911 184.057 103.064C184.35 101.795 184.675 100.428 185.033 98.9629C185.424 97.498 185.863 96.0495 186.352 94.6172C186.872 93.1523 187.458 91.7526 188.109 90.418C188.76 89.0508 189.493 87.8626 190.307 86.8535C190.469 86.6908 190.632 86.6094 190.795 86.6094C190.99 86.6094 191.186 86.6908 191.381 86.8535C191.576 86.9837 191.674 87.1628 191.674 87.3906V87.4883C191.12 89.2135 190.486 91.0365 189.77 92.957C189.086 94.8451 188.419 96.7819 187.768 98.7676C187.149 100.721 186.612 102.674 186.156 104.627C185.733 106.58 185.521 108.468 185.521 110.291C185.521 110.486 185.521 110.763 185.521 111.121C185.554 111.479 185.668 111.707 185.863 111.805C186.579 111.674 187.328 111.3 188.109 110.682C188.923 110.063 189.672 109.412 190.355 108.729C191.072 108.045 191.69 107.426 192.211 106.873C192.732 106.32 193.09 106.043 193.285 106.043C193.448 106.043 193.611 106.124 193.773 106.287C193.969 106.45 194.066 106.613 194.066 106.775ZM214.623 94.4219C214.623 95.6589 214.477 97.0098 214.184 98.4746C213.923 99.9395 213.516 101.404 212.963 102.869C212.41 104.334 211.726 105.766 210.912 107.166C210.131 108.533 209.219 109.754 208.178 110.828C207.169 111.902 206.029 112.749 204.76 113.367C203.523 114.018 202.188 114.344 200.756 114.344C199.682 114.344 198.754 114.051 197.973 113.465C197.191 112.911 196.524 112.195 195.971 111.316C195.45 110.438 195.059 109.493 194.799 108.484C194.538 107.443 194.408 106.466 194.408 105.555C194.408 104.48 194.555 103.423 194.848 102.381C195.759 99.3861 197.224 96.7168 199.242 94.373C201.26 92.0293 203.718 90.2715 206.615 89.0996C206.68 89.0671 206.762 89.0508 206.859 89.0508C207.087 89.0508 207.25 89.1322 207.348 89.2949C207.478 89.4577 207.543 89.6367 207.543 89.832C207.543 90.0599 207.413 90.2552 207.152 90.418C206.697 90.6784 206.241 90.9388 205.785 91.1992C205.329 91.4271 204.874 91.7201 204.418 92.0781C202.628 93.3802 201.098 94.9915 199.828 96.9121C198.559 98.8327 197.598 100.851 196.947 102.967C196.719 103.65 196.605 104.415 196.605 105.262C196.605 105.945 196.703 106.678 196.898 107.459C197.094 108.24 197.387 108.973 197.777 109.656C198.168 110.307 198.656 110.861 199.242 111.316C199.861 111.74 200.577 111.951 201.391 111.951C201.911 111.951 202.4 111.854 202.855 111.658C203.344 111.463 203.799 111.219 204.223 110.926C205.46 110.047 206.566 108.908 207.543 107.508C208.52 106.108 209.35 104.611 210.033 103.016C210.717 101.388 211.238 99.7441 211.596 98.084C211.954 96.3913 212.133 94.7962 212.133 93.2988V92.7129C212.068 91.8665 211.775 91.1504 211.254 90.5645C210.766 89.9785 210.147 89.5065 209.398 89.1484C209.171 89.0508 208.943 88.9694 208.715 88.9043C208.52 88.8392 208.324 88.7578 208.129 88.6602C207.803 88.5299 207.641 88.3021 207.641 87.9766C207.641 87.7487 207.706 87.5534 207.836 87.3906C207.966 87.2279 208.145 87.1628 208.373 87.1953H208.422C209.138 87.2604 209.838 87.4232 210.521 87.6836C211.238 87.944 211.872 88.3021 212.426 88.7578C212.979 89.2135 213.435 89.7507 213.793 90.3691C214.184 90.9876 214.428 91.6875 214.525 92.4688C214.59 92.7943 214.623 93.1198 214.623 93.4453C214.623 93.7383 214.623 94.0638 214.623 94.4219ZM239.232 108.729C239.232 108.924 239.151 109.07 238.988 109.168C238.63 109.461 238.207 109.786 237.719 110.145C237.23 110.503 236.71 110.861 236.156 111.219C235.603 111.544 235.049 111.854 234.496 112.146C233.975 112.439 233.503 112.667 233.08 112.83C232.331 113.156 231.632 113.318 230.98 113.318C230.004 113.318 229.288 112.96 228.832 112.244C228.409 111.561 228.197 110.796 228.197 109.949C228.197 108.94 228.36 107.801 228.686 106.531C229.011 105.229 229.402 103.911 229.857 102.576C230.313 101.242 230.785 99.9395 231.273 98.6699C231.794 97.3678 232.234 96.2285 232.592 95.252C232.95 94.3079 233.275 93.3639 233.568 92.4199C233.861 91.4434 234.057 90.4342 234.154 89.3926C233.568 89.4577 232.771 89.7832 231.762 90.3691C230.753 90.9551 229.695 91.6387 228.588 92.4199C227.514 93.1686 226.488 93.9173 225.512 94.666C224.535 95.4147 223.77 95.9844 223.217 96.375L221.459 99.8906C220.678 101.421 219.929 102.951 219.213 104.48C218.529 105.978 217.862 107.508 217.211 109.07C216.918 109.819 216.641 110.568 216.381 111.316C216.12 112.065 215.827 112.814 215.502 113.562C215.404 113.823 215.225 113.953 214.965 113.953C214.835 113.953 214.672 113.872 214.477 113.709C214.249 113.546 214.135 113.4 214.135 113.27C214.135 113.237 214.167 113.123 214.232 112.928C214.265 112.765 214.314 112.57 214.379 112.342C214.411 112.114 214.46 111.902 214.525 111.707C214.558 111.512 214.574 111.382 214.574 111.316C215.128 109.168 215.795 107.052 216.576 104.969C217.39 102.885 218.285 100.835 219.262 98.8164C219.717 97.8724 220.157 96.9284 220.58 95.9844C221.003 95.0078 221.443 94.0475 221.898 93.1035C222.094 92.7454 222.322 92.306 222.582 91.7852C222.875 91.2643 223.168 90.7435 223.461 90.2227C223.786 89.6693 224.112 89.1647 224.438 88.709C224.763 88.2207 225.072 87.8464 225.365 87.5859C225.495 87.4557 225.642 87.3906 225.805 87.3906C225.935 87.3906 226.114 87.4883 226.342 87.6836C226.57 87.8464 226.684 88.0091 226.684 88.1719C226.684 88.2695 226.618 88.4974 226.488 88.8555C226.391 89.2135 226.26 89.6042 226.098 90.0273C225.935 90.418 225.772 90.8086 225.609 91.1992C225.479 91.5573 225.398 91.8014 225.365 91.9316C225.919 91.4108 226.553 90.8411 227.27 90.2227C228.018 89.6042 228.799 89.0345 229.613 88.5137C230.46 87.9928 231.322 87.5697 232.201 87.2441C233.08 86.8861 233.91 86.707 234.691 86.707C235.147 86.707 235.57 86.9186 235.961 87.3418C236.384 87.7324 236.628 88.1556 236.693 88.6113C236.758 88.9368 236.791 89.181 236.791 89.3438C236.791 89.8971 236.677 90.5807 236.449 91.3945C236.254 92.1758 236.059 92.8431 235.863 93.3965C235.538 94.3405 235.066 95.5938 234.447 97.1562C233.829 98.6862 233.21 100.265 232.592 101.893C231.973 103.52 231.436 105.083 230.98 106.58C230.525 108.077 230.297 109.249 230.297 110.096C230.297 110.454 230.329 110.763 230.395 111.023C230.46 111.251 230.704 111.365 231.127 111.365C231.713 111.365 232.396 111.186 233.178 110.828C233.992 110.47 234.773 110.079 235.521 109.656C236.27 109.201 236.921 108.794 237.475 108.436C238.028 108.077 238.37 107.898 238.5 107.898C238.695 107.898 238.858 107.996 238.988 108.191C239.151 108.354 239.232 108.533 239.232 108.729Z" fill="url(#paint2_linear)"/>
<path d="M272.373 76.4531C272.34 76.6484 272.243 76.8275 272.08 76.9902C271.95 77.153 271.771 77.2344 271.543 77.2344C271.25 77.2344 270.957 77.2181 270.664 77.1855C270.371 77.153 270.062 77.1367 269.736 77.1367C267.327 77.1367 264.967 77.5924 262.656 78.5039C260.345 79.4154 258.213 80.6523 256.26 82.2148C254.339 83.7773 252.663 85.6003 251.23 87.6836C249.798 89.7669 248.74 91.9805 248.057 94.3242C247.829 95.0729 247.633 95.8379 247.471 96.6191C247.34 97.4004 247.227 98.1654 247.129 98.9141C246.999 99.793 246.917 100.688 246.885 101.6C246.852 102.511 246.901 103.406 247.031 104.285C247.161 105.164 247.357 106.01 247.617 106.824C247.91 107.638 248.317 108.387 248.838 109.07C249.033 109.331 249.245 109.591 249.473 109.852C249.701 110.079 249.945 110.275 250.205 110.438C250.693 110.73 251.312 110.942 252.061 111.072C252.809 111.202 253.493 111.268 254.111 111.268C255.869 111.268 257.627 110.893 259.385 110.145C261.143 109.396 262.673 108.354 263.975 107.02C264.333 106.661 264.642 106.32 264.902 105.994C265.163 105.636 265.439 105.262 265.732 104.871C265.895 104.643 266.107 104.529 266.367 104.529C266.562 104.529 266.725 104.594 266.855 104.725C267.018 104.855 267.083 105.034 267.051 105.262C267.051 105.294 267.018 105.376 266.953 105.506C266.27 106.678 265.423 107.752 264.414 108.729C263.405 109.673 262.314 110.486 261.143 111.17C259.971 111.821 258.734 112.326 257.432 112.684C256.162 113.074 254.876 113.27 253.574 113.27C253.216 113.27 252.826 113.253 252.402 113.221C251.979 113.188 251.556 113.123 251.133 113.025C250.71 112.96 250.303 112.863 249.912 112.732C249.521 112.635 249.18 112.505 248.887 112.342C248.626 112.179 248.366 111.967 248.105 111.707C247.845 111.447 247.601 111.202 247.373 110.975C245.908 109.347 245.029 107.459 244.736 105.311C244.443 103.13 244.443 100.916 244.736 98.6699C244.834 97.8887 244.964 97.1074 245.127 96.3262C245.29 95.5449 245.469 94.7637 245.664 93.9824C246.283 91.5736 247.308 89.2461 248.74 87C250.173 84.7214 251.882 82.7194 253.867 80.9941C255.885 79.2363 258.083 77.8366 260.459 76.7949C262.868 75.7207 265.326 75.1836 267.832 75.1836C268.418 75.1836 269.118 75.2324 269.932 75.3301C270.745 75.3952 271.413 75.5254 271.934 75.7207C272.259 75.8509 272.406 76.0951 272.373 76.4531ZM287.656 91.6387C287.656 92.4525 287.461 93.2663 287.07 94.0801C286.68 94.8613 286.175 95.61 285.557 96.3262C284.971 97.0423 284.32 97.6934 283.604 98.2793C282.887 98.8652 282.22 99.3698 281.602 99.793C280.658 100.444 279.665 101.046 278.623 101.6C277.614 102.153 276.507 102.43 275.303 102.43C275.042 102.43 274.749 102.397 274.424 102.332C274.131 102.267 273.984 102.055 273.984 101.697C273.984 101.242 274.196 100.965 274.619 100.867C274.717 100.835 274.831 100.818 274.961 100.818C275.091 100.818 275.221 100.802 275.352 100.77C275.71 100.704 276.051 100.59 276.377 100.428C276.735 100.265 277.093 100.086 277.451 99.8906C278.005 99.5326 278.704 99.028 279.551 98.377C280.397 97.7259 281.227 97.0098 282.041 96.2285C282.855 95.4473 283.538 94.6497 284.092 93.8359C284.678 93.0221 284.971 92.2572 284.971 91.541C284.971 91.0853 284.727 90.8574 284.238 90.8574C284.043 90.8574 283.848 90.89 283.652 90.9551C283.457 91.0202 283.262 91.0853 283.066 91.1504C281.504 91.6712 280.072 92.4688 278.77 93.543C277.467 94.5846 276.344 95.8053 275.4 97.2051C274.456 98.6048 273.708 100.102 273.154 101.697C272.633 103.292 272.373 104.887 272.373 106.482C272.373 107.003 272.406 107.605 272.471 108.289C272.568 108.94 272.731 109.559 272.959 110.145C273.219 110.73 273.561 111.235 273.984 111.658C274.408 112.049 274.961 112.244 275.645 112.244C275.905 112.244 276.149 112.195 276.377 112.098C276.605 112.033 276.833 111.935 277.061 111.805C277.939 111.316 278.753 110.665 279.502 109.852C280.251 109.005 280.918 108.159 281.504 107.312C281.667 107.117 281.813 106.906 281.943 106.678C282.106 106.45 282.269 106.222 282.432 105.994C282.529 105.831 282.692 105.75 282.92 105.75C283.115 105.75 283.294 105.815 283.457 105.945C283.652 106.076 283.75 106.255 283.75 106.482C283.75 106.548 283.717 106.645 283.652 106.775C283.262 107.492 282.773 108.289 282.188 109.168C281.602 110.014 280.951 110.812 280.234 111.561C279.518 112.309 278.737 112.928 277.891 113.416C277.077 113.937 276.214 114.197 275.303 114.197C274.294 114.197 273.447 113.904 272.764 113.318C272.113 112.765 271.592 112.081 271.201 111.268C270.811 110.421 270.534 109.526 270.371 108.582C270.208 107.605 270.127 106.727 270.127 105.945C270.127 103.471 270.648 101.111 271.689 98.8652C272.731 96.5866 274.131 94.5846 275.889 92.8594C276.41 92.3385 277.012 91.8177 277.695 91.2969C278.379 90.7435 279.095 90.2552 279.844 89.832C280.625 89.3763 281.406 89.0182 282.188 88.7578C283.001 88.4648 283.783 88.3184 284.531 88.3184C285.475 88.3184 286.224 88.6439 286.777 89.2949C287.363 89.9134 287.656 90.6947 287.656 91.6387ZM310.508 108.729C310.508 108.924 310.426 109.07 310.264 109.168C309.906 109.461 309.482 109.786 308.994 110.145C308.506 110.503 307.985 110.861 307.432 111.219C306.878 111.544 306.325 111.854 305.771 112.146C305.251 112.439 304.779 112.667 304.355 112.83C303.607 113.156 302.907 113.318 302.256 113.318C301.279 113.318 300.563 112.96 300.107 112.244C299.684 111.561 299.473 110.796 299.473 109.949C299.473 108.94 299.635 107.801 299.961 106.531C300.286 105.229 300.677 103.911 301.133 102.576C301.589 101.242 302.061 99.9395 302.549 98.6699C303.07 97.3678 303.509 96.2285 303.867 95.252C304.225 94.3079 304.551 93.3639 304.844 92.4199C305.137 91.4434 305.332 90.4342 305.43 89.3926C304.844 89.4577 304.046 89.7832 303.037 90.3691C302.028 90.9551 300.97 91.6387 299.863 92.4199C298.789 93.1686 297.764 93.9173 296.787 94.666C295.811 95.4147 295.046 95.9844 294.492 96.375L292.734 99.8906C291.953 101.421 291.204 102.951 290.488 104.48C289.805 105.978 289.137 107.508 288.486 109.07C288.193 109.819 287.917 110.568 287.656 111.316C287.396 112.065 287.103 112.814 286.777 113.562C286.68 113.823 286.501 113.953 286.24 113.953C286.11 113.953 285.947 113.872 285.752 113.709C285.524 113.546 285.41 113.4 285.41 113.27C285.41 113.237 285.443 113.123 285.508 112.928C285.54 112.765 285.589 112.57 285.654 112.342C285.687 112.114 285.736 111.902 285.801 111.707C285.833 111.512 285.85 111.382 285.85 111.316C286.403 109.168 287.07 107.052 287.852 104.969C288.665 102.885 289.561 100.835 290.537 98.8164C290.993 97.8724 291.432 96.9284 291.855 95.9844C292.279 95.0078 292.718 94.0475 293.174 93.1035C293.369 92.7454 293.597 92.306 293.857 91.7852C294.15 91.2643 294.443 90.7435 294.736 90.2227C295.062 89.6693 295.387 89.1647 295.713 88.709C296.038 88.2207 296.348 87.8464 296.641 87.5859C296.771 87.4557 296.917 87.3906 297.08 87.3906C297.21 87.3906 297.389 87.4883 297.617 87.6836C297.845 87.8464 297.959 88.0091 297.959 88.1719C297.959 88.2695 297.894 88.4974 297.764 88.8555C297.666 89.2135 297.536 89.6042 297.373 90.0273C297.21 90.418 297.048 90.8086 296.885 91.1992C296.755 91.5573 296.673 91.8014 296.641 91.9316C297.194 91.4108 297.829 90.8411 298.545 90.2227C299.294 89.6042 300.075 89.0345 300.889 88.5137C301.735 87.9928 302.598 87.5697 303.477 87.2441C304.355 86.8861 305.186 86.707 305.967 86.707C306.423 86.707 306.846 86.9186 307.236 87.3418C307.66 87.7324 307.904 88.1556 307.969 88.6113C308.034 88.9368 308.066 89.181 308.066 89.3438C308.066 89.8971 307.952 90.5807 307.725 91.3945C307.529 92.1758 307.334 92.8431 307.139 93.3965C306.813 94.3405 306.341 95.5938 305.723 97.1562C305.104 98.6862 304.486 100.265 303.867 101.893C303.249 103.52 302.712 105.083 302.256 106.58C301.8 108.077 301.572 109.249 301.572 110.096C301.572 110.454 301.605 110.763 301.67 111.023C301.735 111.251 301.979 111.365 302.402 111.365C302.988 111.365 303.672 111.186 304.453 110.828C305.267 110.47 306.048 110.079 306.797 109.656C307.546 109.201 308.197 108.794 308.75 108.436C309.303 108.077 309.645 107.898 309.775 107.898C309.971 107.898 310.133 107.996 310.264 108.191C310.426 108.354 310.508 108.533 310.508 108.729ZM325.693 80.0176C325.693 80.0827 325.677 80.1315 325.645 80.1641C325.645 80.1966 325.645 80.2292 325.645 80.2617C324.635 82.5078 323.594 84.7376 322.52 86.9512C321.445 89.1322 320.485 91.3945 319.639 93.7383C319.997 93.7383 320.339 93.7383 320.664 93.7383C320.99 93.7057 321.331 93.6895 321.689 93.6895C321.852 93.6895 322.031 93.6895 322.227 93.6895C322.454 93.6569 322.65 93.6732 322.812 93.7383C323.008 93.7708 323.171 93.8522 323.301 93.9824C323.431 94.0801 323.496 94.2591 323.496 94.5195C323.496 94.8451 323.366 95.0566 323.105 95.1543C322.878 95.2194 322.568 95.3008 322.178 95.3984C321.82 95.4635 321.429 95.5286 321.006 95.5938C320.615 95.6589 320.225 95.724 319.834 95.7891C319.476 95.8216 319.167 95.8542 318.906 95.8867C318.613 96.7331 318.337 97.6771 318.076 98.7188C317.816 99.7279 317.588 100.786 317.393 101.893C317.197 102.967 317.035 104.041 316.904 105.115C316.774 106.157 316.709 107.117 316.709 107.996C316.709 108.224 316.709 108.582 316.709 109.07C316.742 109.526 316.79 109.982 316.855 110.438C316.953 110.893 317.083 111.3 317.246 111.658C317.441 112.016 317.702 112.195 318.027 112.195C318.483 112.195 319.004 111.967 319.59 111.512C320.176 111.056 320.745 110.535 321.299 109.949C321.885 109.331 322.422 108.729 322.91 108.143C323.431 107.524 323.854 107.052 324.18 106.727C324.31 106.596 324.456 106.531 324.619 106.531C324.814 106.531 324.993 106.613 325.156 106.775C325.352 106.938 325.449 107.117 325.449 107.312C325.449 107.41 325.4 107.524 325.303 107.654C324.945 108.175 324.473 108.826 323.887 109.607C323.333 110.356 322.715 111.089 322.031 111.805C321.38 112.488 320.68 113.074 319.932 113.562C319.215 114.051 318.516 114.295 317.832 114.295C317.083 114.295 316.481 114.035 316.025 113.514C315.57 112.993 315.212 112.374 314.951 111.658C314.723 110.91 314.561 110.145 314.463 109.363C314.398 108.549 314.365 107.866 314.365 107.312C314.365 106.531 314.414 105.652 314.512 104.676C314.642 103.699 314.788 102.706 314.951 101.697C315.114 100.688 315.309 99.7116 315.537 98.7676C315.765 97.791 315.977 96.9121 316.172 96.1309C315.911 96.1309 315.651 96.1471 315.391 96.1797C315.163 96.1797 314.919 96.1797 314.658 96.1797C313.975 96.1797 313.275 96.1634 312.559 96.1309C311.842 96.0983 311.143 96.0332 310.459 95.9355C309.775 95.8053 309.108 95.61 308.457 95.3496C307.806 95.0566 307.22 94.666 306.699 94.1777C306.569 94.0801 306.504 93.9336 306.504 93.7383C306.504 93.6732 306.602 93.5104 306.797 93.25C306.992 92.957 307.122 92.8105 307.188 92.8105C308.392 92.8105 309.58 92.9408 310.752 93.2012C311.924 93.4616 313.112 93.6243 314.316 93.6895C314.707 93.722 315.098 93.7383 315.488 93.7383C315.911 93.7383 316.335 93.7383 316.758 93.7383H316.904C317.262 92.6315 317.702 91.4271 318.223 90.125C318.743 88.8229 319.329 87.5371 319.98 86.2676C320.632 84.998 321.315 83.7773 322.031 82.6055C322.78 81.401 323.545 80.3594 324.326 79.4805C324.521 79.3503 324.684 79.2852 324.814 79.2852C325.01 79.2852 325.205 79.3665 325.4 79.5293C325.596 79.6595 325.693 79.8223 325.693 80.0176ZM345.273 92.4688C345.273 92.7292 345.257 92.9733 345.225 93.2012C345.192 93.429 345.143 93.6732 345.078 93.9336C345.013 94.194 344.834 94.3242 344.541 94.3242C344.411 94.3242 344.215 94.2754 343.955 94.1777C343.727 94.0475 343.613 93.9173 343.613 93.7871L343.662 93.3477C343.662 93.1198 343.63 92.8431 343.564 92.5176C343.532 92.1921 343.451 91.8828 343.32 91.5898C343.223 91.2643 343.076 91.0039 342.881 90.8086C342.686 90.5807 342.425 90.4668 342.1 90.4668C341.318 90.4668 340.488 90.7109 339.609 91.1992C338.73 91.6549 337.982 92.1107 337.363 92.5664C337.103 92.7617 336.745 93.0547 336.289 93.4453C335.833 93.8359 335.361 94.2591 334.873 94.7148C334.385 95.1706 333.929 95.61 333.506 96.0332C333.115 96.4564 332.839 96.7982 332.676 97.0586C332.578 97.1888 332.448 97.4329 332.285 97.791C332.155 98.1165 332.008 98.4746 331.846 98.8652C331.715 99.2559 331.569 99.6302 331.406 99.9883C331.276 100.346 331.162 100.623 331.064 100.818C330.413 102.381 329.779 103.943 329.16 105.506C328.574 107.068 328.021 108.647 327.5 110.242C327.24 110.991 326.995 111.756 326.768 112.537C326.572 113.351 326.344 114.132 326.084 114.881C325.954 115.141 325.791 115.271 325.596 115.271C325.465 115.271 325.27 115.19 325.01 115.027C324.782 114.897 324.668 114.767 324.668 114.637C324.668 114.279 324.717 113.872 324.814 113.416C324.945 112.96 325.042 112.553 325.107 112.195C325.531 110.079 326.051 107.996 326.67 105.945C327.288 103.895 328.005 101.876 328.818 99.8906C329.111 99.1094 329.453 98.1816 329.844 97.1074C330.267 96.0332 330.706 94.9427 331.162 93.8359C331.618 92.6966 332.09 91.6387 332.578 90.6621C333.099 89.653 333.62 88.8555 334.141 88.2695C334.271 88.1393 334.417 88.0742 334.58 88.0742C334.71 88.0742 334.889 88.1556 335.117 88.3184C335.378 88.4486 335.508 88.5951 335.508 88.7578C335.508 88.8555 335.475 89.0345 335.41 89.2949C335.345 89.5228 335.28 89.7832 335.215 90.0762C335.15 90.3366 335.068 90.597 334.971 90.8574C334.906 91.0853 334.857 91.248 334.824 91.3457C335.866 90.5645 336.956 89.8646 338.096 89.2461C339.235 88.6276 340.488 88.3184 341.855 88.3184C342.441 88.3184 342.946 88.4486 343.369 88.709C343.792 88.9368 344.15 89.2461 344.443 89.6367C344.736 90.0273 344.948 90.4668 345.078 90.9551C345.208 91.4434 345.273 91.9479 345.273 92.4688ZM361.289 91.6387C361.289 92.4525 361.094 93.2663 360.703 94.0801C360.312 94.8613 359.808 95.61 359.189 96.3262C358.604 97.0423 357.952 97.6934 357.236 98.2793C356.52 98.8652 355.853 99.3698 355.234 99.793C354.29 100.444 353.298 101.046 352.256 101.6C351.247 102.153 350.14 102.43 348.936 102.43C348.675 102.43 348.382 102.397 348.057 102.332C347.764 102.267 347.617 102.055 347.617 101.697C347.617 101.242 347.829 100.965 348.252 100.867C348.35 100.835 348.464 100.818 348.594 100.818C348.724 100.818 348.854 100.802 348.984 100.77C349.342 100.704 349.684 100.59 350.01 100.428C350.368 100.265 350.726 100.086 351.084 99.8906C351.637 99.5326 352.337 99.028 353.184 98.377C354.03 97.7259 354.86 97.0098 355.674 96.2285C356.488 95.4473 357.171 94.6497 357.725 93.8359C358.311 93.0221 358.604 92.2572 358.604 91.541C358.604 91.0853 358.359 90.8574 357.871 90.8574C357.676 90.8574 357.48 90.89 357.285 90.9551C357.09 91.0202 356.895 91.0853 356.699 91.1504C355.137 91.6712 353.704 92.4688 352.402 93.543C351.1 94.5846 349.977 95.8053 349.033 97.2051C348.089 98.6048 347.34 100.102 346.787 101.697C346.266 103.292 346.006 104.887 346.006 106.482C346.006 107.003 346.038 107.605 346.104 108.289C346.201 108.94 346.364 109.559 346.592 110.145C346.852 110.73 347.194 111.235 347.617 111.658C348.04 112.049 348.594 112.244 349.277 112.244C349.538 112.244 349.782 112.195 350.01 112.098C350.238 112.033 350.465 111.935 350.693 111.805C351.572 111.316 352.386 110.665 353.135 109.852C353.883 109.005 354.551 108.159 355.137 107.312C355.299 107.117 355.446 106.906 355.576 106.678C355.739 106.45 355.902 106.222 356.064 105.994C356.162 105.831 356.325 105.75 356.553 105.75C356.748 105.75 356.927 105.815 357.09 105.945C357.285 106.076 357.383 106.255 357.383 106.482C357.383 106.548 357.35 106.645 357.285 106.775C356.895 107.492 356.406 108.289 355.82 109.168C355.234 110.014 354.583 110.812 353.867 111.561C353.151 112.309 352.37 112.928 351.523 113.416C350.71 113.937 349.847 114.197 348.936 114.197C347.926 114.197 347.08 113.904 346.396 113.318C345.745 112.765 345.225 112.081 344.834 111.268C344.443 110.421 344.167 109.526 344.004 108.582C343.841 107.605 343.76 106.727 343.76 105.945C343.76 103.471 344.281 101.111 345.322 98.8652C346.364 96.5866 347.764 94.5846 349.521 92.8594C350.042 92.3385 350.645 91.8177 351.328 91.2969C352.012 90.7435 352.728 90.2552 353.477 89.832C354.258 89.3763 355.039 89.0182 355.82 88.7578C356.634 88.4648 357.415 88.3184 358.164 88.3184C359.108 88.3184 359.857 88.6439 360.41 89.2949C360.996 89.9134 361.289 90.6947 361.289 91.6387Z" fill="url(#paint3_linear)"/>
<path d="M291.639 59.0586C291.639 61.0768 291.215 62.9811 290.369 64.7715C289.523 66.5618 288.4 68.1569 287 69.5566C287.651 70.5332 288.302 71.4609 288.953 72.3398C289.637 73.2188 290.353 74.0977 291.102 74.9766C291.264 75.1393 291.346 75.3346 291.346 75.5625C291.346 75.7578 291.281 75.9206 291.15 76.0508C291.02 76.2135 290.857 76.2949 290.662 76.2949C290.402 76.2949 290.011 76.0508 289.49 75.5625C289.002 75.1068 288.481 74.5859 287.928 74C287.407 73.3815 286.902 72.7793 286.414 72.1934C285.958 71.6074 285.649 71.2005 285.486 70.9727C284.021 72.112 282.41 73.0234 280.652 73.707C278.927 74.3906 277.137 74.7324 275.281 74.7324C274.695 74.7324 274.061 74.6836 273.377 74.5859C272.693 74.4883 272.01 74.3418 271.326 74.1465C270.675 73.9512 270.04 73.707 269.422 73.4141C268.836 73.1211 268.299 72.7793 267.811 72.3887C267.257 71.9655 266.769 71.4447 266.346 70.8262C265.955 70.1751 265.613 69.4915 265.32 68.7754C265.06 68.0267 264.848 67.278 264.686 66.5293C264.555 65.7806 264.49 65.0645 264.49 64.3809C264.49 62.6882 264.913 61.1582 265.76 59.791C266.639 58.4238 267.729 57.2031 269.031 56.1289C270.333 55.0547 271.733 54.0944 273.23 53.248C274.76 52.3691 276.176 51.5553 277.479 50.8066C277.413 50.2533 277.332 49.7161 277.234 49.1953C277.137 48.6419 277.088 48.0885 277.088 47.5352C277.088 46.4284 277.218 45.3379 277.479 44.2637C277.771 43.1569 278.178 42.1152 278.699 41.1387C279.253 40.1621 279.92 39.2832 280.701 38.502C281.515 37.6882 282.443 37.0534 283.484 36.5977C283.777 36.4674 284.07 36.3698 284.363 36.3047C284.689 36.207 285.014 36.1582 285.34 36.1582C286.447 36.1582 287.391 36.5163 288.172 37.2324C288.986 37.9486 289.393 38.8763 289.393 40.0156C289.393 40.7969 289.262 41.5781 289.002 42.3594C288.774 43.1406 288.449 43.9056 288.025 44.6543C287.635 45.3704 287.179 46.054 286.658 46.7051C286.17 47.3561 285.665 47.9421 285.145 48.4629C284.428 49.179 283.663 49.8138 282.85 50.3672C282.068 50.9206 281.255 51.4577 280.408 51.9785C280.929 54.778 281.645 57.5286 282.557 60.2305C283.468 62.8997 284.64 65.4714 286.072 67.9453C287.277 66.7083 288.253 65.3249 289.002 63.7949C289.751 62.2324 290.125 60.5723 290.125 58.8145C290.125 58.3587 290.092 57.9193 290.027 57.4961C289.962 57.0729 289.881 56.6335 289.783 56.1777V55.9824C289.783 55.7871 289.848 55.6243 289.979 55.4941C290.109 55.3314 290.271 55.25 290.467 55.25C290.857 55.25 291.102 55.4453 291.199 55.8359C291.362 56.2917 291.476 56.8288 291.541 57.4473C291.606 58.0332 291.639 58.5703 291.639 59.0586ZM286.805 40.1133C286.805 39.5599 286.658 39.2018 286.365 39.0391C286.072 38.8763 285.682 38.7949 285.193 38.7949C284.965 38.7949 284.786 38.8438 284.656 38.9414C283.061 39.8529 281.84 41.0247 280.994 42.457C280.18 43.8893 279.773 45.5332 279.773 47.3887C279.773 48.0723 279.822 48.7233 279.92 49.3418C280.538 48.9837 281.141 48.5931 281.727 48.1699C282.312 47.7467 282.85 47.2747 283.338 46.7539C283.729 46.3633 284.119 45.9076 284.51 45.3867C284.933 44.8333 285.307 44.2637 285.633 43.6777C285.991 43.0918 286.268 42.4896 286.463 41.8711C286.691 41.2526 286.805 40.6667 286.805 40.1133ZM284.412 69.4102C282.785 66.9688 281.434 64.3971 280.359 61.6953C279.318 58.9935 278.504 56.2103 277.918 53.3457C276.876 53.9316 275.704 54.5827 274.402 55.2988C273.133 56.015 271.928 56.8288 270.789 57.7402C269.682 58.6517 268.738 59.6771 267.957 60.8164C267.176 61.9232 266.785 63.1602 266.785 64.5273C266.785 65.0482 266.834 65.6016 266.932 66.1875C267.029 66.7734 267.176 67.3594 267.371 67.9453C267.599 68.4987 267.859 69.0358 268.152 69.5566C268.478 70.0449 268.836 70.4518 269.227 70.7773C270.04 71.4284 271.001 71.9167 272.107 72.2422C273.247 72.5677 274.337 72.7305 275.379 72.7305C277.039 72.7305 278.634 72.4375 280.164 71.8516C281.727 71.2331 283.143 70.4193 284.412 69.4102Z" fill="url(#paint4_linear)"/>
<defs>
<linearGradient id="paint0_linear" x1="152.266" y1="0" x2="89.6415" y2="147.825" gradientUnits="userSpaceOnUse">
<stop stop-color="#91B247"/>
<stop offset="1" stop-color="#2DDD49" stop-opacity="0.46"/>
</linearGradient>
<linearGradient id="paint1_linear" x1="224.758" y1="0" x2="183.956" y2="84.4478" gradientUnits="userSpaceOnUse">
<stop stop-color="#91B247"/>
<stop offset="1" stop-color="#2DDD49" stop-opacity="0.46"/>
</linearGradient>
<linearGradient id="paint2_linear" x1="145.359" y1="64" x2="128.921" y2="134.943" gradientUnits="userSpaceOnUse">
<stop stop-color="#91B247"/>
<stop offset="1" stop-color="#2DDD49" stop-opacity="0.46"/>
</linearGradient>
<linearGradient id="paint3_linear" x1="314.181" y1="64" x2="295.787" y2="121.877" gradientUnits="userSpaceOnUse">
<stop stop-color="#91B247"/>
<stop offset="1" stop-color="#2DDD49" stop-opacity="0.46"/>
</linearGradient>
<linearGradient id="paint4_linear" x1="282.079" y1="26" x2="237.011" y2="46.3668" gradientUnits="userSpaceOnUse">
<stop stop-color="#91B247"/>
<stop offset="1" stop-opacity="0.53"/>
</linearGradient>
</defs>
</svg>
