<svg width="106" height="133" viewBox="0 0 106 133" fill="none" xmlns="http://www.w3.org/2000/svg">
<path d="M50.4219 41C50.4219 41.1432 50.3324 41.3044 50.1533 41.4834C49.6878 41.9131 49.1149 42.3786 48.4346 42.8799C47.79 43.3812 47.0918 43.8288 46.3398 44.2227C45.5879 44.6523 44.8359 45.0104 44.084 45.2969C43.332 45.5833 42.6338 45.7266 41.9893 45.7266C40.8434 45.7266 39.9482 45.4401 39.3037 44.8672C38.6592 44.2943 38.1579 43.5781 37.7998 42.7188C37.4775 41.8594 37.2627 40.9284 37.1553 39.9258C37.0837 38.9232 37.0479 38.0101 37.0479 37.1865C37.0479 35.6826 37.1553 34.0713 37.3701 32.3525C37.6208 30.6338 37.9251 28.915 38.2832 27.1963C38.6771 25.4417 39.1068 23.723 39.5723 22.04C40.0378 20.3571 40.4854 18.7816 40.915 17.3135C39.7692 17.5999 38.6055 17.8148 37.4238 17.958C36.278 18.0654 35.1143 18.1549 33.9326 18.2266C32.7868 18.2624 31.623 18.2803 30.4414 18.2803C29.2956 18.2803 28.1318 18.2982 26.9502 18.334C24.4795 18.4414 22.0625 18.9248 19.6992 19.7842C18.8757 22.5771 17.9626 25.3701 16.96 28.1631C15.9574 30.9202 14.6325 33.5342 12.9854 36.0049C12.3408 36.9717 11.571 37.9027 10.6758 38.7979C9.81641 39.693 8.84961 40.4629 7.77539 41.1074C6.73698 41.7878 5.62695 42.3249 4.44531 42.7188C3.29948 43.1126 2.11784 43.3096 0.900391 43.3096C0.685547 43.3096 0.50651 43.2021 0.363281 42.9873C0.255859 42.8083 0.202148 42.6292 0.202148 42.4502C0.202148 42.0205 0.399089 41.7699 0.792969 41.6982C1.50911 41.5192 2.18945 41.3581 2.83398 41.2148C3.47852 41.0716 4.15885 40.8389 4.875 40.5166C6.48633 39.7288 7.88281 38.6546 9.06445 37.2939C10.2819 35.8975 11.3203 34.3757 12.1797 32.7285C13.0749 31.0456 13.8268 29.3089 14.4355 27.5186C15.0443 25.7282 15.5814 24.0273 16.0469 22.416L16.4229 21.1807C16.3512 21.2165 16.1722 21.306 15.8857 21.4492C15.5993 21.5924 15.3128 21.7357 15.0264 21.8789C14.7399 22.0221 14.4714 22.1654 14.2207 22.3086C13.9701 22.416 13.8268 22.4697 13.791 22.4697C13.5404 22.4697 13.3076 22.3802 13.0928 22.2012C12.9137 21.9863 12.8242 21.7715 12.8242 21.5566C12.8242 21.306 13.0033 20.9837 13.3613 20.5898C13.7552 20.1602 14.2028 19.7484 14.7041 19.3545C15.2412 18.9606 15.7604 18.6025 16.2617 18.2803C16.763 17.958 17.139 17.7432 17.3896 17.6357C17.9268 15.4873 18.4818 13.3568 19.0547 11.2441C19.6276 9.0957 20.3796 7.00098 21.3105 4.95996C20.3438 5.56868 19.3411 6.1416 18.3027 6.67871C17.3001 7.18001 16.3154 7.75293 15.3486 8.39746C14.6683 8.86296 13.9701 9.36426 13.2539 9.90137C12.5736 10.4385 11.929 11.0114 11.3203 11.6201C10.7116 12.2288 10.1566 12.8913 9.65527 13.6074C9.15397 14.3236 8.76009 15.0755 8.47363 15.8633C8.2946 16.3646 8.18717 16.7764 8.15137 17.0986C8.15137 17.4209 8.09766 17.7969 7.99023 18.2266C7.91862 18.4056 7.8112 18.5488 7.66797 18.6562C7.52474 18.7279 7.36361 18.7637 7.18457 18.7637C7.00553 18.7637 6.8265 18.71 6.64746 18.6025C6.50423 18.4951 6.41471 18.3519 6.37891 18.1729V18.2266C6.37891 18.0833 6.361 17.958 6.3252 17.8506C6.3252 17.7074 6.3252 17.5641 6.3252 17.4209C6.3252 15.3441 6.93392 13.4463 8.15137 11.7275C9.36882 9.97298 10.8727 8.39746 12.6631 7.00098C14.4535 5.60449 16.3691 4.36914 18.4102 3.29492C20.4512 2.1849 22.2773 1.236 23.8887 0.448242C23.9603 0.412435 24.0319 0.376628 24.1035 0.34082C24.1751 0.305013 24.2467 0.287109 24.3184 0.287109C24.569 0.287109 24.7839 0.376628 24.9629 0.555664C25.1777 0.734701 25.2852 0.949544 25.2852 1.2002V1.30762C24.9987 2.13118 24.7122 2.93685 24.4258 3.72461C24.1751 4.47656 23.9066 5.26432 23.6201 6.08789C23.083 7.80664 22.5817 9.52539 22.1162 11.2441C21.6507 12.9629 21.1673 14.6816 20.666 16.4004C21.8477 16.0781 23.0293 15.8633 24.2109 15.7559C25.4284 15.6484 26.6458 15.5947 27.8633 15.5947C29.0449 15.5947 30.2266 15.6305 31.4082 15.7021C32.5898 15.738 33.7715 15.7559 34.9531 15.7559C36.0632 15.7559 37.1553 15.7201 38.2295 15.6484C39.3395 15.5768 40.4316 15.4157 41.5059 15.165C42.0788 13.3747 42.6875 11.6201 43.332 9.90137C43.9766 8.14681 44.7106 6.41016 45.5342 4.69141C45.8206 4.11849 46.1071 3.52767 46.3936 2.91895C46.68 2.31022 47.0023 1.75521 47.3604 1.25391C47.5036 1.03906 47.7184 0.931641 48.0049 0.931641C48.2197 0.931641 48.4167 1.00326 48.5957 1.14648C48.8105 1.28971 48.918 1.50456 48.918 1.79102C48.918 1.86263 48.8105 2.2207 48.5957 2.86523C48.4167 3.47396 48.1839 4.24382 47.8975 5.1748C47.611 6.06999 47.2887 7.07259 46.9307 8.18262C46.5726 9.25684 46.2324 10.2773 45.9102 11.2441C45.5879 12.2109 45.3014 13.0703 45.0508 13.8223C44.8001 14.5742 44.639 15.0755 44.5674 15.3262C44.5674 15.362 44.5674 15.3978 44.5674 15.4336C44.6032 15.4694 44.6211 15.5052 44.6211 15.541C44.6211 15.7559 44.5316 15.917 44.3525 16.0244C43.8154 17.7074 43.2604 19.4977 42.6875 21.3955C42.1146 23.2575 41.5954 25.1553 41.1299 27.0889C40.6644 29.0225 40.2884 30.9561 40.002 32.8896C39.7155 34.7874 39.5723 36.6136 39.5723 38.3682C39.5723 38.7979 39.5902 39.3171 39.626 39.9258C39.6618 40.5345 39.7692 41.1074 39.9482 41.6445C40.1273 42.2174 40.3779 42.6829 40.7002 43.041C41.0583 43.4349 41.5596 43.6318 42.2041 43.6318C42.8128 43.6318 43.5111 43.4349 44.2988 43.041C45.0866 42.6829 45.8564 42.2891 46.6084 41.8594C47.3604 41.4297 48.0049 41.0358 48.542 40.6777C49.1149 40.2839 49.4551 40.0869 49.5625 40.0869C49.7773 40.0869 49.9743 40.1943 50.1533 40.4092C50.3324 40.5882 50.4219 40.7852 50.4219 41Z" fill="url(#paint0_linear)"/>
<path d="M79.1765 32.2461C79.1765 32.4805 79.1179 32.6562 79.0007 32.7734C77.5945 34.8047 76.2664 36.8164 75.0164 38.8086C73.8054 40.7617 72.6531 42.7539 71.5593 44.7852C70.4656 46.8164 69.45 48.9062 68.5125 51.0547C67.614 53.1641 66.7742 55.3906 65.9929 57.7344C65.2117 60 64.5476 62.3047 64.0007 64.6484C63.4929 66.9531 62.9656 69.2773 62.4187 71.6211C61.9109 73.9648 61.364 76.2891 60.7781 78.5938C60.1922 80.9375 59.4695 83.2422 58.6101 85.5078C57.8289 87.5391 56.9304 89.4531 55.9148 91.25C54.8992 93.0859 53.6882 94.6875 52.282 96.0547C50.9148 97.4609 49.3132 98.5547 47.4773 99.3359C45.6414 100.156 43.532 100.566 41.1492 100.566C39.1179 100.566 37.2234 100.234 35.4656 99.5703C33.7078 98.9453 32.1843 98.0273 30.8953 96.8164C29.5672 95.6445 28.532 94.2188 27.7898 92.5391C27.0476 90.8594 26.6765 88.9844 26.6765 86.9141C26.6765 84.8047 27.0086 82.6758 27.6726 80.5273C28.2976 78.3789 29.1765 76.3086 30.3093 74.3164C31.4422 72.3633 32.7898 70.5664 34.3523 68.9258C35.9148 67.3242 37.614 66.0156 39.45 65C39.6062 64.9219 39.7429 64.8828 39.8601 64.8828C40.0945 64.8828 40.2898 64.9609 40.4461 65.1172C40.6414 65.3125 40.739 65.5273 40.739 65.7617C40.739 66.0742 40.5828 66.3281 40.2703 66.5234C39.8797 66.8359 39.489 67.1094 39.0984 67.3438C38.7078 67.6172 38.3172 67.9102 37.9265 68.2227C36.1687 69.668 34.6648 71.3477 33.4148 73.2617C32.2039 75.1758 31.2078 77.1875 30.4265 79.2969C30.0359 80.4297 29.7234 81.582 29.489 82.7539C29.2547 83.9648 29.1375 85.1953 29.1375 86.4453C29.1375 88.2422 29.4304 89.8438 30.0164 91.25C30.6023 92.6562 31.4226 93.8281 32.4773 94.7656C33.532 95.7422 34.782 96.4844 36.2273 96.9922C37.7117 97.5 39.3328 97.7539 41.0906 97.7539C41.989 97.7539 42.8679 97.6758 43.7273 97.5195C44.6257 97.3633 45.5047 97.0898 46.364 96.6992C47.7312 96.1133 48.9617 95.2539 50.0554 94.1211C51.1882 92.9883 52.1843 91.6797 53.0437 90.1953C53.9422 88.7109 54.7234 87.1094 55.3875 85.3906C56.0906 83.7109 56.6961 82.0117 57.2039 80.293C57.7117 78.5742 58.1414 76.8945 58.4929 75.2539C58.8836 73.6133 59.2156 72.1289 59.489 70.8008C59.9578 68.6914 60.4265 66.582 60.8953 64.4727C61.364 62.3242 61.8914 60.1953 62.4773 58.0859C61.8132 58.9453 61.0125 59.8828 60.075 60.8984C59.1765 61.875 58.1804 62.793 57.0867 63.6523C56.032 64.4727 54.9187 65.1562 53.7468 65.7031C52.575 66.2891 51.4031 66.582 50.2312 66.582C49.0593 66.582 48.1023 66.3281 47.3601 65.8203C46.657 65.3516 46.1101 64.7461 45.7195 64.0039C45.3679 63.2227 45.114 62.3633 44.9578 61.4258C44.8406 60.4883 44.782 59.5508 44.782 58.6133C44.782 57.3633 44.8601 56.1523 45.0164 54.9805C45.1726 53.7695 45.3875 52.5781 45.6609 51.4062C46.6765 46.7969 47.9265 42.2852 49.4109 37.8711C50.8953 33.457 52.7507 29.1602 54.9773 24.9805C53.8445 25.6445 52.6922 26.25 51.5203 26.7969C50.3875 27.3438 49.2547 27.9492 48.1218 28.6133C46.5984 29.5508 45.075 30.6445 43.5515 31.8945C42.0672 33.1445 40.9734 34.6289 40.2703 36.3477C40.114 36.7383 39.9968 37.1094 39.9187 37.4609C39.8406 37.8125 39.7625 38.1836 39.6843 38.5742C39.5672 38.9258 39.2937 39.1016 38.864 39.1016C38.6687 39.1016 38.4539 39.0234 38.2195 38.8672C38.0242 38.7109 37.9265 38.5156 37.9265 38.2812C37.9265 36.9141 38.1609 35.6445 38.6297 34.4727C39.1375 33.2617 39.8015 32.1484 40.6218 31.1328C41.4422 30.1172 42.3601 29.1992 43.3757 28.3789C44.4304 27.5195 45.4851 26.7578 46.5398 26.0938C48.2976 25 50.075 23.9844 51.8718 23.0469C53.7078 22.0703 55.6023 21.2305 57.5554 20.5273C57.5945 20.4102 57.6726 20.3125 57.7898 20.2344C57.9461 20.1562 58.0828 20.1172 58.2 20.1172C58.4343 20.1172 58.6492 20.2148 58.8445 20.4102C59.0789 20.5664 59.1961 20.7812 59.1961 21.0547C59.1961 21.1719 59.1765 21.25 59.1375 21.2891C58.5515 22.8906 57.8484 24.707 57.0281 26.7383C56.2468 28.7695 55.4265 30.918 54.5672 33.1836C53.7078 35.4102 52.8679 37.7148 52.0476 40.0977C51.2273 42.4414 50.4851 44.7461 49.8211 47.0117C49.1961 49.2383 48.6687 51.3867 48.239 53.457C47.8484 55.4883 47.6531 57.3242 47.6531 58.9648C47.6531 59.5117 47.6531 60.0781 47.6531 60.6641C47.6922 61.2109 47.7898 61.7188 47.9461 62.1875C48.1414 62.6562 48.4148 63.0469 48.7664 63.3594C49.157 63.6719 49.7039 63.8281 50.407 63.8281C50.9148 63.8281 51.4031 63.75 51.8718 63.5938C52.3406 63.4375 52.7898 63.2617 53.2195 63.0664C54.6257 62.3633 55.9148 61.5039 57.0867 60.4883C58.2586 59.4336 59.3523 58.3008 60.3679 57.0898C61.4226 55.8789 62.3992 54.6289 63.2976 53.3398C64.2351 52.0117 65.114 50.7227 65.9343 49.4727C66.0125 49.3945 66.0515 49.3359 66.0515 49.2969C66.7547 47.8125 67.5359 46.2891 68.3953 44.7266C69.2547 43.125 70.1726 41.5625 71.1492 40.0391C72.1257 38.4766 73.1609 36.9922 74.2547 35.5859C75.3484 34.1406 76.4617 32.832 77.5945 31.6602C77.7898 31.4648 78.0242 31.3672 78.2976 31.3672C78.532 31.3672 78.7273 31.4453 78.8836 31.6016C79.0789 31.7578 79.1765 31.9727 79.1765 32.2461Z" fill="url(#paint1_linear)"/>
<path d="M84.5829 108.365C84.5829 108.528 84.5015 108.691 84.3387 108.854C83.9481 109.212 83.4435 109.602 82.825 110.025C82.2066 110.449 81.5555 110.839 80.8719 111.197C80.1883 111.588 79.5047 111.913 78.8211 112.174C78.1375 112.434 77.5353 112.564 77.0145 112.564C76.3635 112.564 75.7775 112.434 75.2567 112.174C74.7684 111.913 74.3289 111.555 73.9383 111.1C73.5477 110.676 73.2385 110.188 73.0106 109.635C72.7827 109.081 72.6362 108.512 72.5711 107.926C72.506 107.307 72.4409 106.705 72.3758 106.119C72.3107 105.501 72.2782 104.882 72.2782 104.264C72.2782 102.701 72.4409 100.895 72.7664 98.8438C73.092 96.7604 73.4989 94.6445 73.9872 92.4961C74.4754 90.3151 75.0125 88.2155 75.5985 86.1973C76.1844 84.1465 76.7541 82.3724 77.3075 80.875C76.5588 82.0794 75.7938 83.2676 75.0125 84.4395C74.2638 85.6113 73.4989 86.7669 72.7176 87.9062C72.034 88.9479 71.3342 89.9896 70.618 91.0312C69.9019 92.0729 69.1369 93.0983 68.3231 94.1074C67.5418 95.1165 66.6955 96.0605 65.784 96.9395C64.9051 97.8184 63.9448 98.5996 62.9032 99.2832C62.8381 99.3158 62.7404 99.332 62.6102 99.332C62.4474 99.332 62.2847 99.2669 62.1219 99.1367C61.9592 99.0065 61.8452 98.86 61.7801 98.6973L61.7313 98.7461C61.6987 98.7461 61.6825 98.7298 61.6825 98.6973C61.6825 98.6647 61.6662 98.6322 61.6336 98.5996C61.3081 97.6556 61.064 96.679 60.9012 95.6699C60.771 94.6608 60.6734 93.6517 60.6082 92.6426C60.5431 91.666 60.478 90.6895 60.4129 89.7129C60.3804 88.7363 60.3316 87.7598 60.2664 86.7832C60.1362 85.0254 60.006 83.2676 59.8758 81.5098C59.7782 79.7194 59.648 77.929 59.4852 76.1387C58.3784 78.9056 57.353 81.6888 56.409 84.4883C55.465 87.2878 54.4559 90.0872 53.3817 92.8867C52.6004 94.9049 51.7378 96.8743 50.7938 98.7949C49.8498 100.715 48.7267 102.538 47.4247 104.264C46.7411 105.143 45.9761 105.956 45.1297 106.705C44.2834 107.454 43.3719 108.105 42.3954 108.658C41.4188 109.212 40.3771 109.635 39.2704 109.928C38.1961 110.253 37.1056 110.416 35.9989 110.416C35.8361 110.416 35.6896 110.335 35.5594 110.172C35.4292 110.009 35.3641 109.846 35.3641 109.684C35.3641 109.293 35.5431 109.065 35.9012 109C36.5848 108.837 37.2196 108.707 37.8055 108.609C38.424 108.479 39.0588 108.284 39.7098 108.023C41.2398 107.34 42.5744 106.396 43.7137 105.191C44.8856 103.987 45.9273 102.652 46.8387 101.188C47.7502 99.7227 48.5314 98.1927 49.1825 96.5977C49.8661 95.0026 50.4845 93.4727 51.0379 92.0078C51.5262 90.7057 51.9819 89.3874 52.4051 88.0527C52.8283 86.7181 53.2515 85.3997 53.6747 84.0977C54.1304 82.763 54.6024 81.4447 55.0907 80.1426C55.6115 78.8405 56.2137 77.571 56.8973 76.334C55.9859 76.8874 55.0581 77.3919 54.1141 77.8477C53.1701 78.2708 52.2424 78.7591 51.3309 79.3125C50.6473 79.7031 49.9637 80.1426 49.2801 80.6309C48.5965 81.0866 47.9455 81.6074 47.327 82.1934C46.7085 82.7467 46.1388 83.349 45.618 84C45.1297 84.651 44.7391 85.3509 44.4461 86.0996C44.3159 86.4251 44.2183 86.7507 44.1532 87.0762C44.0881 87.3691 44.0067 87.6784 43.909 88.0039C43.8765 88.1667 43.7951 88.2969 43.6649 88.3945C43.5347 88.4596 43.4045 88.4922 43.2743 88.4922C43.1441 88.4922 42.9813 88.4271 42.786 88.2969C42.5907 88.1667 42.493 88.0365 42.493 87.9062C42.493 86.7018 42.7046 85.5788 43.1278 84.5371C43.551 83.4954 44.1206 82.5352 44.8368 81.6562C45.5529 80.7448 46.3504 79.9147 47.2293 79.166C48.1408 78.4173 49.0685 77.75 50.0125 77.1641C51.5099 76.2201 53.0887 75.3086 54.7489 74.4297C56.409 73.5182 58.0692 72.7858 59.7293 72.2324H59.827C60.1525 72.2324 60.3967 72.3626 60.5594 72.623C60.6571 72.6882 60.7222 72.7858 60.7547 72.916C60.7873 73.0462 60.771 73.1602 60.7059 73.2578C61.2593 75.4388 61.6825 77.6523 61.9754 79.8984C62.2684 82.112 62.5288 84.3418 62.7567 86.5879C62.9194 88.2155 63.0659 89.8268 63.1961 91.4219C63.3589 92.9844 63.3914 94.5794 63.2938 96.207C64.5308 94.5794 65.784 92.9844 67.0536 91.4219C68.3231 89.8268 69.5275 88.1992 70.6668 86.5391C71.9364 84.7161 73.1896 82.9258 74.4266 81.168C75.6636 79.3776 76.9331 77.6035 78.2352 75.8457C78.6909 75.2598 79.1467 74.6576 79.6024 74.0391C80.0907 73.4206 80.5789 72.8346 81.0672 72.2812C81.1974 72.151 81.3439 72.0859 81.5067 72.0859C81.702 72.0859 81.9136 72.1999 82.1414 72.4277C82.3693 72.623 82.4832 72.8184 82.4832 73.0137V73.1113C81.4741 76.7572 80.3674 80.3379 79.1629 83.8535C77.9585 87.3691 76.9331 90.9824 76.0868 94.6934C75.6961 96.4512 75.3381 98.209 75.0125 99.9668C74.7196 101.692 74.5731 103.434 74.5731 105.191C74.5731 105.647 74.5894 106.184 74.6219 106.803C74.6545 107.421 74.7521 108.023 74.9149 108.609C75.0776 109.163 75.3218 109.635 75.6473 110.025C76.0054 110.416 76.5099 110.611 77.161 110.611C77.7469 110.611 78.398 110.449 79.1141 110.123C79.8303 109.83 80.5138 109.488 81.1649 109.098C81.8485 108.707 82.4344 108.365 82.9227 108.072C83.411 107.747 83.7039 107.584 83.8016 107.584C83.9969 107.584 84.176 107.665 84.3387 107.828C84.5015 107.991 84.5829 108.17 84.5829 108.365Z" fill="url(#paint2_linear)"/>
<path d="M105.692 95.4531C105.659 95.6484 105.562 95.8275 105.399 95.9902C105.269 96.153 105.09 96.2344 104.862 96.2344C104.569 96.2344 104.276 96.2181 103.983 96.1855C103.69 96.153 103.381 96.1367 103.055 96.1367C100.646 96.1367 98.2862 96.5924 95.9751 97.5039C93.6639 98.4154 91.5317 99.6523 89.5786 101.215C87.658 102.777 85.9816 104.6 84.5493 106.684C83.117 108.767 82.059 110.98 81.3754 113.324C81.1476 114.073 80.9523 114.838 80.7895 115.619C80.6593 116.4 80.5454 117.165 80.4477 117.914C80.3175 118.793 80.2361 119.688 80.2036 120.6C80.171 121.511 80.2198 122.406 80.3501 123.285C80.4803 124.164 80.6756 125.01 80.936 125.824C81.229 126.638 81.6359 127.387 82.1567 128.07C82.352 128.331 82.5636 128.591 82.7915 128.852C83.0193 129.079 83.2635 129.275 83.5239 129.438C84.0122 129.73 84.6307 129.942 85.3793 130.072C86.128 130.202 86.8116 130.268 87.4301 130.268C89.1879 130.268 90.9458 129.893 92.7036 129.145C94.4614 128.396 95.9913 127.354 97.2934 126.02C97.6515 125.661 97.9607 125.32 98.2211 124.994C98.4816 124.636 98.7583 124.262 99.0512 123.871C99.214 123.643 99.4256 123.529 99.686 123.529C99.8813 123.529 100.044 123.594 100.174 123.725C100.337 123.855 100.402 124.034 100.37 124.262C100.37 124.294 100.337 124.376 100.272 124.506C99.5883 125.678 98.742 126.752 97.7329 127.729C96.7237 128.673 95.6333 129.486 94.4614 130.17C93.2895 130.821 92.0525 131.326 90.7504 131.684C89.4809 132.074 88.1951 132.27 86.893 132.27C86.5349 132.27 86.1443 132.253 85.7211 132.221C85.298 132.188 84.8748 132.123 84.4516 132.025C84.0284 131.96 83.6215 131.863 83.2309 131.732C82.8403 131.635 82.4985 131.505 82.2055 131.342C81.9451 131.179 81.6847 130.967 81.4243 130.707C81.1639 130.447 80.9197 130.202 80.6918 129.975C79.227 128.347 78.3481 126.459 78.0551 124.311C77.7622 122.13 77.7622 119.916 78.0551 117.67C78.1528 116.889 78.283 116.107 78.4458 115.326C78.6085 114.545 78.7876 113.764 78.9829 112.982C79.6014 110.574 80.6267 108.246 82.059 106C83.4913 103.721 85.2003 101.719 87.186 99.9941C89.2042 98.2363 91.4015 96.8366 93.7778 95.7949C96.1866 94.7207 98.6443 94.1836 101.151 94.1836C101.737 94.1836 102.437 94.2324 103.25 94.3301C104.064 94.3952 104.732 94.5254 105.252 94.7207C105.578 94.8509 105.724 95.0951 105.692 95.4531Z" fill="url(#paint3_linear)"/>
<path d="M41.4671 71.0586C41.4671 73.0768 41.0439 74.9811 40.1976 76.7715C39.3512 78.5618 38.2282 80.1569 36.8284 81.5566C37.4795 82.5332 38.1305 83.4609 38.7816 84.3398C39.4651 85.2188 40.1813 86.0977 40.93 86.9766C41.0928 87.1393 41.1741 87.3346 41.1741 87.5625C41.1741 87.7578 41.109 87.9206 40.9788 88.0508C40.8486 88.2135 40.6859 88.2949 40.4905 88.2949C40.2301 88.2949 39.8395 88.0508 39.3187 87.5625C38.8304 87.1068 38.3095 86.5859 37.7562 86C37.2353 85.3815 36.7308 84.7793 36.2425 84.1934C35.7868 83.6074 35.4775 83.2005 35.3148 82.9727C33.8499 84.112 32.2386 85.0234 30.4808 85.707C28.7555 86.3906 26.9651 86.7324 25.1097 86.7324C24.5237 86.7324 23.889 86.6836 23.2054 86.5859C22.5218 86.4883 21.8382 86.3418 21.1546 86.1465C20.5036 85.9512 19.8688 85.707 19.2503 85.4141C18.6644 85.1211 18.1273 84.7793 17.639 84.3887C17.0856 83.9655 16.5973 83.4447 16.1741 82.8262C15.7835 82.1751 15.4417 81.4915 15.1487 80.7754C14.8883 80.0267 14.6767 79.278 14.514 78.5293C14.3838 77.7806 14.3187 77.0645 14.3187 76.3809C14.3187 74.6882 14.7418 73.1582 15.5882 71.791C16.4671 70.4238 17.5576 69.2031 18.8597 68.1289C20.1618 67.0547 21.5615 66.0944 23.0589 65.248C24.5888 64.3691 26.0049 63.5553 27.3069 62.8066C27.2418 62.2533 27.1605 61.7161 27.0628 61.1953C26.9651 60.6419 26.9163 60.0885 26.9163 59.5352C26.9163 58.4284 27.0465 57.3379 27.3069 56.2637C27.5999 55.1569 28.0068 54.1152 28.5276 53.1387C29.081 52.1621 29.7484 51.2832 30.5296 50.502C31.3434 49.6882 32.2711 49.0534 33.3128 48.5977C33.6058 48.4674 33.8987 48.3698 34.1917 48.3047C34.5172 48.207 34.8428 48.1582 35.1683 48.1582C36.275 48.1582 37.2191 48.5163 38.0003 49.2324C38.8141 49.9486 39.221 50.8763 39.221 52.0156C39.221 52.7969 39.0908 53.5781 38.8304 54.3594C38.6025 55.1406 38.277 55.9056 37.8538 56.6543C37.4632 57.3704 37.0075 58.054 36.4866 58.7051C35.9984 59.3561 35.4938 59.9421 34.973 60.4629C34.2568 61.179 33.4918 61.8138 32.678 62.3672C31.8968 62.9206 31.083 63.4577 30.2366 63.9785C30.7575 66.778 31.4736 69.5286 32.3851 72.2305C33.2965 74.8997 34.4684 77.4714 35.9007 79.9453C37.1051 78.7083 38.0817 77.3249 38.8304 75.7949C39.5791 74.2324 39.9534 72.5723 39.9534 70.8145C39.9534 70.3587 39.9209 69.9193 39.8558 69.4961C39.7907 69.0729 39.7093 68.6335 39.6116 68.1777V67.9824C39.6116 67.7871 39.6767 67.6243 39.8069 67.4941C39.9372 67.3314 40.0999 67.25 40.2952 67.25C40.6859 67.25 40.93 67.4453 41.0276 67.8359C41.1904 68.2917 41.3043 68.8288 41.3694 69.4473C41.4345 70.0332 41.4671 70.5703 41.4671 71.0586ZM36.6331 52.1133C36.6331 51.5599 36.4866 51.2018 36.1937 51.0391C35.9007 50.8763 35.5101 50.7949 35.0218 50.7949C34.7939 50.7949 34.6149 50.8438 34.4847 50.9414C32.8896 51.8529 31.6689 53.0247 30.8226 54.457C30.0088 55.8893 29.6019 57.5332 29.6019 59.3887C29.6019 60.0723 29.6507 60.7233 29.7484 61.3418C30.3668 60.9837 30.9691 60.5931 31.555 60.1699C32.1409 59.7467 32.678 59.2747 33.1663 58.7539C33.5569 58.3633 33.9476 57.9076 34.3382 57.3867C34.7614 56.8333 35.1357 56.2637 35.4612 55.6777C35.8193 55.0918 36.096 54.4896 36.2913 53.8711C36.5192 53.2526 36.6331 52.6667 36.6331 52.1133ZM34.2405 81.4102C32.6129 78.9688 31.262 76.3971 30.1878 73.6953C29.1461 70.9935 28.3323 68.2103 27.7464 65.3457C26.7047 65.9316 25.5329 66.5827 24.2308 67.2988C22.9612 68.015 21.7568 68.8288 20.6175 69.7402C19.5107 70.6517 18.5667 71.6771 17.7855 72.8164C17.0042 73.9232 16.6136 75.1602 16.6136 76.5273C16.6136 77.0482 16.6624 77.6016 16.7601 78.1875C16.8577 78.7734 17.0042 79.3594 17.1995 79.9453C17.4274 80.4987 17.6878 81.0358 17.9808 81.5566C18.3063 82.0449 18.6644 82.4518 19.055 82.7773C19.8688 83.4284 20.8291 83.9167 21.9359 84.2422C23.0752 84.5677 24.1657 84.7305 25.2073 84.7305C26.8675 84.7305 28.4625 84.4375 29.9925 83.8516C31.555 83.2331 32.971 82.4193 34.2405 81.4102Z" fill="url(#paint4_linear)"/>
<defs>
<linearGradient id="paint0_linear" x1="50.548" y1="-12" x2="-43.5128" y2="55.1734" gradientUnits="userSpaceOnUse">
<stop stop-color="#91B247"/>
<stop offset="1" stop-color="#2DDD49" stop-opacity="0.46"/>
</linearGradient>
<linearGradient id="paint1_linear" x1="59.2869" y1="7" x2="7.50389" y2="42.3743" gradientUnits="userSpaceOnUse">
<stop stop-color="#91B247"/>
<stop offset="1" stop-color="#2DDD49" stop-opacity="0.46"/>
</linearGradient>
<linearGradient id="paint2_linear" x1="57.5007" y1="61" x2="18.7974" y2="90.4767" gradientUnits="userSpaceOnUse">
<stop stop-color="#91B247"/>
<stop offset="1" stop-color="#2DDD49" stop-opacity="0.46"/>
</linearGradient>
<linearGradient id="paint3_linear" x1="92.6594" y1="83" x2="59.823" y2="108.265" gradientUnits="userSpaceOnUse">
<stop stop-color="#91B247"/>
<stop offset="1" stop-color="#2DDD49" stop-opacity="0.46"/>
</linearGradient>
<linearGradient id="paint4_linear" x1="32.2638" y1="38" x2="-14.354" y2="58.0428" gradientUnits="userSpaceOnUse">
<stop stop-color="#91B247"/>
<stop offset="1" stop-opacity="0.53"/>
</linearGradient>
</defs>
</svg>

