<svg width="111" height="152" viewBox="0 0 111 152" fill="none" xmlns="http://www.w3.org/2000/svg">
<path d="M4.345 11.75H6.16V35.675H34.43V11.75H36.245V53H34.43V37.27H6.16V53H4.345V11.75Z" fill="url(#paint0_linear)"/>
<path d="M62.2282 32L48.8482 59V77H46.8682V59L33.1882 32H35.3482L47.8882 56.66L60.1882 32H62.2282Z" fill="url(#paint1_linear)"/>
<path d="M79.2758 83.5V121H77.6258V85.9L59.9258 121.7L42.3258 85.45V121H40.6758V83.5H43.0258L59.9258 118.3L76.9758 83.5H79.2758Z" fill="url(#paint2_linear)"/>
<path d="M96.8688 144C93.3688 144 90.1521 143.15 87.2188 141.45C84.2855 139.717 81.9521 137.35 80.2188 134.35C78.5188 131.317 77.6688 127.917 77.6688 124.15C77.6688 120.517 78.5521 117.2 80.3188 114.2C82.1188 111.2 84.5021 108.833 87.4688 107.1C90.4688 105.367 93.6521 104.5 97.0188 104.5C99.3521 104.5 101.202 104.717 102.569 105.15C103.935 105.55 105.519 106.267 107.319 107.3V109.15C105.619 107.983 104.035 107.167 102.569 106.7C101.135 106.2 99.3355 105.95 97.1688 105.95C93.8688 105.95 90.8521 106.8 88.1188 108.5C85.4188 110.167 83.2688 112.417 81.6688 115.25C80.1021 118.05 79.3188 121.067 79.3188 124.3C79.3188 127.567 80.1188 130.6 81.7188 133.4C83.3188 136.2 85.4355 138.433 88.0688 140.1C90.7355 141.733 93.6021 142.55 96.6688 142.55C98.8688 142.55 100.785 142.3 102.419 141.8C104.052 141.267 105.685 140.45 107.319 139.35V141.2C105.719 142.167 104.069 142.867 102.369 143.3C100.702 143.767 98.8688 144 96.8688 144Z" fill="url(#paint3_linear)"/>
<path d="M28.0284 98.7C25.7951 98.7 23.7284 98.1667 21.8284 97.1C19.9284 96.0333 18.4118 94.5667 17.2784 92.7C16.1451 90.8 15.5784 88.7 15.5784 86.4C15.5784 83.5667 16.4118 81.0333 18.0784 78.8C19.7451 76.5333 21.9284 75 24.6284 74.2C23.3284 73.6 22.2618 72.6833 21.4284 71.45C20.6284 70.1833 20.2284 68.8167 20.2284 67.35C20.2284 66.0167 20.5618 64.8 21.2284 63.7C21.9284 62.5667 22.8784 61.6667 24.0784 61C25.3118 60.3333 26.6618 60 28.1284 60C30.3951 60 32.2951 60.8667 33.8284 62.6V65.25C33.3284 64.1167 32.5284 63.2 31.4284 62.5C30.3618 61.7667 29.1618 61.4 27.8284 61.4C26.8284 61.4 25.8618 61.6833 24.9284 62.25C23.9951 62.8167 23.2451 63.5667 22.6784 64.5C22.1118 65.4333 21.8284 66.4333 21.8284 67.5C21.8284 68.5667 22.1118 69.5667 22.6784 70.5C23.2451 71.4333 23.9951 72.1833 24.9284 72.75C25.8618 73.3167 26.8784 73.6 27.9784 73.6H28.6784V75H28.2784C26.3118 75 24.4618 75.5167 22.7284 76.55C21.0284 77.5833 19.6618 78.9833 18.6284 80.75C17.6284 82.4833 17.1284 84.3833 17.1284 86.45C17.1284 88.4833 17.6284 90.3333 18.6284 92C19.6284 93.6333 20.9784 94.9167 22.6784 95.85C24.3784 96.7833 26.2118 97.25 28.1784 97.25C30.2118 97.25 32.0784 96.75 33.7784 95.75C35.5118 94.75 36.8784 93.4 37.8784 91.7C38.9118 90 39.4284 88.15 39.4284 86.15V75H32.4784V73.6H47.8784V75H40.9284V98H39.4284V91.6C38.6951 93.6333 37.2451 95.3333 35.0784 96.7C32.9451 98.0333 30.5951 98.7 28.0284 98.7Z" fill="url(#paint4_linear)"/>
<defs>
<linearGradient id="paint0_linear" x1="52.548" y1="0" x2="-41.5128" y2="67.1734" gradientUnits="userSpaceOnUse">
<stop stop-color="#91B247" stop-opacity="0.8"/>
<stop offset="1" stop-color="#2DDD49" stop-opacity="0.2"/>
</linearGradient>
<linearGradient id="paint1_linear" x1="61.2869" y1="19" x2="9.50389" y2="54.3743" gradientUnits="userSpaceOnUse">
<stop stop-color="#91B247" stop-opacity="0.8"/>
<stop offset="1" stop-color="#2DDD49" stop-opacity="0.2"/>
</linearGradient>
<linearGradient id="paint2_linear" x1="59.5007" y1="73" x2="20.7974" y2="102.477" gradientUnits="userSpaceOnUse">
<stop stop-color="#91B247" stop-opacity="0.8"/>
<stop offset="1" stop-color="#2DDD49" stop-opacity="0.2"/>
</linearGradient>
<linearGradient id="paint3_linear" x1="94.6594" y1="95" x2="61.823" y2="120.265" gradientUnits="userSpaceOnUse">
<stop stop-color="#91B247" stop-opacity="0.8"/>
<stop offset="1" stop-color="#2DDD49" stop-opacity="0.2"/>
</linearGradient>
<linearGradient id="paint4_linear" x1="34.2638" y1="50" x2="-12.354" y2="70.0428" gradientUnits="userSpaceOnUse">
<stop stop-color="#91B247"/>
<stop offset="1" stop-opacity="0.2"/>
</linearGradient>
</defs>
</svg>